<svg width="34" height="34" viewBox="0 0 34 34" fill="none" xmlns="http://www.w3.org/2000/svg">
<path d="M27.3594 1.59375H6.64062C3.55991 1.59375 1.0625 4.09116 1.0625 7.17188V26.8281C1.0625 29.9088 3.55991 32.4062 6.64062 32.4062H27.3594C30.4401 32.4062 32.9375 29.9088 32.9375 26.8281V7.17188C32.9375 4.09116 30.4401 1.59375 27.3594 1.59375Z" fill="#470137"/>
<path d="M17.4474 10.3116L13.5268 17.0478L17.7516 24.2197C17.8379 24.3658 17.8007 24.4375 17.6427 24.4375H15.0077C14.9424 24.4444 14.8766 24.4315 14.8188 24.4004C14.761 24.3694 14.7139 24.3217 14.6836 24.2635L11.7099 18.8089H11.6874L8.79205 24.2635C8.76543 24.3154 8.72513 24.3591 8.67551 24.3897C8.62588 24.4204 8.56882 24.4369 8.51049 24.4375H5.97643C5.83166 24.4375 5.80377 24.3658 5.8901 24.2197L10.0445 17.2444L6.08667 10.2677C6.00034 10.1522 6.02956 10.0937 6.17299 10.0937H8.81331C8.86992 10.0897 8.92651 10.1019 8.9764 10.129C9.02629 10.156 9.06739 10.1968 9.09487 10.2465L11.8839 15.636H11.9052L14.6796 10.2465C14.707 10.197 14.7479 10.1564 14.7975 10.1294C14.8472 10.1023 14.9035 10.09 14.9599 10.0937H17.3611C17.5205 10.0937 17.5484 10.1668 17.4474 10.3116ZM23.8889 24.7031C22.3482 24.7031 21.1622 24.2662 20.2418 23.3936C19.3214 22.521 18.8592 21.2314 18.8592 19.5234C18.8592 17.9713 19.3542 16.6963 20.3441 15.6984C20.8506 15.1742 21.4596 14.7598 22.1332 14.481C22.8068 14.2023 23.5305 14.0651 24.2594 14.0781C24.5856 14.0723 24.9113 14.1071 25.2289 14.1817V9.68734C25.2265 9.6705 25.2281 9.65334 25.2334 9.63719C25.2387 9.62104 25.2477 9.60635 25.2597 9.59426C25.2717 9.58217 25.2863 9.57301 25.3023 9.5675C25.3184 9.56199 25.3356 9.56028 25.3524 9.5625H27.7803C27.848 9.5625 27.8825 9.60367 27.8825 9.68734V22.2713C27.8825 22.8026 28.1123 23.2555 28.1482 23.6433C28.1555 23.6817 28.1491 23.7214 28.1302 23.7556C28.1113 23.7898 28.081 23.8163 28.0446 23.8305C26.8532 24.4123 25.2914 24.7031 23.8889 24.7031ZM25.2342 22.6459V16.2217C25.1479 16.0703 24.691 15.9375 24.2235 15.9375C23.8366 15.9275 23.4523 16.0039 23.0987 16.1613C22.7451 16.3187 22.4311 16.5531 22.1796 16.8473C21.567 17.5647 21.2365 18.4806 21.2499 19.4238C21.2499 20.5873 21.6483 21.3841 22.1676 21.938C22.4131 22.2194 22.7154 22.4457 23.0547 22.6018C23.3939 22.758 23.7624 22.8404 24.1359 22.8437C24.6313 22.8437 25.116 22.7694 25.2342 22.6459Z" fill="#FF61F6"/>
</svg>
