<svg width="60" height="60" viewBox="0 0 60 60" fill="none" xmlns="http://www.w3.org/2000/svg">
<path d="M7.47803 3.16406C5.93612 3.16406 4.66553 4.43466 4.66553 5.97656V54.7266C4.66553 56.2685 5.93612 57.5391 7.47803 57.5391H14.978C16.5199 57.5391 17.7905 56.2685 17.7905 54.7266V5.97656C17.7905 4.43466 16.5199 3.16406 14.978 3.16406H7.47803ZM7.47803 5.03906H14.978C15.5136 5.03906 15.9155 5.44097 15.9155 5.97656V54.7266C15.9155 55.2622 15.5136 55.6641 14.978 55.6641H7.47803C6.94243 55.6641 6.54053 55.2622 6.54053 54.7266V5.97656C6.54053 5.44097 6.94243 5.03906 7.47803 5.03906Z" fill="#FF5722"/>
<path d="M5.60303 10.6641V12.5391H16.853V10.6641H5.60303ZM5.60303 14.4141V16.2891H16.853V14.4141H5.60303ZM5.60303 18.1641V20.0391H16.853V18.1641H5.60303Z" fill="#FF5722"/>
<path d="M20.603 57.5391C19.0611 57.5391 17.7905 56.2685 17.7905 54.7266V5.97656C17.7905 4.43466 19.0611 3.16406 20.603 3.16406H28.103C29.6449 3.16406 30.9155 4.43466 30.9155 5.97656V54.7266C30.9155 56.2685 29.6449 57.5391 28.103 57.5391H20.603ZM20.603 55.6641H28.103C28.6386 55.6641 29.0405 55.2622 29.0405 54.7266V5.97656C29.0405 5.44097 28.6386 5.03906 28.103 5.03906H20.603C20.0674 5.03906 19.6655 5.44097 19.6655 5.97656V54.7266C19.6655 55.2622 20.0674 55.6641 20.603 55.6641Z" fill="#FF5722"/>
<path d="M18.728 48.1641V50.0391H29.978V48.1641H18.728ZM18.728 44.4141V46.2891H29.978V44.4141H18.728ZM18.728 40.6641V42.5391H29.978V40.6641H18.728Z" fill="#FF5722"/>
<path d="M31.9315 55.079C30.4421 54.6799 29.5437 53.1238 29.9428 51.6344L42.5602 4.54552C42.9593 3.05616 44.5154 2.15771 46.0048 2.55679L53.2492 4.49793C54.7386 4.897 55.6371 6.45316 55.238 7.94252L42.6205 55.0314C42.2215 56.5208 40.6653 57.4192 39.176 57.0201L31.9315 55.079ZM32.4168 53.2679L39.6612 55.209C40.1786 55.3477 40.6708 55.0635 40.8094 54.5461L53.4269 7.45724C53.5655 6.93989 53.2813 6.44766 52.764 6.30904L45.5195 4.3679C45.0022 4.22928 44.5099 4.51347 44.3713 5.03081L31.7539 52.1197C31.6153 52.637 31.8995 53.1293 32.4168 53.2679Z" fill="#FF5722"/>
<path d="M32.5452 45.5383L32.0618 47.3511L42.9272 50.2625L43.4143 48.4497L32.5452 45.5383ZM33.5156 41.9165L33.0322 43.7256L43.8977 46.6406L44.3848 44.8279L33.5156 41.9165ZM34.4897 38.2947L34.0027 40.1038L44.8682 43.0151L45.3552 41.2061L34.4897 38.2947Z" fill="#FF5722"/>
</svg>
