<svg width="60" height="60" viewBox="0 0 60 60" fill="none" xmlns="http://www.w3.org/2000/svg">
<path d="M57.1875 37.5398H54.375V35.625C54.375 34.5909 53.5336 33.75 52.5 33.75H50.625V25.3125H52.5C53.5336 25.3125 54.375 24.4716 54.375 23.4375V21.5625C54.375 20.5284 53.5336 19.6875 52.5 19.6875H48.75V9.375C48.75 7.82414 47.4884 6.5625 45.9375 6.5625H17.8125C16.7789 6.5625 15.9375 7.40344 15.9375 8.4375V9.375C15.9375 10.4091 16.7789 11.25 17.8125 11.25H18.75V16.875H17.8125C16.7789 16.875 15.9375 17.7159 15.9375 18.75V19.6875H13.125C11.5741 19.6875 10.3125 20.9491 10.3125 22.5V37.5398H1.875C0.841406 37.5398 0 38.3808 0 39.4148V41.25C0 42.2841 0.841406 43.125 1.875 43.125H4.6875V52.5H1.875C0.841406 52.5 0 53.3409 0 54.375V56.25C0 57.2841 0.841406 58.125 1.875 58.125H57.1875C58.7384 58.125 60 56.8634 60 55.3125V40.3523C60 38.8014 58.7384 37.5398 57.1875 37.5398ZM48.75 33.75H15.9375V25.3125H48.75V33.75ZM20.625 15H31.875C32.3932 15 32.8125 14.5802 32.8125 14.0625C32.8125 13.5448 32.3932 13.125 31.875 13.125H20.625V11.25H44.0625V16.875H20.625V15ZM17.8125 18.75H45C45.5182 18.75 45.9375 18.3302 45.9375 17.8125V10.3125C45.9375 9.79477 45.5182 9.375 45 9.375H17.8125V8.4375H45.9375C46.4548 8.4375 46.875 8.8582 46.875 9.375V19.6875H17.8125V18.75ZM12.1875 22.5C12.1875 21.9832 12.6077 21.5625 13.125 21.5625H52.5V23.4375H15C14.4818 23.4375 14.0625 23.8573 14.0625 24.375V34.6875C14.0625 35.2052 14.4818 35.625 15 35.625H52.5V37.5398H12.1875V22.5ZM6.5625 50.625H43.125C43.6432 50.625 44.0625 50.2052 44.0625 49.6875C44.0625 49.1698 43.6432 48.75 43.125 48.75H6.5625V46.875H24.375C24.8932 46.875 25.3125 46.4552 25.3125 45.9375C25.3125 45.4198 24.8932 45 24.375 45H6.5625V43.125H54.375V52.5H6.5625V50.625ZM58.125 55.3125C58.125 55.8293 57.7048 56.25 57.1875 56.25H1.875V54.375H55.3125C55.8307 54.375 56.25 53.9552 56.25 53.4375V42.1875C56.25 41.6698 55.8307 41.25 55.3125 41.25H1.875V39.4148H57.1875C57.7048 39.4148 58.125 39.8355 58.125 40.3523V55.3125Z" fill="#FF5722"/>
<path d="M19.6875 31.875H22.5C23.0182 31.875 23.4375 31.4552 23.4375 30.9375C23.4375 30.4198 23.0182 30 22.5 30H19.6875C19.1693 30 18.75 30.4198 18.75 30.9375C18.75 31.4552 19.1693 31.875 19.6875 31.875ZM26.25 31.875H46.875C47.3932 31.875 47.8125 31.4552 47.8125 30.9375C47.8125 30.4198 47.3932 30 46.875 30H26.25C25.7318 30 25.3125 30.4198 25.3125 30.9375C25.3125 31.4552 25.7318 31.875 26.25 31.875ZM43.125 45H28.125C27.6068 45 27.1875 45.4198 27.1875 45.9375C27.1875 46.4552 27.6068 46.875 28.125 46.875H43.125C43.6432 46.875 44.0625 46.4552 44.0625 45.9375C44.0625 45.4198 43.6432 45 43.125 45ZM33.75 28.125H46.875C47.3932 28.125 47.8125 27.7052 47.8125 27.1875C47.8125 26.6698 47.3932 26.25 46.875 26.25H33.75C33.2318 26.25 32.8125 26.6698 32.8125 27.1875C32.8125 27.7052 33.2318 28.125 33.75 28.125ZM38.4375 13.125H35.625C35.1068 13.125 34.6875 13.5448 34.6875 14.0625C34.6875 14.5802 35.1068 15 35.625 15H38.4375C38.9557 15 39.375 14.5802 39.375 14.0625C39.375 13.5448 38.9557 13.125 38.4375 13.125Z" fill="#FF5722"/>
</svg>
