<svg width="548" height="500" viewBox="0 0 548 500" fill="none" xmlns="http://www.w3.org/2000/svg">
<g clip-path="url(#clip0_209_344)">
<path opacity="0.18" d="M547.682 302.964C547.681 313.699 546.495 324.401 544.147 334.876C523.253 428.527 411.883 500 277.662 500C222.287 500 170.809 487.832 127.973 466.972C98.4128 452.578 72.9593 434.044 53.1827 412.496C44.7737 404.516 37.3734 395.536 31.1471 385.757C-25.6467 297.623 -4.35007 140.359 91.7366 141.669C103.199 141.898 114.662 141.311 126.041 139.914C153.04 136.429 169.415 128.267 179.333 119.416C181.769 117.252 183.988 114.855 185.959 112.261C199.762 93.9136 220.112 81.601 242.77 77.8888C443.189 45.7843 516.174 145.7 538.797 229.887C544.943 252.588 547.908 276.031 547.607 299.547C547.665 300.68 547.682 301.822 547.682 302.964Z" fill="#68E1FD"/>
<path opacity="0.05" d="M144.256 430.803L37.3195 394.693C37.3195 394.693 -2.03224 345.877 0.159563 263.781L159.296 328.922C159.296 328.922 228.493 309.036 269.718 307.046C310.942 305.055 493.702 285.867 493.702 285.867C493.702 285.867 528.972 326.302 513.285 338.671C497.598 351.041 384.691 353.124 384.691 353.124L306.172 307.104L240.133 358.129L189.814 405.61L144.256 430.803Z" fill="#000405"/>
<path d="M319.567 249.53L317.887 253.796C317.887 253.796 322.926 258.255 319.567 260.17C319.567 260.17 337.051 259.086 319.567 249.53Z" fill="#3F3D56"/>
<path d="M119.735 387.681L117.702 393.441L134.389 401.243C134.389 401.243 149.874 403.191 154.636 399.11C157.524 396.564 159.635 393.254 160.724 389.562L119.735 387.681Z" fill="#333333"/>
<path d="M163.428 333.633C163.428 333.633 183.062 333.289 188.806 340.418C194.55 347.548 173.908 368.66 173.908 368.66L126.302 372.019L163.428 333.633Z" fill="#68E1FD"/>
<path d="M163.428 333.633C163.428 333.633 183.062 333.289 188.806 340.418C194.55 347.548 173.908 368.66 173.908 368.66L126.302 372.019L163.428 333.633Z" fill="url(#paint0_linear_209_344)"/>
<path d="M162.722 364.243C162.722 364.243 203.972 367.963 211.144 370.608C224.698 375.705 220.667 394.751 214.545 396.784C209.431 398.505 170.532 412.739 158.095 417.299C157.064 417.672 155.93 417.635 154.925 417.196C153.921 416.757 153.123 415.949 152.696 414.94L148.388 404.77C148.151 404.213 148.034 403.613 148.046 403.008C148.057 402.404 148.196 401.808 148.454 401.261C148.712 400.714 149.082 400.228 149.541 399.834C150 399.44 150.537 399.147 151.117 398.975L175.588 391.695C175.588 391.695 139.259 395.356 131.92 393.727C115.67 390.166 99.6472 369.374 108.179 351.218C116.711 333.062 162.722 364.243 162.722 364.243Z" fill="#68E1FD"/>
<path d="M162.722 364.243C162.722 364.243 203.972 367.963 211.144 370.608C224.698 375.705 220.667 394.751 214.545 396.784C209.431 398.505 170.532 412.739 158.095 417.299C157.064 417.672 155.93 417.635 154.925 417.196C153.921 416.757 153.123 415.949 152.696 414.94L148.388 404.77C148.151 404.213 148.034 403.613 148.046 403.008C148.057 402.404 148.196 401.808 148.454 401.261C148.712 400.714 149.082 400.228 149.541 399.834C150 399.44 150.537 399.147 151.117 398.975L175.588 391.695C175.588 391.695 139.259 395.356 131.92 393.727C115.67 390.166 99.6472 369.374 108.179 351.218C116.711 333.062 162.722 364.243 162.722 364.243Z" fill="url(#paint1_linear_209_344)"/>
<path d="M270.482 261.597L268.576 269.054L278.351 277.712C278.351 277.712 275.554 277.712 273.312 282.079L272.422 291.627C272.422 291.627 278.989 305.836 297.111 293.416L326.503 319.399L391.695 296.439L393.089 287.555L270.482 261.597Z" fill="#3F3D56"/>
<path d="M447.22 268.727L414.788 255.988C412.787 254.866 410.545 254.246 408.252 254.178C405.959 254.111 403.684 254.599 401.621 255.601C399.793 256.465 398.236 257.811 397.119 259.496C396.001 261.18 395.366 263.138 395.28 265.158C394.164 277.419 400.764 333.851 400.764 333.851C403.198 334.793 405.735 335.445 408.322 335.791C410.591 336.244 412.932 336.194 415.18 335.644C417.427 335.094 419.527 334.058 421.33 332.608L421.96 290.158C421.96 290.158 458.515 312.739 471.557 310.858C486.152 308.759 509.632 296.784 493.769 269.012C477.906 241.241 447.22 268.727 447.22 268.727Z" fill="#68E1FD"/>
<path d="M447.22 268.727L414.788 255.988C412.787 254.866 410.545 254.246 408.252 254.178C405.959 254.111 403.684 254.599 401.621 255.601C399.793 256.465 398.236 257.811 397.119 259.496C396.001 261.18 395.366 263.138 395.28 265.158C394.164 277.419 400.764 333.851 400.764 333.851C403.198 334.793 405.735 335.445 408.322 335.791C410.591 336.244 412.932 336.194 415.18 335.644C417.427 335.094 419.527 334.058 421.33 332.608L421.96 290.158C421.96 290.158 458.515 312.739 471.557 310.858C486.152 308.759 509.632 296.784 493.769 269.012C477.906 241.241 447.22 268.727 447.22 268.727Z" fill="url(#paint2_linear_209_344)"/>
<path d="M420.348 194.054C420.348 194.054 410.825 224.37 408.255 230.87C405.685 237.37 360.657 242.778 360.657 242.778L362.336 262.235L413.613 255.87L429.031 233.574L420.348 194.054Z" fill="#68E1FD"/>
<path opacity="0.61" d="M420.348 194.054C420.348 194.054 410.825 224.37 408.255 230.87C405.685 237.37 360.657 242.778 360.657 242.778L362.336 262.235L413.613 255.87L429.031 233.574L420.348 194.054Z" fill="url(#paint3_linear_209_344)"/>
<path d="M445.994 183.994L456.433 189.788C475.823 198.446 482.894 217.719 493.744 269.147C493.744 269.147 484.573 289.654 450.815 275.865C450.815 275.865 427.906 242.392 424.127 229.845C420.348 217.299 410.833 195.709 428.326 187.454C445.818 179.199 445.994 183.994 445.994 183.994Z" fill="#68E1FD"/>
<path opacity="0.05" d="M468.374 228.149L481.088 276.125C481.088 276.125 468.114 284.036 450.773 275.84C433.431 267.644 439.57 259.489 433.977 249.53L450.966 240.292L468.374 228.149Z" fill="#000405"/>
<path d="M444.525 181.92C443.852 183.374 442.892 184.676 441.702 185.748C440.513 186.821 439.118 187.641 437.602 188.159C436.086 188.677 434.481 188.882 432.884 188.762C431.287 188.643 429.73 188.2 428.309 187.462C428.309 187.462 418.5 204.568 432.508 202.528C439.931 201.444 446.431 190.393 447.674 184.792L444.525 181.92Z" fill="#333333"/>
<path d="M445.154 168.198C445.154 168.391 444.709 176.831 444.365 182.911C444.114 187.615 442.095 192.051 438.713 195.331C436.754 197.367 434.399 198.981 431.794 200.076C431.165 200.309 430.484 200.365 429.826 200.236C429.168 200.107 428.559 199.799 428.065 199.345C427.57 198.889 427.209 198.305 427.022 197.658C426.836 197.011 426.83 196.325 427.007 195.675C427.343 194.407 427.679 192.946 427.948 191.418C428.502 188.243 428.787 184.809 427.889 182.382C427.863 182.29 427.832 182.201 427.796 182.113C427.293 180.862 427.796 179.493 428.98 178.116C430.61 176.184 433.465 174.227 436.32 172.573C439.18 170.949 442.13 169.489 445.154 168.198Z" fill="url(#paint4_linear_209_344)"/>
<path d="M429.82 190.771C429.237 191.064 428.619 191.282 427.981 191.418C428.535 188.243 428.821 184.809 427.922 182.382L429.014 178.116L429.854 174.941L436.387 172.573L442.996 170.18C441.35 181.92 435.077 188.31 429.82 190.771Z" fill="url(#paint5_linear_209_344)"/>
<path d="M428.149 134.758C425.566 134.908 423.042 135.59 420.735 136.762C418.428 137.934 416.388 139.57 414.743 141.567C413.099 143.564 411.884 145.88 411.177 148.369C410.469 150.858 410.283 153.466 410.631 156.03C411.22 163.651 413.178 171.104 416.409 178.032C422.531 188.478 437.983 179.879 440.427 175.579C442.87 171.28 452.108 151.822 448.236 146.288C445.7 142.526 438.176 134.363 428.149 134.758Z" fill="url(#paint6_linear_209_344)"/>
<path d="M411.841 127.368L415.015 128.997C413.121 128.953 411.244 129.361 409.538 130.186C407.833 131.011 406.348 132.23 405.207 133.742C402.305 136.64 400.654 140.559 400.605 144.659L406.004 142.14C406.004 142.14 405.593 148.791 415.804 149.303C426.016 149.815 436.841 150.227 436.841 150.227L433.398 145.423C433.398 145.423 439.738 147.943 440.855 150.328C441.856 154.092 442.575 157.927 443.005 161.799C443.005 161.799 445.524 155.232 446.591 156.668C447.657 158.104 445.482 164.058 444.147 165.359C442.812 166.661 443.038 170.583 442.912 170.902C442.786 171.221 449.261 165.863 449.546 164.024C449.832 162.185 456.265 143.551 452.066 139.671L454.585 139.486C453.077 138.46 451.353 137.794 449.546 137.538C449.546 137.538 432.843 115.46 411.841 127.368Z" fill="#333333"/>
<path d="M360.598 245.213C357.366 244.647 354.188 243.804 351.1 242.694C346.152 241.41 341.088 240.62 335.984 240.334C335.984 240.334 335.002 243.693 337.664 244.382C340.326 245.071 343.374 246.196 343.374 246.196L332.272 247.313L321.994 248.715C321.994 248.715 322.976 252.074 325.739 252.074C326.541 253.519 327.616 254.794 328.905 255.828C330.86 257.596 332.673 259.514 334.33 261.564C335.725 262.665 337.211 263.646 338.772 264.494C339.343 264.494 360.984 261.975 362.286 259.909L360.598 245.213Z" fill="url(#paint7_linear_209_344)"/>
<path d="M450.873 275.865C450.873 275.865 454.232 292.585 459.212 296.792C459.212 296.792 426.562 322.271 425.042 340.704C422.917 366.182 503.258 326.671 503.258 326.671L497.699 312.597L462.865 328.04C462.865 328.04 484.061 313.713 494.592 299.379C502.872 288.008 498.371 277.544 493.752 269.416C493.702 269.147 473.707 285.673 450.873 275.865Z" fill="#68E1FD"/>
<path d="M450.873 275.865C450.873 275.865 454.232 292.585 459.212 296.792C459.212 296.792 426.562 322.271 425.042 340.704C422.917 366.182 503.258 326.671 503.258 326.671L497.699 312.597L462.865 328.04C462.865 328.04 484.061 313.713 494.592 299.379C502.872 288.008 498.371 277.544 493.752 269.416C493.702 269.147 473.707 285.673 450.873 275.865Z" fill="url(#paint8_linear_209_344)"/>
<path d="M497.607 312.588L503.636 310.514L506.617 318.416L499.958 322.968L497.607 312.588Z" fill="url(#paint9_linear_209_344)"/>
<path d="M408.952 339.268L408.381 335.766C410.652 336.133 412.973 336.04 415.208 335.493C417.442 334.947 419.544 333.957 421.389 332.583L421.742 338.319C419.846 339.501 417.692 340.205 415.464 340.371C413.236 340.536 411.001 340.157 408.952 339.268Z" fill="url(#paint10_linear_209_344)"/>
<path d="M408.826 338.193L394.55 343.349C394.55 343.349 386.614 341.409 385.027 345.868C383.986 348.156 383.884 350.761 384.741 353.124C384.741 353.124 388.487 356.483 397.817 354.526C407.146 352.57 422.405 347.808 422.405 347.808L421.834 338.478C419.784 339.413 417.55 339.873 415.297 339.823C413.045 339.774 410.833 339.216 408.826 338.193ZM504.778 308.7C504.778 308.7 501.192 310.17 501.604 311.119C502.015 312.068 503.283 309.976 506.491 318.45L504.434 319.953L508.868 329.501C507.693 330.386 506.76 331.554 506.157 332.896C505.553 334.238 505.299 335.71 505.417 337.177C505.862 339.503 509.985 339.822 513.285 338.68C516.585 337.538 518.013 330.207 518.013 330.207C518.013 330.207 515.855 312.63 511.413 309.699C506.97 306.769 504.778 308.7 504.778 308.7Z" fill="#333333"/>
<path d="M397.12 290.838L329.719 312.076L298.816 286.412C286.345 299.143 271.372 289.595 273.43 282.138C275.487 274.681 289.301 277.393 289.301 277.393L270.574 261.664L305.61 252.847C305.828 254.081 307.289 260.069 315.796 260.548C325.311 261.093 327.469 253.351 319.567 249.563L341.779 243.802L397.12 290.838Z" fill="#68E1FD"/>
<path opacity="0.05" d="M379.115 282.499C378.655 282.625 378.22 282.829 377.83 283.104C377.471 283.449 377.15 283.832 376.873 284.246C375.63 285.791 373.606 286.404 371.767 287.135C369.688 287.955 367.715 289.021 365.888 290.309C365.614 290.464 365.398 290.707 365.275 290.998C364.998 291.896 366.392 292.341 366.863 293.156C367.001 293.462 367.048 293.802 366.997 294.134C366.947 294.467 366.801 294.777 366.577 295.029C366.124 295.523 365.587 295.932 364.99 296.238C361.791 298.19 358.997 300.739 356.76 303.745C366.92 298.46 377.511 294.049 388.42 290.561C389.269 290.351 390.067 289.967 390.762 289.436C391.108 289.166 391.361 288.796 391.489 288.377C391.617 287.958 391.612 287.509 391.476 287.093C391.292 286.681 391.938 286.572 391.602 286.253C389.965 284.792 387.21 282.348 385.018 280.559C385.052 280.576 380.836 281.928 379.115 282.499Z" fill="#000405"/>
<path d="M468.668 198.866C467.471 197.457 465.919 196.394 464.172 195.787C462.426 195.181 460.548 195.053 458.736 195.417C456.923 195.782 455.241 196.625 453.864 197.859C452.488 199.093 451.466 200.673 450.907 202.435C450.302 204.375 449.664 206.701 449.034 209.565C445.675 225.042 430.467 258.7 430.467 258.7L386.303 282.558L398.388 298.035L450.075 272.556C450.075 272.556 472.984 221.952 472.573 212.303C472.724 207.524 471.357 202.82 468.668 198.866Z" fill="#68E1FD"/>
<path opacity="0.61" d="M468.668 198.866C467.471 197.457 465.919 196.394 464.172 195.787C462.426 195.181 460.548 195.053 458.736 195.417C456.923 195.782 455.241 196.625 453.864 197.859C452.488 199.093 451.466 200.673 450.907 202.435C450.302 204.375 449.664 206.701 449.034 209.565C445.675 225.042 430.467 258.7 430.467 258.7L386.303 282.558L398.388 298.035L450.075 272.556C450.075 272.556 472.984 221.952 472.573 212.303C472.724 207.524 471.357 202.82 468.668 198.866Z" fill="url(#paint11_linear_209_344)"/>
<path d="M390.074 284.725C386.882 285.583 383.623 286.167 380.333 286.471C375.299 287.384 370.369 288.79 365.611 290.67C365.611 290.67 366.115 294.113 368.786 293.635C371.456 293.156 374.714 292.937 374.714 292.937L365.2 298.64L356.441 304.241C356.441 304.241 358.725 306.886 361.228 305.702C362.569 306.68 364.09 307.385 365.704 307.776C368.206 308.555 370.646 309.524 373.001 310.673C374.73 311.09 376.492 311.356 378.267 311.471C378.779 311.245 397.531 299.782 397.657 297.397L390.074 284.725Z" fill="url(#paint12_linear_209_344)"/>
<path d="M242.492 278.577L258.616 284.943V294.499C258.616 294.499 239.301 294.911 239.301 303.283C239.301 311.656 257.516 318.223 269.726 307.046L297.523 323.001L296.515 331.181L212 361.757L163.579 302.679V293.131L242.492 278.577Z" fill="#3F3D56"/>
<path d="M242.492 269.147L258.616 284.909C258.616 284.909 239.301 285.329 239.301 293.702C239.301 302.074 257.516 308.641 269.726 297.455L297.523 322.934L212.89 352.78L163.579 293.29L196.8 283.129C196.8 283.129 186.236 276.025 196.389 271.28C198.265 270.359 200.301 269.809 202.385 269.659C210.354 269.34 211.622 273.446 212.672 277.939V278.292L242.492 269.147Z" fill="#68E1FD"/>
<path opacity="0.05" d="M177.007 289.184C177.007 289.184 190.443 318.391 196.834 323.236C200.395 325.941 225.008 333.969 245.91 335.102C247.867 335.212 253.98 329.543 256.869 330.291C261.068 331.391 256.105 335.161 257.079 335.212C269.676 335.808 276.654 330.291 276.654 330.291L210.312 354.241L165.863 290.502L177.007 289.184Z" fill="#000405"/>
<path d="M241.737 341.468C243.987 338.524 246.562 335.842 249.412 333.473C251.743 332.082 254.252 331.011 256.869 330.291C256.869 330.291 258.045 333.86 256.03 334.531C254.014 335.203 252.855 338.73 252.855 338.73C252.855 338.73 267.518 341.535 269.29 340.67C271.061 339.805 271.229 342.551 267.77 343.063C264.31 343.576 264.411 348.539 262.059 348.942C259.708 349.345 256.223 351.587 252.763 352.419C248.753 352.765 244.715 352.579 240.754 351.864L241.737 341.468Z" fill="url(#paint13_linear_209_344)"/>
<path d="M174.462 299.085C176.364 288.744 175.1 278.07 170.838 268.459C166.575 258.847 159.512 250.746 150.571 245.213C147.387 243.032 143.738 241.626 139.914 241.107C124.555 240.217 108.179 351.201 108.179 351.201C108.179 351.201 115.578 372.699 137.974 374.765C158.666 376.68 162.697 364.226 162.697 364.226L174.462 299.085Z" fill="#68E1FD"/>
<path opacity="0.61" d="M174.462 299.085C176.364 288.744 175.1 278.07 170.838 268.459C166.575 258.847 159.512 250.746 150.571 245.213C147.387 243.032 143.738 241.626 139.914 241.107C124.555 240.217 108.179 351.201 108.179 351.201C108.179 351.201 115.578 372.699 137.974 374.765C158.666 376.68 162.697 364.226 162.697 364.226L174.462 299.085Z" fill="url(#paint14_linear_209_344)"/>
<path d="M139.914 241.09C139.914 241.09 142.165 224.345 143.089 213.453C144.012 202.561 147.59 187.974 165.872 189.881C184.153 191.787 184.145 219.441 179.064 231.03C173.984 242.618 167.232 242.24 167.232 242.24C167.232 242.24 158.129 240.233 158.44 251.192L139.914 241.09Z" fill="url(#paint15_linear_209_344)"/>
<path d="M146.826 187.529C144.162 190.083 142.233 193.305 141.241 196.859C140.418 199.742 139.856 202.693 139.562 205.677L141.434 203.645C141.328 208.757 140.936 213.86 140.259 218.928C139.567 223.654 139.286 228.431 139.419 233.205L142.82 233.045L147.019 238.302L151.747 235.111L155.299 233.238L158.473 225.428C157.7 224.861 157.133 224.058 156.859 223.139C156.585 222.22 156.618 221.237 156.953 220.339C158.129 217.157 161.009 216.418 161.681 218.299C162.195 220.642 162.476 223.03 162.521 225.428L167.56 211.152C167.56 211.152 170.734 206.718 173.497 209.783C175.152 211.631 177.246 213.031 179.585 213.856L177.906 209.078L182.474 210.254L182.121 204.812L185.522 207.197C185.522 207.197 187.042 198.379 184.153 194.457C181.265 190.536 169.869 174.95 146.826 187.529Z" fill="#333333"/>
<path d="M242.207 338.638L204.803 334.59C199.748 333.619 195.124 331.088 191.583 327.352C188.041 323.616 185.76 318.864 185.06 313.764L171.229 271.565C170.394 268.917 168.833 266.556 166.723 264.75C164.614 262.943 162.041 261.764 159.296 261.345C157.131 261.021 154.918 261.252 152.866 262.016C150.814 262.78 148.99 264.052 147.563 265.714C146.137 267.375 145.155 269.371 144.71 271.515C144.266 273.659 144.372 275.881 145.02 277.973L159.296 328.922C159.97 334.515 162.543 339.708 166.586 343.632C170.629 347.556 175.897 349.973 181.508 350.479L240.149 358.129L242.207 338.638Z" fill="#68E1FD"/>
<path opacity="0.61" d="M242.207 338.638L204.803 334.59C199.748 333.619 195.124 331.088 191.583 327.352C188.041 323.616 185.76 318.864 185.06 313.764L171.229 271.565C170.394 268.917 168.833 266.556 166.723 264.75C164.614 262.943 162.041 261.764 159.296 261.345C157.131 261.021 154.918 261.252 152.866 262.016C150.814 262.78 148.99 264.052 147.563 265.714C146.137 267.375 145.155 269.371 144.71 271.515C144.266 273.659 144.372 275.881 145.02 277.973L159.296 328.922C159.97 334.515 162.543 339.708 166.586 343.632C170.629 347.556 175.897 349.973 181.508 350.479L240.149 358.129L242.207 338.638Z" fill="url(#paint16_linear_209_344)"/>
<path d="M149.874 400.571L138.865 403.09L143.273 415.83L154.795 413.168C154.795 413.168 157.843 403.317 149.874 400.571Z" fill="url(#paint17_linear_209_344)"/>
<path d="M134.389 401.243C134.389 401.243 141.594 399.714 142.786 402.167C143.979 404.619 140.149 404.459 140.914 407.936C141.554 410.58 142.348 413.185 143.29 415.737L146.842 414.939L147.573 419.138C147.729 419.861 148.13 420.507 148.709 420.967C149.288 421.426 150.008 421.67 150.747 421.658C159.061 422.136 157.953 429.677 155.03 429.963L144.273 430.761L138.596 426.016C137.915 425.543 137.378 424.893 137.042 424.135C134.934 420.062 128.561 404.904 134.389 401.243Z" fill="#333333"/>
<path opacity="0.4" d="M309.38 141.544C308.83 142.339 308.352 143.182 307.953 144.063C305.542 149.219 297.388 167.66 296.196 183.641C295.959 187.53 294.302 191.196 291.541 193.944C288.779 196.692 285.104 198.33 281.214 198.547L266.653 199.387L261.891 199.639C258.066 199.865 254.289 198.7 251.256 196.358C248.223 194.017 246.139 190.657 245.39 186.9C242.408 172.187 236.06 149.706 223.724 139.772C223.724 139.772 169.332 89.9647 205.601 34.4222C208.039 30.6695 210.766 27.1121 213.755 23.7823C251.822 -18.3574 314.654 0.839768 329.753 39.9815C344.852 79.1233 315.385 133.104 309.38 141.544Z" fill="#68E1FD"/>
<path d="M298.278 205.425C297.01 208.608 295.549 210.136 296.817 212.244C298.085 214.352 301.738 220.02 283.205 222.539C279.365 223.07 275.499 223.378 271.624 223.463H265.561L262.009 223.304C257.953 223.052 254.678 222.64 252.494 222.288C251.307 222.114 250.171 221.692 249.158 221.049C248.145 220.407 247.279 219.558 246.616 218.559C246.291 217.808 246.182 216.981 246.301 216.171C246.419 215.361 246.761 214.6 247.288 213.974C247.59 213.692 247.817 213.338 247.946 212.945C248.075 212.553 248.103 212.133 248.027 211.727C247.95 211.321 247.772 210.94 247.51 210.621C247.247 210.301 246.908 210.054 246.523 209.901C245.521 208.959 244.927 207.662 244.867 206.288C244.808 204.913 245.287 203.57 246.204 202.545C246.661 202.077 247.038 201.538 247.321 200.949C247.718 200.041 247.859 199.042 247.731 198.059C247.602 197.077 247.208 196.148 246.591 195.373L246.078 194.743C245.371 193.787 244.855 192.704 244.558 191.552C244.25 190.761 244.158 189.902 244.292 189.063C244.426 188.225 244.782 187.437 245.322 186.782C246.072 190.537 248.155 193.895 251.186 196.235C254.217 198.575 257.993 199.739 261.816 199.513L266.577 199.227C266.71 199.041 266.817 198.838 266.896 198.623C267.736 196.591 265.846 194.231 266.804 191.065L270.381 190.905C279.177 190.38 287.864 188.685 296.213 185.867C297.125 186.621 297.749 187.667 297.98 188.828C298.211 189.989 298.034 191.194 297.481 192.241C297.151 192.946 296.928 193.696 296.817 194.466C296.599 196.08 296.874 197.722 297.607 199.177C297.69 199.354 297.785 199.525 297.892 199.689C298.401 200.548 298.701 201.515 298.768 202.511C298.835 203.507 298.667 204.505 298.278 205.425Z" fill="#68E1FD"/>
<path d="M245.356 186.765C261.968 182.46 279.363 182.143 296.12 185.841C296.12 185.841 268.609 197.111 245.356 186.765Z" fill="#333333"/>
<path d="M269.718 223.161C268.336 223.434 266.925 223.529 265.519 223.446L261.958 223.287C257.902 223.035 254.636 222.623 252.444 222.271C251.257 222.097 250.12 221.676 249.107 221.033C248.094 220.391 247.228 219.542 246.565 218.542C246.239 217.792 246.128 216.965 246.245 216.155C246.362 215.345 246.703 214.584 247.229 213.957C247.531 213.674 247.757 213.319 247.886 212.926C248.015 212.533 248.043 212.113 247.968 211.706C247.892 211.3 247.714 210.92 247.451 210.602C247.188 210.283 246.849 210.036 246.465 209.884C245.462 208.942 244.868 207.644 244.81 206.269C244.752 204.894 245.234 203.551 246.154 202.528C247.09 201.591 247.646 200.341 247.716 199.018C247.785 197.696 247.364 196.395 246.532 195.364C245.598 194.264 244.926 192.966 244.567 191.569C244.259 190.778 244.166 189.92 244.299 189.081C244.432 188.243 244.785 187.455 245.323 186.799C253.282 189.847 261.782 191.233 270.297 190.872L270.709 191.065C270.709 191.065 267.534 192.274 268.357 195.045C269.18 197.817 270.39 202.813 267.66 206.063C264.931 209.313 270.18 210.203 269.189 213.865V214.217C268.787 215.309 268.478 216.433 268.265 217.576C267.694 220.457 267.963 222.909 269.718 223.161Z" fill="url(#paint18_linear_209_344)"/>
<path opacity="0.49" d="M270.356 190.838C261.832 191.208 253.322 189.821 245.356 186.765C242.4 172.145 236.051 149.664 223.715 139.738C223.715 139.738 169.323 89.9311 205.593 34.3886C208.031 30.6359 210.757 27.0785 213.747 23.7487L218.635 23.3037C218.635 23.3037 251.167 6.16393 264.965 24.9244C278.762 43.6849 248.648 64.8891 247.069 99.1518C245.49 133.415 284.699 139.755 270.356 190.838Z" fill="white"/>
<path d="M293.996 214.243C291.644 215.771 283.204 218.643 268.164 217.602C261.114 217.041 254.134 215.804 247.321 213.907C247.624 213.625 247.85 213.271 247.979 212.878C248.109 212.485 248.136 212.066 248.06 211.66C247.984 211.253 247.806 210.873 247.543 210.554C247.28 210.234 246.941 209.987 246.557 209.834C253.86 212.339 261.511 213.682 269.231 213.814C277.897 214.057 286.55 212.984 294.894 210.632C294.894 210.632 297.514 211.95 293.996 214.243Z" fill="url(#paint19_linear_209_344)"/>
<path d="M297.581 199.211C294.76 201.57 284.095 205.929 268.677 204.434C261.436 204.172 254.26 202.983 247.321 200.899C247.718 199.992 247.86 198.994 247.731 198.013C247.602 197.032 247.208 196.104 246.59 195.331L246.078 194.693C247.094 195.079 248.808 195.616 251.117 196.221C256.321 197.538 261.633 198.381 266.989 198.74H269.457C278.782 199.116 288.089 197.643 296.842 194.407C296.587 196.046 296.845 197.724 297.581 199.211Z" fill="url(#paint20_linear_209_344)"/>
<path d="M191.98 276.125L192.173 284.523L196.834 283.087C196.834 283.087 191.98 279.719 191.98 276.125Z" fill="#3F3D56"/>
<path d="M294.138 105.92L293.122 105.232C294.653 100.601 295.194 95.6998 294.709 90.8465C293.5 80.5677 286.245 74.2946 274.303 73.2113C255.996 71.473 248.749 80.9204 246.061 86.698C238.302 102.847 245.322 128.997 256.508 140.729C270.297 155.123 264.973 182.264 263.025 190.275C262.962 190.472 262.919 190.675 262.899 190.88V191.418L265.712 192.375L265.914 191.585C267.581 185.173 268.549 178.598 268.802 171.977C269.298 157.701 265.88 146.154 258.885 138.596C248.556 127.771 241.846 102.78 248.975 87.9913C253.3 79.1317 262.025 75.0504 274.227 76.1841C287.504 77.4437 291.174 85.0605 291.913 91.1992C292.287 95.4069 291.816 99.6469 290.527 103.67C287.563 102.174 284.159 101.792 280.937 102.595C274.647 104.325 270.675 110.841 268.45 115.981C267.893 117.259 267.722 118.671 267.956 120.045C268.19 121.418 268.82 122.694 269.768 123.715C270.695 124.713 271.889 125.424 273.208 125.762C274.528 126.1 275.916 126.051 277.209 125.621C282.877 123.614 288.789 116.661 292.115 108.179L292.442 108.406C301.68 114.906 295.087 124.924 287.504 136.538C282.104 144.676 275.403 154.803 274.681 164.78C273.841 173.715 274.227 180.778 274.832 189.772L274.874 190.485H277.897L277.855 189.646C277.267 180.668 276.915 173.69 277.704 165.007C278.351 155.87 284.523 146.473 289.965 138.134L290.208 137.756C298.11 125.638 305.568 114.133 294.138 105.92ZM276.134 122.716C275.403 122.966 274.615 122.995 273.868 122.8C273.121 122.604 272.449 122.192 271.935 121.616C271.382 121.027 271.015 120.288 270.881 119.492C270.746 118.696 270.85 117.877 271.179 117.14C272.775 113.436 276.268 106.978 281.701 105.467C282.479 105.255 283.281 105.147 284.086 105.148C285.941 105.211 287.758 105.681 289.41 106.525C286.245 114.528 280.862 121.137 276.134 122.733V122.716ZM291.359 105.845L291.493 105.937L291.359 105.845Z" fill="white"/>
</g>
<defs>
<linearGradient id="paint0_linear_209_344" x1="126.302" y1="352.838" x2="189.814" y2="352.838" gradientUnits="userSpaceOnUse">
<stop stop-color="#68E1FD" stop-opacity="0"/>
<stop offset="0.02" stop-color="#66DAF6" stop-opacity="0.04"/>
<stop offset="0.18" stop-color="#58A1BC" stop-opacity="0.39"/>
<stop offset="0.35" stop-color="#4D758F" stop-opacity="0.66"/>
<stop offset="0.53" stop-color="#45566F" stop-opacity="0.85"/>
<stop offset="0.73" stop-color="#40435C" stop-opacity="0.96"/>
<stop offset="0.99" stop-color="#3F3D56"/>
</linearGradient>
<linearGradient id="paint1_linear_209_344" x1="214.738" y1="313.193" x2="139.939" y2="398.673" gradientUnits="userSpaceOnUse">
<stop offset="0.11" stop-color="#68E1FD" stop-opacity="0"/>
<stop offset="0.13" stop-color="#66DAF6" stop-opacity="0.04"/>
<stop offset="0.27" stop-color="#58A1BC" stop-opacity="0.39"/>
<stop offset="0.42" stop-color="#4D758F" stop-opacity="0.66"/>
<stop offset="0.58" stop-color="#45566F" stop-opacity="0.85"/>
<stop offset="0.76" stop-color="#40435C" stop-opacity="0.96"/>
<stop offset="0.99" stop-color="#3F3D56"/>
</linearGradient>
<linearGradient id="paint2_linear_209_344" x1="349.194" y1="274.731" x2="469.793" y2="302.536" gradientUnits="userSpaceOnUse">
<stop stop-color="#68E1FD" stop-opacity="0"/>
<stop offset="0.02" stop-color="#66DAF6" stop-opacity="0.04"/>
<stop offset="0.18" stop-color="#58A1BC" stop-opacity="0.39"/>
<stop offset="0.35" stop-color="#4D758F" stop-opacity="0.66"/>
<stop offset="0.53" stop-color="#45566F" stop-opacity="0.85"/>
<stop offset="0.73" stop-color="#40435C" stop-opacity="0.96"/>
<stop offset="0.99" stop-color="#3F3D56"/>
</linearGradient>
<linearGradient id="paint3_linear_209_344" x1="446.834" y1="260.455" x2="396.154" y2="230.954" gradientUnits="userSpaceOnUse">
<stop offset="0.36" stop-color="#00272E"/>
<stop offset="1" stop-color="#69B9EB" stop-opacity="0"/>
</linearGradient>
<linearGradient id="paint4_linear_209_344" x1="426.915" y1="184.254" x2="445.188" y2="184.254" gradientUnits="userSpaceOnUse">
<stop stop-color="#ECC4D7"/>
<stop offset="0.42" stop-color="#EFD4D1"/>
<stop offset="1" stop-color="#F2EAC9"/>
</linearGradient>
<linearGradient id="paint5_linear_209_344" x1="438.915" y1="171.003" x2="406.693" y2="224.614" gradientUnits="userSpaceOnUse">
<stop stop-color="#ECC4D7"/>
<stop offset="0.42" stop-color="#EFD4D1"/>
<stop offset="1" stop-color="#F2EAC9"/>
</linearGradient>
<linearGradient id="paint6_linear_209_344" x1="410.464" y1="158.893" x2="449.169" y2="158.893" gradientUnits="userSpaceOnUse">
<stop stop-color="#ECC4D7"/>
<stop offset="0.42" stop-color="#EFD4D1"/>
<stop offset="1" stop-color="#F2EAC9"/>
</linearGradient>
<linearGradient id="paint7_linear_209_344" x1="321.952" y1="252.393" x2="362.219" y2="252.393" gradientUnits="userSpaceOnUse">
<stop stop-color="#ECC4D7"/>
<stop offset="0.42" stop-color="#EFD4D1"/>
<stop offset="1" stop-color="#F2EAC9"/>
</linearGradient>
<linearGradient id="paint8_linear_209_344" x1="426.134" y1="291.888" x2="503.107" y2="328.661" gradientUnits="userSpaceOnUse">
<stop stop-color="#68E1FD" stop-opacity="0"/>
<stop offset="0.02" stop-color="#66DAF6" stop-opacity="0.04"/>
<stop offset="0.18" stop-color="#58A1BC" stop-opacity="0.39"/>
<stop offset="0.35" stop-color="#4D758F" stop-opacity="0.66"/>
<stop offset="0.53" stop-color="#45566F" stop-opacity="0.85"/>
<stop offset="0.73" stop-color="#40435C" stop-opacity="0.96"/>
<stop offset="0.99" stop-color="#3F3D56"/>
</linearGradient>
<linearGradient id="paint9_linear_209_344" x1="497.607" y1="316.745" x2="506.617" y2="316.745" gradientUnits="userSpaceOnUse">
<stop stop-color="#ECC4D7"/>
<stop offset="0.42" stop-color="#EFD4D1"/>
<stop offset="1" stop-color="#F2EAC9"/>
</linearGradient>
<linearGradient id="paint10_linear_209_344" x1="408.381" y1="336.53" x2="421.742" y2="336.53" gradientUnits="userSpaceOnUse">
<stop stop-color="#ECC4D7"/>
<stop offset="0.42" stop-color="#EFD4D1"/>
<stop offset="1" stop-color="#F2EAC9"/>
</linearGradient>
<linearGradient id="paint11_linear_209_344" x1="507.037" y1="286.051" x2="414.024" y2="237.941" gradientUnits="userSpaceOnUse">
<stop offset="0.36" stop-color="#00272E"/>
<stop offset="1" stop-color="#69B9EB" stop-opacity="0"/>
</linearGradient>
<linearGradient id="paint12_linear_209_344" x1="356.441" y1="298.11" x2="397.657" y2="298.11" gradientUnits="userSpaceOnUse">
<stop stop-color="#ECC4D7"/>
<stop offset="0.42" stop-color="#EFD4D1"/>
<stop offset="1" stop-color="#F2EAC9"/>
</linearGradient>
<linearGradient id="paint13_linear_209_344" x1="240.754" y1="341.46" x2="270.516" y2="341.46" gradientUnits="userSpaceOnUse">
<stop stop-color="#ECC4D7"/>
<stop offset="0.42" stop-color="#EFD4D1"/>
<stop offset="1" stop-color="#F2EAC9"/>
</linearGradient>
<linearGradient id="paint14_linear_209_344" x1="86.0849" y1="301.562" x2="155.366" y2="309.901" gradientUnits="userSpaceOnUse">
<stop offset="0.36" stop-color="#00272E"/>
<stop offset="1" stop-color="#69B9EB" stop-opacity="0"/>
</linearGradient>
<linearGradient id="paint15_linear_209_344" x1="139.914" y1="220.432" x2="181.97" y2="220.432" gradientUnits="userSpaceOnUse">
<stop stop-color="#ECC4D7"/>
<stop offset="0.42" stop-color="#EFD4D1"/>
<stop offset="1" stop-color="#F2EAC9"/>
</linearGradient>
<linearGradient id="paint16_linear_209_344" x1="116.737" y1="365.62" x2="203.552" y2="304.896" gradientUnits="userSpaceOnUse">
<stop offset="0.36" stop-color="#00272E"/>
<stop offset="1" stop-color="#69B9EB" stop-opacity="0"/>
</linearGradient>
<linearGradient id="paint17_linear_209_344" x1="138.865" y1="408.221" x2="155.366" y2="408.221" gradientUnits="userSpaceOnUse">
<stop stop-color="#ECC4D7"/>
<stop offset="0.42" stop-color="#EFD4D1"/>
<stop offset="1" stop-color="#F2EAC9"/>
</linearGradient>
<linearGradient id="paint18_linear_209_344" x1="274.807" y1="205.828" x2="224.051" y2="203.981" gradientUnits="userSpaceOnUse">
<stop stop-color="#68E1FD" stop-opacity="0"/>
<stop offset="0.02" stop-color="#66DAF6" stop-opacity="0.04"/>
<stop offset="0.18" stop-color="#58A1BC" stop-opacity="0.39"/>
<stop offset="0.35" stop-color="#4D758F" stop-opacity="0.66"/>
<stop offset="0.53" stop-color="#45566F" stop-opacity="0.85"/>
<stop offset="0.73" stop-color="#40435C" stop-opacity="0.96"/>
<stop offset="0.99" stop-color="#3F3D56"/>
</linearGradient>
<linearGradient id="paint19_linear_209_344" x1="269.306" y1="182.776" x2="275.008" y2="266.602" gradientUnits="userSpaceOnUse">
<stop stop-color="#68E1FD" stop-opacity="0"/>
<stop offset="0.02" stop-color="#66DAF6" stop-opacity="0.04"/>
<stop offset="0.18" stop-color="#58A1BC" stop-opacity="0.39"/>
<stop offset="0.35" stop-color="#4D758F" stop-opacity="0.66"/>
<stop offset="0.53" stop-color="#45566F" stop-opacity="0.85"/>
<stop offset="0.73" stop-color="#40435C" stop-opacity="0.96"/>
<stop offset="0.99" stop-color="#3F3D56"/>
</linearGradient>
<linearGradient id="paint20_linear_209_344" x1="270.86" y1="182.676" x2="276.562" y2="266.493" gradientUnits="userSpaceOnUse">
<stop stop-color="#68E1FD" stop-opacity="0"/>
<stop offset="0.02" stop-color="#66DAF6" stop-opacity="0.04"/>
<stop offset="0.18" stop-color="#58A1BC" stop-opacity="0.39"/>
<stop offset="0.35" stop-color="#4D758F" stop-opacity="0.66"/>
<stop offset="0.53" stop-color="#45566F" stop-opacity="0.85"/>
<stop offset="0.73" stop-color="#40435C" stop-opacity="0.96"/>
<stop offset="0.99" stop-color="#3F3D56"/>
</linearGradient>
<clipPath id="clip0_209_344">
<rect width="547.674" height="500" fill="white"/>
</clipPath>
</defs>
</svg>
