<svg width="16" height="16" viewBox="0 0 16 16" fill="none" xmlns="http://www.w3.org/2000/svg">
<path d="M13.6569 2.34311C14.4379 3.12416 14.4379 4.39049 13.6569 5.17154L6.27044 12.558C5.95004 12.8784 5.54859 13.1057 5.10901 13.2156L2.81801 13.7883C2.45182 13.8799 2.12013 13.5482 2.21167 13.182L2.78442 10.891C2.89432 10.4514 3.12161 10.05 3.44201 9.72957L10.8285 2.34311C11.6095 1.56206 12.8759 1.56206 13.6569 2.34311ZM10.1213 4.46432L4.14912 10.4367C3.95688 10.6289 3.8205 10.8698 3.75457 11.1335L3.38393 12.6161L4.86648 12.2454C5.13022 12.1795 5.37109 12.0431 5.56333 11.8509L11.5353 5.87832L10.1213 4.46432ZM11.5356 3.05022L10.8283 3.75732L12.2423 5.17132L12.9498 4.46443C13.3403 4.07391 13.3403 3.44074 12.9498 3.05022C12.5593 2.65969 11.9261 2.65969 11.5356 3.05022Z" fill="white"/>
</svg>
