<svg width="61" height="61" viewBox="0 0 61 61" fill="none" xmlns="http://www.w3.org/2000/svg">
<path d="M57.9803 19.9077V12.3306C57.9803 9.68193 55.9061 7.57959 53.3571 7.57959H7.29066C4.74207 7.57959 2.66785 9.68193 2.66785 12.3306V49.4692C2.66785 52.1179 4.74207 54.2202 7.29066 54.2202H53.3571C55.9061 54.2202 57.9803 52.1179 57.9803 49.4692V19.9253C57.9803 19.9222 57.9803 19.9193 57.9803 19.9163C57.9803 19.9132 57.9803 19.9103 57.9803 19.9077ZM7.29066 9.45459H53.3571C54.8723 9.45459 56.1053 10.7158 56.1053 12.3306V18.9468H4.54285V12.3306C4.54285 10.7158 5.77554 9.45459 7.29066 9.45459ZM53.3571 52.3452H7.29066C5.77554 52.3452 4.54285 51.084 4.54285 49.4692V20.8218H56.1053V49.4692C56.1053 51.084 54.8723 52.3452 53.3571 52.3452Z" fill="#FAFCFF"/>
<path d="M17.1183 17.7786C18.99 17.7786 20.5127 16.2019 20.5127 14.2637C20.5127 12.3255 18.99 10.7488 17.1183 10.7488C15.2465 10.7488 13.7238 12.3257 13.7238 14.2637C13.7238 16.2017 15.2465 17.7786 17.1183 17.7786ZM17.1183 12.6238C17.9562 12.6238 18.6377 13.3595 18.6377 14.2637C18.6377 15.1679 17.9562 15.9036 17.1183 15.9036C16.2804 15.9036 15.5988 15.1679 15.5988 14.2637C15.5988 13.3595 16.2804 12.6238 17.1183 12.6238ZM25.1032 17.7786C26.9749 17.7786 28.4976 16.2019 28.4976 14.2637C28.4976 12.3255 26.9749 10.7488 25.1032 10.7488C23.2315 10.7488 21.7087 12.3257 21.7087 14.2637C21.7087 16.2017 23.2316 17.7786 25.1032 17.7786ZM25.1032 12.6238C25.9411 12.6238 26.6226 13.3595 26.6226 14.2637C26.6226 15.1679 25.9411 15.9036 25.1032 15.9036C24.2653 15.9036 23.5837 15.1679 23.5837 14.2637C23.5837 13.3595 24.2655 12.6238 25.1032 12.6238ZM9.13334 17.7786C11.0051 17.7786 12.5278 16.2019 12.5278 14.2637C12.5278 12.3255 11.0051 10.7488 9.13334 10.7488C7.26163 10.7488 5.73889 12.3257 5.73889 14.2637C5.73889 16.2017 7.26163 17.7786 9.13334 17.7786ZM9.13334 12.6238C9.97112 12.6238 10.6528 13.3595 10.6528 14.2637C10.6528 15.1679 9.97112 15.9036 9.13334 15.9036C8.29557 15.9036 7.61389 15.1679 7.61389 14.2637C7.61389 13.3595 8.29545 12.6238 9.13334 12.6238ZM33.2538 40.6072V32.2316C33.2538 32.2124 33.2739 32.1935 33.2728 32.1746C33.2728 32.1602 33.2866 32.1464 33.2865 32.132C33.2858 31.9421 33.2271 31.7569 33.1184 31.6013C33.0096 31.4456 32.8559 31.3269 32.6778 31.2609L21.4847 27.1457C21.2764 27.0689 21.0476 27.0689 20.8393 27.1457L9.64416 31.2609C9.46554 31.3267 9.31115 31.4452 9.20153 31.6008C9.0919 31.7564 9.03223 31.9417 9.03045 32.132C9.02535 32.3209 9.07833 32.5068 9.18226 32.6646C9.28619 32.8224 9.43604 32.9445 9.61159 33.0144L12.6288 34.1951V42.1067C12.6321 42.2994 12.6938 42.4866 12.8057 42.6435C12.9175 42.8004 13.0744 42.9197 13.2554 42.9857C18.3424 44.8824 23.9425 44.8824 29.0294 42.9857C29.2065 42.9179 29.3584 42.7971 29.4642 42.6398C29.5701 42.4825 29.6249 42.2963 29.621 42.1067V34.1951L31.3788 33.5116V40.6209C30.6757 40.9842 30.0466 41.7867 30.0466 42.7186C30.0498 43.331 30.2953 43.9172 30.7293 44.3492C31.1634 44.7812 31.7508 45.0239 32.3632 45.0241C32.8925 45.0216 33.4047 44.8366 33.8135 44.5004C34.2223 44.1641 34.5026 43.6972 34.6072 43.1784C34.7119 42.6595 34.6344 42.1205 34.3878 41.6521C34.1413 41.1837 33.7408 40.8147 33.2538 40.6072ZM14.5038 41.4449V39.7871C16.6502 40.4413 18.8811 40.7765 21.1249 40.7818C23.3694 40.7851 25.6016 40.4498 27.746 39.7871V41.4449C23.5273 42.8953 18.8398 42.8953 14.5038 41.4449ZM27.746 37.8176C23.5273 39.2683 18.8398 39.2683 14.5038 37.8176V34.9248L20.8076 37.3718C20.9188 37.414 21.0368 37.4356 21.1557 37.4355C21.2661 37.4355 21.3753 37.4139 21.4773 37.3718L27.746 34.9248V37.8176ZM28.4499 32.6565C28.4133 32.6683 28.3773 32.6822 28.3424 32.6983L21.164 35.4921L13.9858 32.6985C13.9509 32.6822 13.9149 32.6682 13.8781 32.6565L12.6171 32.1655L21.164 29.0249L29.7108 32.1655L28.4499 32.6565ZM32.3741 43.1491C32.2889 43.1491 32.2057 43.1238 32.1349 43.0765C32.064 43.0292 32.0089 42.9619 31.9763 42.8832C31.9437 42.8045 31.9352 42.7179 31.9518 42.6344C31.9685 42.5508 32.0095 42.4741 32.0697 42.4139C32.13 42.3537 32.2067 42.3127 32.2902 42.2961C32.3738 42.2795 32.4604 42.288 32.539 42.3206C32.6177 42.3532 32.685 42.4084 32.7323 42.4792C32.7796 42.55 32.8049 42.6333 32.8049 42.7185C32.8047 42.8327 32.7593 42.9421 32.6785 43.0229C32.5978 43.1036 32.4883 43.149 32.3741 43.1491ZM50.6796 33.5952H36.5351C36.2864 33.5952 36.048 33.694 35.8722 33.8698C35.6963 34.0456 35.5976 34.284 35.5976 34.5327C35.5976 34.7813 35.6963 35.0198 35.8722 35.1956C36.048 35.3714 36.2864 35.4702 36.5351 35.4702H50.6796C50.9282 35.4702 51.1667 35.3714 51.3425 35.1956C51.5183 35.0198 51.6171 34.7813 51.6171 34.5327C51.6171 34.284 51.5183 34.0456 51.3425 33.8698C51.1667 33.694 50.9282 33.5952 50.6796 33.5952ZM50.6796 36.6421H36.5351C36.2864 36.6421 36.048 36.7408 35.8722 36.9166C35.6963 37.0925 35.5976 37.3309 35.5976 37.5796C35.5976 37.8282 35.6963 38.0667 35.8722 38.2425C36.048 38.4183 36.2864 38.5171 36.5351 38.5171H50.6796C50.9282 38.5171 51.1667 38.4183 51.3425 38.2425C51.5183 38.0667 51.6171 37.8282 51.6171 37.5796C51.6171 37.3309 51.5183 37.0925 51.3425 36.9166C51.1667 36.7408 50.9282 36.6421 50.6796 36.6421ZM50.6796 39.8061H36.5351C36.2864 39.8061 36.048 39.9049 35.8722 40.0807C35.6963 40.2565 35.5976 40.495 35.5976 40.7436C35.5976 40.9923 35.6963 41.2307 35.8722 41.4065C36.048 41.5824 36.2864 41.6811 36.5351 41.6811H50.6796C50.9282 41.6811 51.1667 41.5824 51.3425 41.4065C51.5183 41.2307 51.6171 40.9923 51.6171 40.7436C51.6171 40.495 51.5183 40.2565 51.3425 40.0807C51.1667 39.9049 50.9282 39.8061 50.6796 39.8061ZM36.5351 32.3061H41.357C41.6056 32.3061 41.8441 32.2074 42.0199 32.0315C42.1957 31.8557 42.2945 31.6173 42.2945 31.3686C42.2945 31.12 42.1957 30.8815 42.0199 30.7057C41.8441 30.5299 41.6056 30.4311 41.357 30.4311H36.5351C36.2864 30.4311 36.048 30.5299 35.8722 30.7057C35.6963 30.8815 35.5976 31.12 35.5976 31.3686C35.5976 31.6173 35.6963 31.8557 35.8722 32.0315C36.048 32.2074 36.2864 32.3061 36.5351 32.3061Z" fill="#FAFCFF"/>
</svg>
