<svg width="48" height="48" viewBox="0 0 48 48" fill="none" xmlns="http://www.w3.org/2000/svg">
<path d="M24.6353 8.54117C24.4941 8.32941 24.2823 8.18823 24 8.18823C23.7176 8.18823 23.5059 8.32941 23.3647 8.54117C18.2117 18.7059 18.6353 17.9294 18.6353 18.0706V44.8235C18.6353 46.1647 19.7647 47.2941 21.1059 47.2941H26.8941C28.2353 47.2941 29.3647 46.1647 29.3647 44.8235C29.3647 16.2353 29.4353 17.9294 29.2235 17.6471L24.6353 8.54117ZM24 10.4471L25.5529 13.4824C24.5647 13.8353 23.4353 13.8353 22.447 13.4824L24 10.4471ZM21.8117 14.7529C23.2235 15.2471 24.7764 15.2471 26.1882 14.7529L27.5294 17.3647H20.4706L21.8117 14.7529ZM20.047 18.7765H23.2941V39.1765H20.047V18.7765ZM27.9529 44.8235C27.9529 45.3882 27.4588 45.8824 26.8941 45.8824H21.1059C20.5412 45.8824 20.047 45.3882 20.047 44.8235V40.5882H27.9529V44.8235ZM27.9529 39.1765H24.7059V18.7765H27.9529V39.1765Z" fill="#FF5722"/>
<path d="M39.4588 6.49417C41.0823 6.49417 42.3529 5.22358 42.3529 3.60005C42.3529 1.97652 41.0823 0.705933 39.4588 0.705933C38.1176 0.705933 37.0588 1.62358 36.7059 2.89417H26.8941V1.41181C26.8941 0.988286 26.6117 0.705933 26.1882 0.705933H21.8823C21.4588 0.705933 21.1764 0.988286 21.1764 1.41181V2.89417H11.2941C10.9412 1.62358 9.88233 0.705933 8.47056 0.705933C6.91762 0.705933 5.64703 1.97652 5.64703 3.60005C5.64703 5.15299 6.91762 6.49417 8.47056 6.49417C9.81174 6.49417 10.9412 5.57652 11.2235 4.30593H17.3647C12.5647 6.42358 8.96468 10.8706 7.97645 16.2353H6.35292C5.92939 16.2353 5.64703 16.5177 5.64703 16.9412V21.2471C5.64703 21.6706 5.92939 21.953 6.35292 21.953H10.7294C11.1529 21.953 11.4353 21.6706 11.4353 21.2471V16.9412C11.4353 16.5177 11.1529 16.2353 10.7294 16.2353H9.52939C10.6588 10.3765 15.3176 5.78829 21.1764 4.58829V5.78829C21.1764 6.21181 21.4588 6.49417 21.8823 6.49417H26.1882C26.6117 6.49417 26.8941 6.21181 26.8941 5.78829V4.58829C32.7529 5.7177 37.3412 10.3765 38.5412 16.2353H37.3412C36.9176 16.2353 36.6353 16.5177 36.6353 16.9412V21.2471C36.6353 21.6706 36.9176 21.953 37.3412 21.953H41.647C42.0706 21.953 42.3529 21.6706 42.3529 21.2471V16.9412C42.3529 16.5177 42.0706 16.2353 41.647 16.2353H39.8823C38.8941 10.8706 35.3647 6.49417 30.4941 4.30593H36.7059C37.0588 5.50593 38.1176 6.49417 39.4588 6.49417ZM39.5294 2.1177C40.3059 2.1177 40.9412 2.75299 40.9412 3.60005C40.9412 4.37652 40.3059 5.0824 39.4588 5.0824C38.6823 5.0824 37.9764 4.44711 37.9764 3.60005C38.047 2.75299 38.6823 2.1177 39.5294 2.1177ZM8.54115 5.0824C7.69409 5.0824 7.0588 4.44711 7.0588 3.60005C7.0588 2.75299 7.69409 2.1177 8.54115 2.1177C9.31762 2.1177 10.0235 2.75299 10.0235 3.60005C9.95292 4.37652 9.31762 5.0824 8.54115 5.0824ZM9.95292 17.6471V20.5412H7.0588V17.6471H9.95292ZM25.4823 5.0824H22.5882V2.1177H25.4823V5.0824ZM40.9412 17.6471V20.5412H37.9764V17.6471H40.9412Z" fill="#FF5722"/>
</svg>
