<svg width="18" height="18" viewBox="0 0 18 18" fill="none" xmlns="http://www.w3.org/2000/svg">
<path d="M17 9C17 4.58172 13.4183 1 9 1C4.58172 1 1 4.58172 1 9C1 13.4183 4.58172 17 9 17C13.4183 17 17 13.4183 17 9Z" stroke="#FF5722" stroke-miterlimit="10"/>
<path d="M14.1866 11.4334C14.1744 12.171 13.8718 12.8741 13.3445 13.3902C12.8172 13.9062 12.1077 14.1936 11.37 14.19H10.3966C10.0398 14.1909 9.68635 14.1209 9.35677 13.9841C9.02719 13.8474 8.72804 13.6466 8.47663 13.3933V13.3933C8.09182 13.0139 7.82878 12.5284 7.72107 11.9988C7.61336 11.4692 7.66586 10.9195 7.87187 10.4198C8.07788 9.92021 8.42805 9.49327 8.87773 9.19349C9.3274 8.89371 9.85619 8.73467 10.3966 8.73668H11.4666C12.1817 8.73662 12.868 9.01816 13.3771 9.52035C13.8862 10.0225 14.177 10.705 14.1866 11.42V11.4334Z" stroke="#FF5722" stroke-miterlimit="10"/>
<path d="M10.9334 7.29335C11.8943 7.29335 12.6734 6.51433 12.6734 5.55335C12.6734 4.59238 11.8943 3.81335 10.9334 3.81335C9.97238 3.81335 9.19336 4.59238 9.19336 5.55335C9.19336 6.51433 9.97238 7.29335 10.9334 7.29335Z" stroke="#FF5722" stroke-miterlimit="10"/>
<path d="M8.47683 13.4033C8.27584 13.6518 8.0219 13.8522 7.73356 13.9901C7.44522 14.1279 7.12975 14.1996 6.81016 14.2H5.97349C5.41265 14.1993 4.8742 13.9798 4.47268 13.5883C4.07115 13.1967 3.83824 12.6639 3.82349 12.1033C3.8261 11.8113 3.88621 11.5227 4.00037 11.254C4.11452 10.9852 4.2805 10.7416 4.48881 10.537C4.69713 10.3324 4.9437 10.1708 5.21446 10.0615C5.48522 9.95222 5.77486 9.89732 6.06683 9.89996H6.82015C7.233 9.89657 7.63807 10.0123 7.98682 10.2333C7.7261 10.7454 7.63407 11.3269 7.72388 11.8945C7.81369 12.4621 8.08073 12.9867 8.48682 13.3933L8.47683 13.4033Z" stroke="#FF5722" stroke-miterlimit="10"/>
<path d="M6.38338 8.74C7.14369 8.74 7.76005 8.12364 7.76005 7.36333C7.76005 6.60302 7.14369 5.98666 6.38338 5.98666C5.62307 5.98666 5.00671 6.60302 5.00671 7.36333C5.00671 8.12364 5.62307 8.74 6.38338 8.74Z" stroke="#FF5722" stroke-miterlimit="10"/>
</svg>
