<svg width="34" height="34" viewBox="0 0 34 34" fill="none" xmlns="http://www.w3.org/2000/svg">
<path d="M27.3594 1.59375H6.64062C3.55991 1.59375 1.0625 4.09116 1.0625 7.17188V26.8281C1.0625 29.9088 3.55991 32.4062 6.64062 32.4062H27.3594C30.4401 32.4062 32.9375 29.9088 32.9375 26.8281V7.17188C32.9375 4.09116 30.4401 1.59375 27.3594 1.59375Z" fill="#330000"/>
<path d="M17.1048 20.7188H12.3514L11.1242 24.2622C11.11 24.3791 11.0361 24.4375 10.9024 24.4375H8.67116C8.52241 24.4375 8.47062 24.3645 8.51577 24.2184L12.8216 11.4298C12.9432 11.0405 13.0032 10.6345 12.9995 10.2266C12.9971 10.2086 12.9989 10.1902 13.0047 10.173C13.0105 10.1558 13.0203 10.1402 13.0331 10.1273C13.046 10.1145 13.0616 10.1048 13.0788 10.0989C13.096 10.0931 13.1143 10.0913 13.1323 10.0938H16.2561C16.3464 10.0938 16.3982 10.1309 16.4128 10.2027L21.2312 24.2409C21.2764 24.3738 21.2392 24.4375 21.1197 24.4375H18.6215C18.5753 24.4403 18.5293 24.4291 18.4895 24.4054C18.4497 24.3817 18.418 24.3466 18.3984 24.3047L17.1048 20.7188ZM12.8826 18.3281H16.5855C16.4965 18.1329 14.831 12.7593 14.7115 12.3064H14.6902L12.8826 18.3281ZM23.8941 12.75C23.6847 12.759 23.4756 12.7258 23.2792 12.6526C23.0828 12.5794 22.9031 12.4675 22.7506 12.3237C22.6014 12.172 22.4854 11.9909 22.41 11.792C22.3345 11.5931 22.3013 11.3807 22.3123 11.1682C22.3025 10.953 22.3374 10.7382 22.4149 10.5372C22.4924 10.3363 22.6108 10.1536 22.7626 10.0008C22.9163 9.85448 23.0977 9.74035 23.2961 9.66509C23.4945 9.58983 23.706 9.55495 23.918 9.5625C24.1305 9.55144 24.3429 9.58469 24.5419 9.66014C24.7408 9.73559 24.9218 9.8516 25.0735 10.0008C25.2187 10.1572 25.3312 10.341 25.4044 10.5415C25.4776 10.742 25.5101 10.955 25.4998 11.1682C25.5109 11.3807 25.4777 11.5931 25.4022 11.792C25.3267 11.9909 25.2107 12.172 25.0616 12.3237C24.9051 12.4689 24.7213 12.5814 24.5208 12.6546C24.3204 12.7278 24.1073 12.7602 23.8941 12.75ZM22.578 24.2383V13.9905C22.5744 13.9663 22.5765 13.9416 22.5842 13.9183C22.5919 13.8951 22.6049 13.874 22.6222 13.8567C22.6395 13.8394 22.6606 13.8264 22.6838 13.8187C22.707 13.8111 22.7317 13.8089 22.7559 13.8125H25.0562C25.0804 13.8092 25.105 13.8115 25.1281 13.8193C25.1512 13.8271 25.1721 13.8401 25.1894 13.8573C25.2066 13.8746 25.2196 13.8956 25.2274 13.9186C25.2352 13.9417 25.2375 13.9663 25.2342 13.9905V24.2595C25.2378 24.2837 25.2357 24.3084 25.228 24.3317C25.2203 24.3549 25.2073 24.376 25.19 24.3933C25.1727 24.4106 25.1516 24.4236 25.1284 24.4313C25.1051 24.4389 25.0804 24.4411 25.0562 24.4375H22.7772C22.7501 24.4412 22.7226 24.4387 22.6967 24.43C22.6708 24.4213 22.6473 24.4067 22.628 24.3874C22.6087 24.3681 22.5942 24.3446 22.5855 24.3187C22.5768 24.2929 22.5742 24.2653 22.578 24.2383Z" fill="#FF9A00"/>
</svg>
