<svg width="24" height="24" viewBox="0 0 24 24" fill="none" xmlns="http://www.w3.org/2000/svg">
<g clip-path="url(#clip0_39_70)">
<path d="M8.00031 12.0005C8.00031 11.2093 8.23492 10.4359 8.67446 9.7781C9.114 9.12028 9.73874 8.60757 10.4697 8.30481C11.2006 8.00204 12.0049 7.92283 12.7809 8.07717C13.5568 8.23152 14.2696 8.6125 14.829 9.17193C15.3884 9.73136 15.7694 10.4441 15.9238 11.2201C16.0781 11.996 15.9989 12.8003 15.6961 13.5313C15.3934 14.2622 14.8807 14.8869 14.2228 15.3265C13.565 15.766 12.7916 16.0006 12.0005 16.0006C10.9396 16.0006 9.92211 15.5792 9.17193 14.829C8.42176 14.0788 8.00031 13.0614 8.00031 12.0005ZM5.83764 12.0005C5.83764 13.2192 6.19903 14.4105 6.8761 15.4239C7.55317 16.4372 8.51552 17.227 9.64146 17.6935C10.7674 18.1599 12.0064 18.2819 13.2017 18.0442C14.397 17.8065 15.495 17.2197 16.3568 16.358C17.2186 15.4963 17.8056 14.3984 18.0434 13.2031C18.2812 12.0078 18.1593 10.7688 17.693 9.64282C17.2267 8.51682 16.437 7.55438 15.4238 6.87719C14.4105 6.20001 13.2192 5.83849 12.0005 5.83835C11.1912 5.83832 10.3899 5.99768 9.64229 6.30735C8.89465 6.61701 8.21533 7.07091 7.64312 7.64312C7.07091 8.21533 6.61701 8.89465 6.30735 9.64229C5.99768 10.3899 5.83832 11.1912 5.83835 12.0005H5.83764ZM16.9654 5.5941C16.9653 5.87892 17.0496 6.15737 17.2078 6.39423C17.366 6.6311 17.5908 6.81575 17.8539 6.92483C18.117 7.03391 18.4065 7.06252 18.6859 7.00705C18.9653 6.95158 19.2219 6.81451 19.4234 6.61318C19.6248 6.41185 19.7621 6.1553 19.8177 5.87597C19.8734 5.59665 19.845 5.30709 19.736 5.04392C19.6271 4.78075 19.4426 4.55578 19.2059 4.39747C18.9691 4.23916 18.6907 4.15461 18.4059 4.15452C18.0241 4.1547 17.658 4.30642 17.388 4.57634C17.118 4.84626 16.9662 5.21231 16.9658 5.5941H16.9654ZM7.15322 21.7686C6.39219 21.7599 5.63833 21.6203 4.92466 21.3559C4.40344 21.1632 3.93185 20.8565 3.54437 20.4582C3.14546 20.0716 2.83865 19.6002 2.64669 19.0789C2.38183 18.3653 2.2419 17.6114 2.23303 16.8503C2.17491 15.5853 2.16244 15.2053 2.16244 12.0007C2.16244 8.79611 2.17491 8.41704 2.23303 7.1511C2.24259 6.39016 2.38217 5.63645 2.64575 4.92255C2.83841 4.40132 3.14511 3.92973 3.54343 3.54226C3.93023 3.14311 4.40202 2.83628 4.92372 2.64457C5.63764 2.37985 6.39185 2.24015 7.15322 2.23162C8.41821 2.1735 8.79823 2.16103 12.0005 2.16103C15.2027 2.16103 15.5841 2.1735 16.8501 2.23162C17.611 2.24117 18.3647 2.38076 19.0786 2.64434C19.6 2.83664 20.0717 3.14339 20.4589 3.54202C20.8575 3.92924 21.1643 4.4009 21.3566 4.92231C21.6211 5.63595 21.7607 6.38983 21.7693 7.15087C21.8274 8.4168 21.8399 8.79587 21.8399 12.0005C21.8399 15.2051 21.8284 15.5841 21.7693 16.8501C21.7601 17.6111 21.6205 18.3648 21.3566 19.0786C21.1569 19.5962 20.851 20.0661 20.4587 20.4583C20.0664 20.8505 19.5962 21.1562 19.0786 21.3557C18.365 21.6202 17.6111 21.7598 16.8501 21.7684C15.5851 21.8265 15.2051 21.839 12.0005 21.839C8.79587 21.839 8.4168 21.8274 7.15322 21.7684V21.7686ZM7.05298 0.0727087C6.0575 0.0924026 5.07258 0.28089 4.14016 0.630142C3.33933 0.931487 2.61383 1.40381 2.0142 2.0142C1.40318 2.61327 0.930691 3.33883 0.629907 4.13993C0.280739 5.07244 0.0923326 6.05744 0.0727087 7.05298C0.0136476 8.33256 0 8.74152 0 12.0005C0 15.2594 0.0136476 15.6684 0.0727087 16.948C0.0924254 17.9434 0.280912 18.9284 0.630142 19.8608C0.930915 20.6619 1.40331 21.3875 2.0142 21.9867C2.61403 22.5968 3.33937 23.0692 4.13993 23.371C5.07238 23.7202 6.05728 23.9086 7.05275 23.9285C8.33303 23.9866 8.74128 24.0012 12.0002 24.0012C15.2592 24.0012 15.6681 23.9875 16.9477 23.9285C17.9432 23.9088 18.9281 23.7203 19.8605 23.371C20.6579 23.0628 21.382 22.5913 21.9865 21.9868C22.591 21.3823 23.0625 20.6581 23.3708 19.8608C23.7205 18.9285 23.909 17.9435 23.9282 16.948C23.9864 15.6674 23.9988 15.2594 23.9988 12.0005C23.9988 8.74152 23.9852 8.33256 23.9282 7.05298C23.9086 6.0575 23.7201 5.07257 23.3708 4.14016C23.069 3.33955 22.5968 2.61414 21.9867 2.0142C21.3878 1.40351 20.6626 0.931064 19.862 0.629907C18.9295 0.280475 17.9445 0.0920596 16.9489 0.0727087C15.6696 0.0145888 15.2604 0 12.0005 0C8.74058 0 8.33209 0.0136476 7.05204 0.0727087" fill="url(#paint0_radial_39_70)"/>
<path d="M8.00031 12.0005C8.00031 11.2093 8.23492 10.4359 8.67446 9.7781C9.114 9.12028 9.73874 8.60757 10.4697 8.30481C11.2006 8.00204 12.0049 7.92283 12.7809 8.07717C13.5568 8.23152 14.2696 8.6125 14.829 9.17193C15.3884 9.73136 15.7694 10.4441 15.9238 11.2201C16.0781 11.996 15.9989 12.8003 15.6961 13.5313C15.3934 14.2622 14.8807 14.8869 14.2228 15.3265C13.565 15.766 12.7916 16.0006 12.0005 16.0006C10.9396 16.0006 9.92211 15.5792 9.17193 14.829C8.42176 14.0788 8.00031 13.0614 8.00031 12.0005ZM5.83764 12.0005C5.83764 13.2192 6.19903 14.4105 6.8761 15.4239C7.55317 16.4372 8.51552 17.227 9.64146 17.6935C10.7674 18.1599 12.0064 18.2819 13.2017 18.0442C14.397 17.8065 15.495 17.2197 16.3568 16.358C17.2186 15.4963 17.8056 14.3984 18.0434 13.2031C18.2812 12.0078 18.1593 10.7688 17.693 9.64282C17.2267 8.51682 16.437 7.55438 15.4238 6.87719C14.4105 6.20001 13.2192 5.83849 12.0005 5.83835C11.1912 5.83832 10.3899 5.99768 9.64229 6.30735C8.89465 6.61701 8.21533 7.07091 7.64312 7.64312C7.07091 8.21533 6.61701 8.89465 6.30735 9.64229C5.99768 10.3899 5.83832 11.1912 5.83835 12.0005H5.83764ZM16.9654 5.5941C16.9653 5.87892 17.0496 6.15737 17.2078 6.39423C17.366 6.6311 17.5908 6.81575 17.8539 6.92483C18.117 7.03391 18.4065 7.06252 18.6859 7.00705C18.9653 6.95158 19.2219 6.81451 19.4234 6.61318C19.6248 6.41185 19.7621 6.1553 19.8177 5.87597C19.8734 5.59665 19.845 5.30709 19.736 5.04392C19.6271 4.78075 19.4426 4.55578 19.2059 4.39747C18.9691 4.23916 18.6907 4.15461 18.4059 4.15452C18.0241 4.1547 17.658 4.30642 17.388 4.57634C17.118 4.84626 16.9662 5.21231 16.9658 5.5941H16.9654ZM7.15322 21.7686C6.39219 21.7599 5.63833 21.6203 4.92466 21.3559C4.40344 21.1632 3.93185 20.8565 3.54437 20.4582C3.14546 20.0716 2.83865 19.6002 2.64669 19.0789C2.38183 18.3653 2.2419 17.6114 2.23303 16.8503C2.17491 15.5853 2.16244 15.2053 2.16244 12.0007C2.16244 8.79611 2.17491 8.41704 2.23303 7.1511C2.24259 6.39016 2.38217 5.63645 2.64575 4.92255C2.83841 4.40132 3.14511 3.92973 3.54343 3.54226C3.93023 3.14311 4.40202 2.83628 4.92372 2.64457C5.63764 2.37985 6.39185 2.24015 7.15322 2.23162C8.41821 2.1735 8.79823 2.16103 12.0005 2.16103C15.2027 2.16103 15.5841 2.1735 16.8501 2.23162C17.611 2.24117 18.3647 2.38076 19.0786 2.64434C19.6 2.83664 20.0717 3.14339 20.4589 3.54202C20.8575 3.92924 21.1643 4.4009 21.3566 4.92231C21.6211 5.63595 21.7607 6.38983 21.7693 7.15087C21.8274 8.4168 21.8399 8.79587 21.8399 12.0005C21.8399 15.2051 21.8284 15.5841 21.7693 16.8501C21.7601 17.6111 21.6205 18.3648 21.3566 19.0786C21.1569 19.5962 20.851 20.0661 20.4587 20.4583C20.0664 20.8505 19.5962 21.1562 19.0786 21.3557C18.365 21.6202 17.6111 21.7598 16.8501 21.7684C15.5851 21.8265 15.2051 21.839 12.0005 21.839C8.79587 21.839 8.4168 21.8274 7.15322 21.7684V21.7686ZM7.05298 0.0727087C6.0575 0.0924026 5.07258 0.28089 4.14016 0.630142C3.33933 0.931487 2.61383 1.40381 2.0142 2.0142C1.40318 2.61327 0.930691 3.33883 0.629907 4.13993C0.280739 5.07244 0.0923326 6.05744 0.0727087 7.05298C0.0136476 8.33256 0 8.74152 0 12.0005C0 15.2594 0.0136476 15.6684 0.0727087 16.948C0.0924254 17.9434 0.280912 18.9284 0.630142 19.8608C0.930915 20.6619 1.40331 21.3875 2.0142 21.9867C2.61403 22.5968 3.33937 23.0692 4.13993 23.371C5.07238 23.7202 6.05728 23.9086 7.05275 23.9285C8.33303 23.9866 8.74128 24.0012 12.0002 24.0012C15.2592 24.0012 15.6681 23.9875 16.9477 23.9285C17.9432 23.9088 18.9281 23.7203 19.8605 23.371C20.6579 23.0628 21.382 22.5913 21.9865 21.9868C22.591 21.3823 23.0625 20.6581 23.3708 19.8608C23.7205 18.9285 23.909 17.9435 23.9282 16.948C23.9864 15.6674 23.9988 15.2594 23.9988 12.0005C23.9988 8.74152 23.9852 8.33256 23.9282 7.05298C23.9086 6.0575 23.7201 5.07257 23.3708 4.14016C23.069 3.33955 22.5968 2.61414 21.9867 2.0142C21.3878 1.40351 20.6626 0.931064 19.862 0.629907C18.9295 0.280475 17.9445 0.0920596 16.9489 0.0727087C15.6696 0.0145888 15.2604 0 12.0005 0C8.74058 0 8.33209 0.0136476 7.05204 0.0727087" fill="url(#paint1_radial_39_70)"/>
</g>
<defs>
<radialGradient id="paint0_radial_39_70" cx="0" cy="0" r="1" gradientUnits="userSpaceOnUse" gradientTransform="translate(3.1886 24.1144) scale(31.3299 31.3299)">
<stop offset="0.09" stop-color="#FA8F21"/>
<stop offset="0.78" stop-color="#D82D7E"/>
</radialGradient>
<radialGradient id="paint1_radial_39_70" cx="0" cy="0" r="1" gradientUnits="userSpaceOnUse" gradientTransform="translate(14.5556 25.1895) scale(24.6923 24.6923)">
<stop offset="0.64" stop-color="#8C3AAA" stop-opacity="0"/>
<stop offset="1" stop-color="#8C3AAA"/>
</radialGradient>
<clipPath id="clip0_39_70">
<rect width="24" height="24.0009" fill="white"/>
</clipPath>
</defs>
</svg>
