<svg width="24" height="24" viewBox="0 0 24 24" fill="none" xmlns="http://www.w3.org/2000/svg">
<path d="M17.25 23.25H6.75C5.1587 23.25 3.63258 22.6179 2.50736 21.4926C1.38214 20.3674 0.75 18.8413 0.75 17.25V6.75C0.75 5.1587 1.38214 3.63258 2.50736 2.50736C3.63258 1.38214 5.1587 0.75 6.75 0.75H17.25C18.8413 0.75 20.3674 1.38214 21.4926 2.50736C22.6179 3.63258 23.25 5.1587 23.25 6.75V17.25C23.25 18.8413 22.6179 20.3674 21.4926 21.4926C20.3674 22.6179 18.8413 23.25 17.25 23.25Z" stroke="white" stroke-miterlimit="10"/>
<path d="M12 17.25C14.8995 17.25 17.25 14.8995 17.25 12C17.25 9.10051 14.8995 6.75 12 6.75C9.10051 6.75 6.75 9.10051 6.75 12C6.75 14.8995 9.10051 17.25 12 17.25Z" stroke="white" stroke-miterlimit="10"/>
<path d="M18.75 6C19.1642 6 19.5 5.66421 19.5 5.25C19.5 4.83579 19.1642 4.5 18.75 4.5C18.3358 4.5 18 4.83579 18 5.25C18 5.66421 18.3358 6 18.75 6Z" stroke="white" stroke-miterlimit="10"/>
</svg>
