<svg width="24" height="24" viewBox="0 0 24 24" fill="none" xmlns="http://www.w3.org/2000/svg">
<g clip-path="url(#clip0_138_249)">
<path d="M11.9912 -0.00292969C8.27212 -0.00292969 5.24115 3.02797 5.24115 6.74707C5.24006 6.82755 5.25194 6.90767 5.27631 6.98438C5.34017 9.35183 6.36587 11.4239 7.57318 13.3447C8.8197 15.3279 10.2644 17.189 11.1913 19.0869C11.2523 19.2122 11.3469 19.3181 11.4646 19.3926C11.5823 19.4671 11.7184 19.5074 11.8577 19.5089C11.997 19.5105 12.134 19.4732 12.2533 19.4012C12.3726 19.3293 12.4695 19.2255 12.5331 19.1016C13.5064 17.2051 15.0253 15.3427 16.3359 13.3594C17.6465 11.3762 18.7646 9.23439 18.7646 6.75879C18.7658 6.6637 18.7489 6.56925 18.7148 6.48047C18.5712 2.8868 15.619 -0.00292969 11.9912 -0.00292969ZM11.9912 1.49707C14.8995 1.49707 17.2412 3.83872 17.2412 6.74707C17.2402 6.80115 17.2451 6.85518 17.2558 6.9082C17.2111 8.8699 16.3054 10.6863 15.0849 12.5332C14.0531 14.0946 12.8866 15.7066 11.8798 17.3818C10.9241 15.7138 9.82312 14.1046 8.84467 12.5479C7.65387 10.6534 6.76459 8.78949 6.76459 6.75879C6.76458 6.71458 6.76066 6.67047 6.75287 6.62695C6.81787 3.77594 9.12394 1.49707 11.9912 1.49707ZM11.9912 4.5C10.7574 4.5 9.74115 5.51625 9.74115 6.75C9.74115 7.98375 10.7574 9 11.9912 9C13.2249 9 14.2412 7.98375 14.2412 6.75C14.2412 5.51625 13.2249 4.5 11.9912 4.5ZM11.9912 6C12.4143 6 12.7412 6.327 12.7412 6.75C12.7412 7.17315 12.4143 7.5 11.9912 7.5C11.5681 7.5 11.2412 7.17315 11.2412 6.75C11.2412 6.327 11.5681 6 11.9912 6ZM18.1259 13.8398C17.9507 13.8398 17.781 13.901 17.6462 14.013C17.5114 14.125 17.4201 14.2806 17.3881 14.4529C17.3561 14.6251 17.3854 14.8032 17.4709 14.9561C17.5565 15.109 17.6928 15.2272 17.8564 15.29C19.3514 15.8956 20.3124 16.6896 20.7275 17.4199C21.1426 18.1503 21.1329 18.7814 20.5898 19.5586C19.5036 21.1127 16.0364 22.4891 12.079 22.5059C8.12165 22.5224 4.60617 21.1814 3.45697 19.623C2.88237 18.8438 2.85387 18.2082 3.24018 17.4814C3.62648 16.7548 4.55209 15.954 6.02338 15.3369C6.11691 15.3007 6.20224 15.2462 6.27432 15.1765C6.34641 15.1068 6.40377 15.0233 6.44304 14.931C6.4823 14.8387 6.50267 14.7395 6.50292 14.6392C6.50318 14.539 6.48333 14.4396 6.44453 14.3472C6.40574 14.2547 6.3488 14.1709 6.27707 14.1008C6.20535 14.0308 6.1203 13.9758 6.02695 13.9391C5.93361 13.9025 5.83386 13.8849 5.73361 13.8875C5.63336 13.8901 5.53465 13.9127 5.4433 13.9541C3.76234 14.6591 2.53845 15.6073 1.91596 16.7783C1.29346 17.9492 1.4012 19.3627 2.24994 20.5137C3.94742 22.8157 7.81654 24.0242 12.0878 24.0059C16.3591 23.9879 20.1919 22.7499 21.8203 20.4199C22.6344 19.2549 22.6896 17.8372 22.0312 16.6787C21.3728 15.5203 20.1209 14.5878 18.4189 13.8984C18.3261 13.8595 18.2265 13.8395 18.1259 13.8398Z" fill="white"/>
</g>
<defs>
<clipPath id="clip0_138_249">
<rect width="24" height="24" fill="white"/>
</clipPath>
</defs>
</svg>
