<svg width="24" height="24" viewBox="0 0 24 24" fill="none" xmlns="http://www.w3.org/2000/svg">
<g clip-path="url(#clip0_42_74)">
<path d="M20.2537 22.0275C20.2537 23.1187 16.5562 24 12 24C7.44375 24 3.74625 23.1187 3.74625 22.0275C3.74625 21.0525 6.70875 20.25 10.5937 20.085H13.4062C17.295 20.25 20.2537 21.0525 20.2537 22.0275Z" fill="#E3E2E1"/>
<path d="M12 0C7.76251 0 4.32751 3.43125 4.32751 7.66875C4.32751 11.9062 12 22.0275 12 22.0275C12 22.0275 19.6688 11.9062 19.6688 7.66875C19.6688 3.43125 16.2375 0 12 0ZM12 12.7463C9.19501 12.7463 6.92251 10.4738 6.92251 7.66875C6.92251 4.86375 9.19501 2.59125 12 2.59125C14.805 2.59125 17.0775 4.86375 17.0775 7.66875C17.0775 10.4738 14.805 12.7463 12 12.7463Z" fill="#82B440"/>
</g>
<defs>
<clipPath id="clip0_42_74">
<rect width="24" height="24" fill="white"/>
</clipPath>
</defs>
</svg>
