<svg width="48" height="48" viewBox="0 0 48 48" fill="none" xmlns="http://www.w3.org/2000/svg">
<path d="M42 29.25C42 28.2117 41.6921 27.1966 41.1152 26.3333C40.5383 25.4699 39.7184 24.797 38.7591 24.3996C37.7998 24.0023 36.7442 23.8983 35.7258 24.1009C34.7074 24.3035 33.7719 24.8035 33.0377 25.5377C32.3035 26.2719 31.8035 27.2074 31.6009 28.2258C31.3983 29.2442 31.5023 30.2998 31.8996 31.2591C32.297 32.2184 32.9699 33.0383 33.8333 33.6152C34.6966 34.1921 35.7117 34.5 36.75 34.5C38.1419 34.4984 39.4763 33.9448 40.4606 32.9606C41.4448 31.9763 41.9984 30.6419 42 29.25ZM36.75 33C36.0083 33 35.2833 32.7801 34.6666 32.368C34.0499 31.956 33.5693 31.3703 33.2855 30.6851C33.0016 29.9998 32.9274 29.2458 33.0721 28.5184C33.2168 27.791 33.5739 27.1228 34.0984 26.5984C34.6228 26.0739 35.291 25.7168 36.0184 25.5721C36.7458 25.4274 37.4998 25.5016 38.1851 25.7855C38.8703 26.0693 39.456 26.5499 39.868 27.1666C40.2801 27.7833 40.5 28.5083 40.5 29.25C40.4988 30.2442 40.1033 31.1973 39.4003 31.9003C38.6973 32.6033 37.7442 32.9988 36.75 33Z" fill="#FF5722"/>
<path d="M38.4698 27.2197L36 29.6895L35.0303 28.7197L33.9698 29.7802L35.4698 31.2802C35.6104 31.4208 35.8011 31.4998 36 31.4998C36.1989 31.4998 36.3896 31.4208 36.5303 31.2802L39.5303 28.2802L38.4698 27.2197ZM24 39.75C23.555 39.75 23.12 39.8819 22.75 40.1292C22.38 40.3764 22.0916 40.7278 21.9213 41.1389C21.751 41.5501 21.7064 42.0025 21.7932 42.4389C21.8801 42.8754 22.0943 43.2763 22.409 43.591C22.7237 43.9056 23.1246 44.1199 23.561 44.2067C23.9975 44.2936 24.4499 44.249 24.861 44.0787C25.2722 43.9084 25.6236 43.62 25.8708 43.25C26.118 42.88 26.25 42.445 26.25 42C26.25 41.4032 26.0129 40.8309 25.591 40.409C25.169 39.987 24.5967 39.75 24 39.75ZM24 42.75C23.8517 42.75 23.7067 42.706 23.5833 42.6236C23.46 42.5412 23.3639 42.424 23.3071 42.287C23.2503 42.1499 23.2355 41.9991 23.2644 41.8537C23.2934 41.7082 23.3648 41.5745 23.4697 41.4696C23.5746 41.3648 23.7082 41.2933 23.8537 41.2644C23.9992 41.2354 24.15 41.2503 24.287 41.3071C24.4241 41.3638 24.5412 41.46 24.6236 41.5833C24.706 41.7066 24.75 41.8516 24.75 42C24.75 42.1989 24.671 42.3897 24.5303 42.5303C24.3897 42.671 24.1989 42.75 24 42.75Z" fill="#FF5722"/>
<path d="M26.25 3.75H21.75V5.25H26.25V3.75Z" fill="#FF5722"/>
<path d="M45.75 18H38.25V5.25C38.2488 4.2558 37.8533 3.30267 37.1503 2.59966C36.4473 1.89666 35.4942 1.50119 34.5 1.5H13.5C12.5058 1.50119 11.5527 1.89666 10.8497 2.59966C10.1467 3.30267 9.75119 4.2558 9.75 5.25V9H2.25C2.05109 9 1.86032 9.07902 1.71967 9.21967C1.57902 9.36032 1.5 9.55109 1.5 9.75V26.25C1.5 26.4489 1.57902 26.6397 1.71967 26.7803C1.86032 26.921 2.05109 27 2.25 27H9.75V42.75C9.75119 43.7442 10.1467 44.6973 10.8497 45.4003C11.5527 46.1033 12.5058 46.4988 13.5 46.5H34.5C35.4942 46.4988 36.4473 46.1033 37.1503 45.4003C37.8533 44.6973 38.2488 43.7442 38.25 42.75V36H45.75C45.9489 36 46.1397 35.921 46.2803 35.7803C46.421 35.6397 46.5 35.4489 46.5 35.25V18.75C46.5 18.5511 46.421 18.3603 46.2803 18.2197C46.1397 18.079 45.9489 18 45.75 18ZM45 22.5H28.5V19.5H45V22.5ZM13.5 3H34.5C35.0967 3 35.669 3.23705 36.091 3.65901C36.5129 4.08097 36.75 4.65326 36.75 5.25V6H11.25V5.25C11.25 4.65326 11.4871 4.08097 11.909 3.65901C12.331 3.23705 12.9033 3 13.5 3ZM19.5 10.5V13.5H3V10.5H19.5ZM3 15H19.5V25.5H3V15ZM34.5 45H13.5C12.9033 45 12.331 44.7629 11.909 44.341C11.4871 43.919 11.25 43.3467 11.25 42.75V39H36.75V42.75C36.75 43.3467 36.5129 43.919 36.091 44.341C35.669 44.7629 35.0967 45 34.5 45ZM36.75 37.5H11.25V27H20.25C20.4489 27 20.6397 26.921 20.7803 26.7803C20.921 26.6397 21 26.4489 21 26.25V9.75C21 9.55109 20.921 9.36032 20.7803 9.21967C20.6397 9.07902 20.4489 9 20.25 9H11.25V7.5H36.75V18H27.75C27.5511 18 27.3603 18.079 27.2197 18.2197C27.079 18.3603 27 18.5511 27 18.75V35.25C27 35.4489 27.079 35.6397 27.2197 35.7803C27.3603 35.921 27.5511 36 27.75 36H36.75V37.5ZM36.75 34.5H28.5V24H45V34.5H36.75Z" fill="#FF5722"/>
<path d="M30.75 20.25H29.25V21.75H30.75V20.25Z" fill="#FF5722"/>
<path d="M33 20.25H31.5V21.75H33V20.25Z" fill="#FF5722"/>
<path d="M35.25 20.25H33.75V21.75H35.25V20.25Z" fill="#FF5722"/>
<path d="M6.85724 16.1138L4.60724 19.8638C4.53716 19.9804 4.50014 20.1139 4.50014 20.25C4.50014 20.3861 4.53716 20.5196 4.60724 20.6363L6.85724 24.3863L8.14275 23.6138L6.12449 20.25L8.14275 16.8863L6.85724 16.1138ZM15.6427 16.1138L14.3572 16.8863L16.3755 20.25L14.3572 23.6138L15.6427 24.3863L17.8927 20.6363C17.9628 20.5196 17.9999 20.3861 17.9999 20.25C17.9999 20.1139 17.9628 19.9804 17.8927 19.8638L15.6427 16.1138Z" fill="#FF5722"/>
<path d="M12.0522 16.2213L9.05493 23.7222L10.4478 24.2788L13.4451 16.7779L12.0522 16.2213Z" fill="#FF5722"/>
<path d="M5.25 11.25H3.75V12.75H5.25V11.25Z" fill="#FF5722"/>
<path d="M7.5 11.25H6V12.75H7.5V11.25Z" fill="#FF5722"/>
<path d="M9.75 11.25H8.25V12.75H9.75V11.25Z" fill="#FF5722"/>
<path d="M24 10.5H22.5V12H24V10.5Z" fill="#FF5722"/>
<path d="M28.5 10.5H25.5V12H28.5V10.5Z" fill="#FF5722"/>
<path d="M35.25 12V10.5H31.5H30V12H31.5H35.25Z" fill="#FF5722"/>
<path d="M25.5 13.5H22.5V15H25.5V13.5Z" fill="#FF5722"/>
<path d="M28.5 13.5H27V15H28.5V13.5Z" fill="#FF5722"/>
<path d="M35.25 13.5H30V15H35.25V13.5Z" fill="#FF5722"/>
<path d="M18 30H13.5V31.5H18V30Z" fill="#FF5722"/>
<path d="M24 30H19.5V31.5H24V30Z" fill="#FF5722"/>
<path d="M16.5 33H15V34.5H16.5V33Z" fill="#FF5722"/>
<path d="M21 33H18V34.5H21V33Z" fill="#FF5722"/>
<path d="M24 33H22.5V34.5H24V33Z" fill="#FF5722"/>
</svg>
