<svg width="24" height="24" viewBox="0 0 24 24" fill="none" xmlns="http://www.w3.org/2000/svg">
<path d="M22.5 11.9288C22.4005 11.9288 22.3052 11.8892 22.2348 11.8189C22.1645 11.7486 22.125 11.6532 22.125 11.5538C22.125 6.21375 17.9062 1.875 12.7087 1.875C12.6093 1.875 12.5139 1.83549 12.4436 1.76516C12.3732 1.69484 12.3337 1.59946 12.3337 1.5C12.3337 1.40054 12.3732 1.30516 12.4436 1.23483C12.5139 1.16451 12.6093 1.125 12.7087 1.125C18.315 1.125 22.875 5.805 22.875 11.5612C22.873 11.6594 22.8327 11.7529 22.7625 11.8216C22.6924 11.8903 22.5982 11.9288 22.5 11.9288Z" fill="#82B440"/>
<path d="M18.4125 11.9288C18.313 11.9288 18.2177 11.8893 18.1473 11.819C18.077 11.7486 18.0375 11.6532 18.0375 11.5538C18.0556 10.1201 17.5051 8.73762 16.5064 7.70877C15.5078 6.67992 14.1423 6.08846 12.7087 6.06379C12.6093 6.06379 12.5139 6.02428 12.4436 5.95395C12.3733 5.88363 12.3337 5.78824 12.3337 5.68879C12.3337 5.58933 12.3733 5.49395 12.4436 5.42362C12.5139 5.3533 12.6093 5.31379 12.7087 5.31379C14.3402 5.33652 15.8961 6.00547 17.035 7.17388C18.1739 8.3423 18.8028 9.91476 18.7837 11.5463C18.7847 11.5958 18.7759 11.6451 18.7577 11.6912C18.7396 11.7374 18.7124 11.7794 18.6779 11.815C18.6434 11.8506 18.6022 11.8789 18.5566 11.8985C18.511 11.918 18.4621 11.9283 18.4125 11.9288ZM20.625 19.8113C20.1463 20.7694 19.4672 21.6135 18.6337 22.2863C18.3363 22.522 17.9927 22.6929 17.6252 22.7878C17.2577 22.8827 16.8744 22.8997 16.5 22.8375C13.0987 22.26 9.74999 20.7675 6.40874 17.4825C3.21749 14.0588 1.72124 10.5638 1.15874 7.07254C1.09649 6.68901 1.11188 6.29688 1.20399 5.9194C1.2961 5.54192 1.46307 5.18679 1.69499 4.87504C2.34358 4.01731 3.17326 3.3131 4.12499 2.81254C4.21641 2.71656 4.32636 2.64014 4.44819 2.58793C4.57003 2.53571 4.70119 2.50879 4.83374 2.50879C4.96629 2.50879 5.09746 2.53571 5.21929 2.58793C5.34112 2.64014 5.45108 2.71656 5.54249 2.81254L8.84624 6.24379C9.04737 6.45966 9.1592 6.74374 9.1592 7.03879C9.1592 7.33384 9.04737 7.61792 8.84624 7.83379L6.50624 10.3725C7.49999 12.5513 11.1712 16.3313 13.2787 17.3513L15.75 14.94C15.8514 14.8384 15.9718 14.7578 16.1043 14.7028C16.2369 14.6479 16.379 14.6195 16.5225 14.6195C16.666 14.6195 16.8081 14.6479 16.9407 14.7028C17.0732 14.7578 17.1936 14.8384 17.295 14.94L20.6325 18.315C20.7308 18.4135 20.8086 18.5304 20.8614 18.6591C20.9143 18.7878 20.9411 18.9256 20.9404 19.0647C20.9397 19.2038 20.9115 19.3414 20.8573 19.4695C20.8032 19.5977 20.7242 19.7138 20.625 19.8113Z" fill="#82B440"/>
</svg>
