<svg width="24" height="24" viewBox="0 0 24 24" fill="none" xmlns="http://www.w3.org/2000/svg">
<path d="M17.5876 15.6975C17.3786 15.4878 17.1302 15.3213 16.8567 15.2078C16.5832 15.0942 16.29 15.0357 15.9939 15.0357C15.6977 15.0357 15.4045 15.0942 15.131 15.2078C14.8575 15.3213 14.6092 15.4878 14.4001 15.6975L13.3126 16.785C12.0882 16.0079 10.9537 15.0973 9.93012 14.07C8.90497 13.0445 7.9946 11.9103 7.21512 10.6875L8.30262 9.60002C8.51238 9.39099 8.67881 9.14261 8.79238 8.86911C8.90594 8.59562 8.9644 8.3024 8.9644 8.00627C8.9644 7.71014 8.90594 7.41692 8.79238 7.14343C8.67881 6.86994 8.51238 6.62156 8.30262 6.41252L6.18012 4.29752C5.97404 4.08707 5.72775 3.92019 5.4559 3.80681C5.18404 3.69343 4.89217 3.63586 4.59762 3.63752V3.63752C4.30098 3.6368 4.00713 3.69473 3.73297 3.808C3.4588 3.92127 3.20975 4.08764 3.00012 4.29752L1.98012 5.31002C1.49395 5.83275 1.1311 6.45778 0.918246 7.13918C0.705391 7.82057 0.647942 8.54101 0.750122 9.24752C0.990122 12.06 2.83512 15.4425 5.67762 18.2925C8.52012 21.1425 11.9401 22.98 14.7526 23.25C14.9625 23.2612 15.1728 23.2612 15.3826 23.25C15.988 23.2754 16.5924 23.1797 17.1604 22.9685C17.7283 22.7573 18.2484 22.4348 18.6901 22.02L19.7026 21C19.9125 20.7904 20.0789 20.5413 20.1921 20.2672C20.3054 19.993 20.3633 19.6992 20.3626 19.4025C20.3643 19.108 20.3067 18.8161 20.1933 18.5442C20.08 18.2724 19.9131 18.0261 19.7026 17.82L17.5876 15.6975ZM18.6451 19.9425L17.6251 20.955C17.248 21.2693 16.8077 21.499 16.3341 21.6284C15.8605 21.7578 15.3647 21.7839 14.8801 21.705C12.4426 21.495 9.33762 19.77 6.77262 17.205C4.20762 14.64 2.48262 11.5575 2.25012 9.12002C2.16924 8.63546 2.19441 8.13912 2.32389 7.66522C2.45337 7.19132 2.68408 6.75114 3.00012 6.37502L4.05762 5.35502C4.1277 5.28551 4.21081 5.23052 4.30219 5.19319C4.39357 5.15587 4.49142 5.13695 4.59012 5.13752C4.68883 5.13695 4.78667 5.15587 4.87805 5.19319C4.96943 5.23052 5.05254 5.28551 5.12262 5.35502L7.24512 7.50002C7.38481 7.64054 7.46322 7.83063 7.46322 8.02877C7.46322 8.22691 7.38481 8.417 7.24512 8.55752L5.74512 10.0575C5.62774 10.1743 5.55232 10.3267 5.53061 10.4908C5.50891 10.655 5.54214 10.8217 5.62512 10.965C6.52317 12.4939 7.61467 13.9005 8.87262 15.15C10.1222 16.408 11.5288 17.4995 13.0576 18.3975C13.2009 18.4805 13.3676 18.5137 13.5318 18.492C13.696 18.4703 13.8483 18.3949 13.9651 18.2775L15.4651 16.7775C15.6056 16.6378 15.7957 16.5594 15.9939 16.5594C16.192 16.5594 16.3821 16.6378 16.5226 16.7775L18.6451 18.9C18.7146 18.9701 18.7696 19.0532 18.807 19.1446C18.8443 19.236 18.8632 19.3338 18.8626 19.4325C18.8579 19.6241 18.7801 19.8065 18.6451 19.9425V19.9425ZM19.9501 4.04252C18.9078 2.99625 17.6687 2.16665 16.3043 1.60156C14.9398 1.03647 13.477 0.747059 12.0001 0.750023C11.8012 0.750023 11.6104 0.82904 11.4698 0.969692C11.3291 1.11034 11.2501 1.30111 11.2501 1.50002C11.2501 1.69893 11.3291 1.8897 11.4698 2.03035C11.6104 2.171 11.8012 2.25002 12.0001 2.25002C13.2875 2.24998 14.5621 2.50488 15.7504 3.00001C16.9388 3.49514 18.0173 4.22071 18.9237 5.13484C19.8302 6.04897 20.5467 7.13356 21.0318 8.32602C21.5169 9.51848 21.761 10.7952 21.7501 12.0825C21.7501 12.2814 21.8291 12.4722 21.9698 12.6129C22.1104 12.7535 22.3012 12.8325 22.5001 12.8325C22.699 12.8325 22.8898 12.7535 23.0305 12.6129C23.1711 12.4722 23.2501 12.2814 23.2501 12.0825C23.2645 10.59 22.9799 9.10965 22.4131 7.72882C21.8464 6.34799 21.0089 5.09459 19.9501 4.04252V4.04252Z" fill="white"/>
<path d="M15.6825 8.33249C16.1081 8.75555 16.4449 9.25948 16.6728 9.81462C16.9008 10.3698 17.0155 10.9649 17.01 11.565C17.01 11.7639 17.089 11.9547 17.2297 12.0953C17.3703 12.236 17.5611 12.315 17.76 12.315C17.9589 12.315 18.1497 12.236 18.2903 12.0953C18.431 11.9547 18.51 11.7639 18.51 11.565C18.5199 10.7708 18.3721 9.98248 18.075 9.24585C17.7779 8.50922 17.3375 7.8389 16.7794 7.27378C16.2212 6.70866 15.5565 6.25999 14.8236 5.95378C14.0907 5.64757 13.3043 5.48993 12.51 5.48999C12.3111 5.48999 12.1203 5.56901 11.9797 5.70966C11.839 5.85031 11.76 6.04108 11.76 6.23999C11.76 6.4389 11.839 6.62967 11.9797 6.77032C12.1203 6.91097 12.3111 6.98999 12.51 6.98999C13.1011 6.99444 13.6855 7.1153 14.2298 7.34565C14.7742 7.57599 15.2678 7.91133 15.6825 8.33249Z" fill="white"/>
</svg>
