<svg width="34" height="34" viewBox="0 0 34 34" fill="none" xmlns="http://www.w3.org/2000/svg">
<path d="M27.3594 1.59375H6.64062C3.55991 1.59375 1.0625 4.09116 1.0625 7.17188V26.8281C1.0625 29.9088 3.55991 32.4062 6.64062 32.4062H27.3594C30.4401 32.4062 32.9375 29.9088 32.9375 26.8281V7.17188C32.9375 4.09116 30.4401 1.59375 27.3594 1.59375Z" fill="#001E36"/>
<path d="M7.70325 24.2888V9.82812C7.70064 9.80797 7.70269 9.78749 7.70925 9.76826C7.7158 9.74902 7.72668 9.73155 7.74105 9.71718C7.75542 9.70281 7.77289 9.69193 7.79213 9.68538C7.81136 9.67882 7.83184 9.67677 7.852 9.67937C8.9291 9.65148 10.2001 9.5625 11.8576 9.5625C13.8126 9.5625 15.247 9.97023 16.1607 10.8481C16.6047 11.2635 16.9561 11.7676 17.1923 12.3278C17.4284 12.888 17.544 13.4916 17.5314 14.0994C17.5314 15.7011 16.9647 16.8911 15.8314 17.6694C14.698 18.4477 13.2725 18.8372 11.5548 18.8381L10.3595 18.8594V24.2675C10.3628 24.2906 10.3607 24.3142 10.3534 24.3363C10.346 24.3585 10.3336 24.3786 10.3171 24.3951C10.3006 24.4116 10.2805 24.424 10.2583 24.4314C10.2362 24.4387 10.2126 24.4408 10.1895 24.4375H7.87325C7.76035 24.4375 7.70325 24.3884 7.70325 24.2888ZM10.3595 11.637V16.8672C10.3595 16.8672 10.9651 16.8433 11.6876 16.8433C12.6377 16.8433 13.4062 16.6343 13.9932 16.2164C14.5803 15.7985 14.8742 15.1141 14.8751 14.1631C14.8751 13.3273 14.6166 12.6827 14.0995 12.2294C13.5824 11.776 12.8351 11.5511 11.8576 11.5547C11.6172 11.5547 11.3795 11.5547 11.1457 11.5653C10.912 11.5759 10.7207 11.5759 10.572 11.5759C10.4232 11.5759 10.3436 11.5706 10.3595 11.637ZM26.297 20.9844C26.297 22.6113 25.2345 23.375 25.2345 23.375V23.367C25.1707 23.4295 25.1017 23.4879 25.0339 23.545C24.3026 24.14 23.314 24.4375 22.0682 24.4375C20.8225 24.4375 19.8042 24.2082 19.0136 23.7495C18.9698 23.7343 18.9327 23.7045 18.9085 23.665C18.8843 23.6255 18.8745 23.5789 18.8807 23.533V21.5316C18.8788 21.509 18.8826 21.4862 18.8919 21.4655C18.9012 21.4448 18.9157 21.4269 18.9339 21.4134C18.9483 21.403 18.9661 21.3983 18.9837 21.4003C19.0014 21.4022 19.0177 21.4107 19.0295 21.424C19.8723 22.0863 20.9114 22.4497 21.9832 22.4573C22.4782 22.4573 22.8572 22.3687 23.1201 22.1916C23.2414 22.1193 23.3418 22.0169 23.4116 21.8942C23.4814 21.7715 23.5183 21.6329 23.5186 21.4917C23.5214 21.3493 23.4945 21.2078 23.4396 21.0763C23.3848 20.9448 23.3031 20.8262 23.1998 20.728C22.9873 20.5191 22.5694 20.2929 21.9461 20.0494C20.8118 19.6067 20.022 19.1294 19.5767 18.6177C19.1053 18.1049 18.8486 17.4308 18.8595 16.7344C18.8598 16.3011 18.9528 15.873 19.1324 15.4787C19.312 15.0844 19.574 14.7332 19.9007 14.4487C20.5657 13.8457 21.5149 13.5442 22.7482 13.5442C23.8993 13.5442 24.7847 13.7023 25.4045 14.0184C25.4749 14.0609 25.5107 14.1512 25.5107 14.2973V16.0836C25.5107 16.2562 25.447 16.2987 25.3195 16.2164C24.5806 15.731 23.7173 15.4695 22.8332 15.4634C22.3365 15.4634 21.9726 15.5577 21.7389 15.7436C21.6325 15.8191 21.5454 15.9185 21.4845 16.0339C21.4236 16.1492 21.3906 16.2772 21.3882 16.4077C21.3879 16.5353 21.4141 16.6615 21.4653 16.7784C21.5166 16.8953 21.5916 17.0002 21.6857 17.0863C21.8841 17.2802 22.302 17.506 22.9395 17.7637C24.0516 18.1984 24.8485 18.6553 25.3301 19.1343L25.3421 19.1463C25.8375 19.6018 26.297 20.2287 26.297 20.9844Z" fill="#31A8FF"/>
</svg>
