<svg width="38" height="38" viewBox="0 0 38 38" fill="none" xmlns="http://www.w3.org/2000/svg">
<circle cx="19" cy="19" r="19" fill="#FF5722"/>
<path d="M16 15.482V22.518L22.03 19L16 15.482ZM14.752 12.44L25.26 18.57C25.3353 18.6141 25.3978 18.6771 25.4412 18.7528C25.4846 18.8285 25.5074 18.9142 25.5074 19.0015C25.5074 19.0888 25.4846 19.1745 25.4412 19.2502C25.3978 19.3259 25.3353 19.3889 25.26 19.433L14.752 25.563C14.6758 25.6075 14.5892 25.631 14.501 25.6312C14.4127 25.6313 14.326 25.6081 14.2496 25.564C14.1733 25.5198 14.1099 25.4562 14.0661 25.3796C14.0223 25.303 13.9995 25.2162 14 25.128V12.871C14 12.783 14.0232 12.6966 14.0672 12.6204C14.1113 12.5443 14.1747 12.4811 14.2509 12.4373C14.3272 12.3935 14.4137 12.3706 14.5017 12.3709C14.5897 12.3712 14.676 12.3947 14.752 12.439V12.44Z" fill="white"/>
</svg>
