<svg width="34" height="35" viewBox="0 0 34 35" fill="none" xmlns="http://www.w3.org/2000/svg">
<path d="M23.375 1.9624H6.375C6.09321 1.9624 5.82296 2.07434 5.6237 2.2736C5.42444 2.47286 5.3125 2.74311 5.3125 3.0249V28.5249C5.3125 28.8067 5.42444 29.0769 5.6237 29.2762C5.82296 29.4755 6.09321 29.5874 6.375 29.5874H9.5625V32.7749C9.5625 33.0567 9.67444 33.3269 9.8737 33.5262C10.073 33.7255 10.3432 33.8374 10.625 33.8374H27.625C27.9068 33.8374 28.177 33.7255 28.3763 33.5262C28.5756 33.3269 28.6875 33.0567 28.6875 32.7749V7.2749C28.6875 6.99311 28.5756 6.72286 28.3763 6.5236C28.177 6.32434 27.9068 6.2124 27.625 6.2124H24.4375V3.0249C24.4375 2.74311 24.3256 2.47286 24.1263 2.2736C23.927 2.07434 23.6568 1.9624 23.375 1.9624ZM7.4375 27.4624V4.0874H22.3125V6.2124H10.625C10.3432 6.2124 10.073 6.32434 9.8737 6.5236C9.67444 6.72286 9.5625 6.99311 9.5625 7.2749V27.4624H7.4375ZM26.5625 31.7124H11.6875V8.3374H26.5625V31.7124Z" fill="#FF5722"/>
<path d="M13.8125 17.8999C14.0943 17.8999 14.3645 17.788 14.5638 17.5887C14.7631 17.3894 14.875 17.1192 14.875 16.8374V15.7749H17V16.8374C17 17.1192 17.1119 17.3894 17.3112 17.5887C17.5105 17.788 17.7807 17.8999 18.0625 17.8999C18.3443 17.8999 18.6145 17.788 18.8138 17.5887C19.0131 17.3894 19.125 17.1192 19.125 16.8374V12.5874C19.125 11.742 18.7892 10.9313 18.1914 10.3335C17.5936 9.73573 16.7829 9.3999 15.9375 9.3999C15.0921 9.3999 14.2814 9.73573 13.6836 10.3335C13.0858 10.9313 12.75 11.742 12.75 12.5874V16.8374C12.75 17.1192 12.8619 17.3894 13.0612 17.5887C13.2605 17.788 13.5307 17.8999 13.8125 17.8999ZM15.9375 11.5249C16.2193 11.5249 16.4895 11.6368 16.6888 11.8361C16.8881 12.0354 17 12.3056 17 12.5874V13.6499H14.875V12.5874C14.875 12.3056 14.9869 12.0354 15.1862 11.8361C15.3855 11.6368 15.6557 11.5249 15.9375 11.5249ZM21.7812 12.0562V13.1187H20.7188C20.437 13.1187 20.1667 13.2306 19.9674 13.4299C19.7682 13.6291 19.6562 13.8994 19.6562 14.1812C19.6562 14.4629 19.7682 14.7332 19.9674 14.9325C20.1667 15.1317 20.437 15.2437 20.7188 15.2437H21.7812V16.3062C21.7812 16.5879 21.8932 16.8582 22.0924 17.0575C22.2917 17.2567 22.562 17.3687 22.8438 17.3687C23.1255 17.3687 23.3958 17.2567 23.5951 17.0575C23.7943 16.8582 23.9062 16.5879 23.9062 16.3062V15.2437H24.9688C25.2505 15.2437 25.5208 15.1317 25.7201 14.9325C25.9193 14.7332 26.0312 14.4629 26.0312 14.1812C26.0312 13.8994 25.9193 13.6291 25.7201 13.4299C25.5208 13.2306 25.2505 13.1187 24.9688 13.1187H23.9062V12.0562C23.9062 11.7744 23.7943 11.5041 23.5951 11.3049C23.3958 11.1056 23.1255 10.9937 22.8438 10.9937C22.562 10.9937 22.2917 11.1056 22.0924 11.3049C21.8932 11.5041 21.7812 11.7744 21.7812 12.0562ZM24.9688 19.4937H13.8125C13.5307 19.4937 13.2605 19.6056 13.0612 19.8049C12.8619 20.0041 12.75 20.2744 12.75 20.5562C12.75 20.8379 12.8619 21.1082 13.0612 21.3075C13.2605 21.5067 13.5307 21.6187 13.8125 21.6187H24.9688C25.2505 21.6187 25.5208 21.5067 25.7201 21.3075C25.9193 21.1082 26.0312 20.8379 26.0312 20.5562C26.0312 20.2744 25.9193 20.0041 25.7201 19.8049C25.5208 19.6056 25.2505 19.4937 24.9688 19.4937ZM24.9688 22.6812H13.8125C13.5307 22.6812 13.2605 22.7931 13.0612 22.9924C12.8619 23.1916 12.75 23.4619 12.75 23.7437C12.75 24.0254 12.8619 24.2957 13.0612 24.495C13.2605 24.6942 13.5307 24.8062 13.8125 24.8062H24.9688C25.2505 24.8062 25.5208 24.6942 25.7201 24.495C25.9193 24.2957 26.0312 24.0254 26.0312 23.7437C26.0312 23.4619 25.9193 23.1916 25.7201 22.9924C25.5208 22.7931 25.2505 22.6812 24.9688 22.6812ZM22.8438 25.8687H13.8125C13.5307 25.8687 13.2605 25.9806 13.0612 26.1799C12.8619 26.3791 12.75 26.6494 12.75 26.9312C12.75 27.2129 12.8619 27.4832 13.0612 27.6825C13.2605 27.8817 13.5307 27.9937 13.8125 27.9937H22.8438C23.1255 27.9937 23.3958 27.8817 23.5951 27.6825C23.7943 27.4832 23.9062 27.2129 23.9062 26.9312C23.9062 26.6494 23.7943 26.3791 23.5951 26.1799C23.3958 25.9806 23.1255 25.8687 22.8438 25.8687Z" fill="#FF5722"/>
</svg>
