<svg width="61" height="61" viewBox="0 0 61 61" fill="none" xmlns="http://www.w3.org/2000/svg">
<path d="M19.8241 21.1979H20.4841C20.8516 23.5437 22.045 25.6811 23.8492 27.2247C25.6534 28.7682 27.9497 29.6165 30.3241 29.6165C32.6985 29.6165 34.9948 28.7682 36.799 27.2247C38.6032 25.6811 39.7966 23.5437 40.1641 21.1979H40.8241C41.4468 21.1979 42.0442 20.951 42.4851 20.5112C42.926 20.0714 43.1745 19.4747 43.1761 18.8519V16.4999C43.1761 16.1817 43.0497 15.8764 42.8246 15.6514C42.5996 15.4264 42.2943 15.2999 41.9761 15.2999H40.3021V10.4999C40.3045 9.65426 40.14 8.81642 39.8182 8.03437C39.4964 7.25231 39.0236 6.54139 38.4267 5.9423C37.8298 5.3432 37.1207 4.86769 36.3398 4.54297C35.559 4.21826 34.7218 4.05071 33.8761 4.04993H26.7721C25.9267 4.05071 25.0898 4.2183 24.3093 4.54309C23.5287 4.86788 22.82 5.34349 22.2236 5.94266C21.6272 6.54183 21.1549 7.2528 20.8338 8.03482C20.5126 8.81684 20.3489 9.65454 20.3521 10.4999V15.2999H18.6721C18.3538 15.2999 18.0486 15.4264 17.8236 15.6514C17.5985 15.8764 17.4721 16.1817 17.4721 16.4999V18.8519C17.4737 19.4747 17.7222 20.0714 18.1631 20.5112C18.604 20.951 19.2013 21.1979 19.8241 21.1979ZM30.3241 28.4279C27.998 28.4232 25.7687 27.4966 24.1245 25.8513C22.4803 24.206 21.5553 21.976 21.5521 19.6499V15.5399C21.7741 15.0659 23.0581 12.7499 26.5741 12.7499C29.0213 12.7695 31.4261 12.1112 33.5221 10.8479C35.0563 12.4903 36.9733 13.7271 39.1021 14.4479V19.6379C39.1005 21.9666 38.1756 24.1996 36.5301 25.8474C34.8845 27.4952 32.6528 28.4232 30.3241 28.4279ZM41.9761 16.4999V18.8519C41.9745 19.1564 41.8524 19.4479 41.6366 19.6626C41.4207 19.8774 41.1286 19.9979 40.8241 19.9979H40.3021V16.4999H41.9761ZM21.5761 10.4999C21.5761 9.11494 22.1259 7.7866 23.1046 6.80671C24.0834 5.82681 25.4111 5.27552 26.7961 5.27393H33.8761C35.2616 5.27551 36.59 5.82662 37.5697 6.80634C38.5494 7.78606 39.1005 9.11439 39.1021 10.4999V13.1999C37.1679 12.4558 35.447 11.2461 34.0921 9.67793C33.9941 9.55512 33.8519 9.47565 33.6959 9.45658C33.54 9.43751 33.3828 9.48036 33.2581 9.57593C31.2817 10.8962 28.9507 11.5847 26.5741 11.5499C25.6478 11.5113 24.7235 11.6646 23.8593 12.0002C22.9951 12.3357 22.2096 12.8463 21.5521 13.4999L21.5761 10.4999ZM18.6961 16.4999H20.3761V19.9979H19.8241C19.5196 19.9979 19.2275 19.8774 19.0116 19.6626C18.7957 19.4479 18.6737 19.1564 18.6721 18.8519L18.6961 16.4999ZM7.82409 55.7879H22.6501C23.0347 55.7895 23.4031 55.943 23.6751 56.215C23.947 56.4869 24.1005 56.8553 24.1021 57.2399C24.1021 57.3991 24.1653 57.5517 24.2778 57.6642C24.3903 57.7767 24.543 57.8399 24.7021 57.8399H35.9521C36.1112 57.8399 36.2638 57.7767 36.3764 57.6642C36.4889 57.5517 36.5521 57.3991 36.5521 57.2399C36.5521 56.8559 36.7042 56.4875 36.9752 56.2153C37.2463 55.9432 37.614 55.7895 37.9981 55.7879H52.8241C52.9832 55.7879 53.1358 55.7247 53.2484 55.6122C53.3609 55.4997 53.4241 55.3471 53.4241 55.1879V52.7879C53.4241 52.6288 53.3609 52.4762 53.2484 52.3637C53.1358 52.2511 52.9832 52.1879 52.8241 52.1879H51.5221C51.5312 52.0901 51.5312 51.9917 51.5221 51.8939V49.9379C51.5205 49.5432 51.3634 49.165 51.0849 48.8854C50.8064 48.6057 50.4288 48.4471 50.0341 48.4439H49.6441V43.2779C49.6394 40.3458 48.4767 37.5343 46.409 35.4554C44.3413 33.3765 41.5361 32.1985 38.6041 32.1779H35.0041C34.9159 32.1778 34.8288 32.1971 34.749 32.2344C34.6691 32.2717 34.5985 32.3262 34.5421 32.3939L30.3421 37.4639L26.1421 32.3939C26.0857 32.3262 26.015 32.2717 25.9352 32.2344C25.8553 32.1971 25.7682 32.1778 25.6801 32.1779H22.0201C19.0948 32.2095 16.2997 33.3921 14.2401 35.4697C12.1805 37.5472 11.0222 40.3525 11.0161 43.2779V48.4439H10.6321C10.2374 48.4471 9.85983 48.6057 9.58129 48.8854C9.30274 49.165 9.14566 49.5432 9.14409 49.9379V51.8999C9.13494 51.9977 9.13494 52.0961 9.14409 52.1939H7.82409C7.66496 52.1939 7.51235 52.2571 7.39983 52.3697C7.2873 52.4822 7.22409 52.6348 7.22409 52.7939V55.1939C7.22567 55.352 7.28958 55.5031 7.40193 55.6143C7.51428 55.7255 7.66599 55.7879 7.82409 55.7879ZM35.2921 33.3779H37.8901L36.1681 41.2079L31.2361 38.2439L35.2921 33.3779ZM29.4121 38.2439L24.4801 41.2079L22.7581 33.3779H25.3561L29.4121 38.2439ZM12.1741 43.2779C12.1809 40.7477 13.1545 38.3157 14.8956 36.4797C16.6368 34.6438 19.0137 33.5427 21.5401 33.4019L23.4841 42.2999C23.5039 42.3935 23.5459 42.4811 23.6064 42.5552C23.6669 42.6293 23.7443 42.6878 23.8321 42.7259C23.9086 42.7562 23.9899 42.7725 24.0721 42.7739C24.1798 42.7739 24.2855 42.7449 24.3781 42.6899L30.3241 39.1019L36.2701 42.6659C36.3627 42.7209 36.4684 42.7499 36.5761 42.7499C36.6583 42.7485 36.7396 42.7322 36.8161 42.7019C36.9011 42.6662 36.9767 42.6113 37.0371 42.5416C37.0974 42.4719 37.1409 42.3892 37.1641 42.2999L39.1081 33.4259C41.6303 33.5665 44.0038 34.6642 45.7444 36.495C47.4849 38.3258 48.4612 40.7518 48.4741 43.2779V48.4439L34.1461 48.3899C33.5675 48.388 32.9942 48.501 32.4597 48.7225C31.9251 48.9439 31.4398 49.2694 31.0321 49.6799C30.7576 49.9453 30.5195 50.246 30.3241 50.5739C30.1323 50.2467 29.8983 49.9461 29.6281 49.6799C29.2204 49.2694 28.7351 48.9439 28.2005 48.7225C27.666 48.501 27.0927 48.388 26.5141 48.3899L12.1861 48.4439L12.1741 43.2779ZM10.3021 51.8999V49.9379C10.3036 49.8604 10.3351 49.7865 10.3899 49.7317C10.4447 49.6769 10.5186 49.6455 10.5961 49.6439L26.5021 49.5899C26.9249 49.5876 27.3439 49.6689 27.7351 49.8292C28.1263 49.9895 28.4819 50.2257 28.7814 50.5241C29.0809 50.8225 29.3184 51.1772 29.4802 51.5678C29.642 51.9584 29.7249 52.3772 29.7241 52.7999C29.7241 52.9591 29.7873 53.1117 29.8998 53.2242C30.0123 53.3367 30.165 53.3999 30.3241 53.3999C30.4832 53.3999 30.6358 53.3367 30.7484 53.2242C30.8609 53.1117 30.9241 52.9591 30.9241 52.7999C30.9233 52.3782 31.0058 51.9604 31.1668 51.5706C31.3279 51.1808 31.5643 50.8266 31.8625 50.5284C32.1607 50.2301 32.5149 49.9937 32.9047 49.8327C33.2946 49.6716 33.7123 49.5891 34.1341 49.5899L50.0461 49.6439C50.1236 49.6455 50.1975 49.6769 50.2523 49.7317C50.3071 49.7865 50.3386 49.8604 50.3401 49.9379V51.8999C50.3401 51.9779 50.3091 52.0527 50.254 52.1078C50.1988 52.163 50.1241 52.1939 50.0461 52.1939H35.9461C35.3948 52.1945 34.8595 52.379 34.4248 52.718C33.9901 53.0571 33.6809 53.5314 33.5461 54.0659H27.1021C26.9673 53.5314 26.6581 53.0571 26.2234 52.718C25.7887 52.379 25.2534 52.1945 24.7021 52.1939H10.5961C10.5181 52.1939 10.4433 52.163 10.3882 52.1078C10.3331 52.0527 10.3021 51.9779 10.3021 51.8999ZM8.42409 53.3999H24.7021C24.8691 53.3999 25.0345 53.4328 25.1889 53.4968C25.3432 53.5607 25.4834 53.6544 25.6015 53.7725C25.7196 53.8906 25.8133 54.0308 25.8773 54.1852C25.9412 54.3395 25.9741 54.5049 25.9741 54.6719C25.9741 54.8311 26.0373 54.9837 26.1498 55.0962C26.2623 55.2087 26.415 55.2719 26.5741 55.2719H34.0741C34.2332 55.2719 34.3858 55.2087 34.4984 55.0962C34.6109 54.9837 34.6741 54.8311 34.6741 54.6719C34.6741 54.5049 34.707 54.3395 34.7709 54.1852C34.8348 54.0308 34.9285 53.8906 35.0467 53.7725C35.1648 53.6544 35.305 53.5607 35.4593 53.4968C35.6136 53.4328 35.779 53.3999 35.9461 53.3999H52.2241V54.5999H37.9981C37.3999 54.6017 36.8197 54.8053 36.3516 55.1777C35.8834 55.55 35.5545 56.0695 35.4181 56.6519H25.2181C25.0805 56.069 24.7505 55.5494 24.2812 55.1771C23.812 54.8048 23.2311 54.6014 22.6321 54.5999H8.42409V53.3999Z" fill="#FAFCFF"/>
<path d="M44.0701 45.2999H39.0721V46.4999H44.0701V45.2999Z" fill="#FAFCFF"/>
</svg>
