<svg width="61" height="61" viewBox="0 0 61 61" fill="none" xmlns="http://www.w3.org/2000/svg">
<path d="M23.7692 35.9759C23.6369 35.8862 23.4743 35.8516 23.3166 35.8798L13.9817 37.582C13.824 37.6107 13.6843 37.7005 13.5932 37.8314C13.5022 37.9624 13.4674 38.1239 13.4963 38.2804L14.0147 41.0794C14.0402 41.2173 14.1136 41.342 14.2221 41.4319C14.3306 41.5217 14.4674 41.5709 14.6087 41.571C14.6456 41.5711 14.6823 41.5678 14.7185 41.561L24.0532 39.8595C24.1313 39.8452 24.2058 39.8159 24.2724 39.7731C24.3391 39.7303 24.3966 39.6749 24.4417 39.61C24.4867 39.5452 24.5185 39.4721 24.5351 39.3951C24.5517 39.3181 24.5529 39.2385 24.5385 39.161L24.0204 36.3614C24.0061 36.2839 23.9766 36.21 23.9335 36.1439C23.8903 36.0777 23.8345 36.0207 23.7692 35.9759ZM15.0947 40.2726L14.7947 38.6536L22.9405 37.1683L23.2401 38.7878L15.0947 40.2726Z" fill="#FAFCFF"/>
<path d="M49.68 35.2874C50.7768 33.2178 51.4806 30.9657 51.7564 28.6434L52.6443 28.4126C53.4508 28.2029 54.167 27.7394 54.6854 27.0915C55.2039 26.4436 55.4967 25.6464 55.5199 24.8194C55.5431 23.9924 55.2954 23.1803 54.814 22.5048C54.3326 21.8293 53.6435 21.327 52.8501 21.0731L52.144 20.8473C51.9911 17.4029 51.1012 12.5884 47.7436 8.9993C44.7645 5.81474 40.4002 4.19989 34.7721 4.19989C30.784 4.19989 26.167 4.45887 22.1632 6.38192C18.6855 8.05243 16.9433 11.0073 17.5037 14.2856C17.5809 14.7222 17.74 15.1406 17.9726 15.5191C17.4958 17.2578 17.2964 19.0599 17.3815 20.8599L16.7137 21.0731C15.9202 21.327 15.2311 21.8293 14.7497 22.5048C14.2683 23.1803 14.0206 23.9924 14.0438 24.8194C14.067 25.6464 14.3598 26.4436 14.8783 27.0915C15.3968 27.7394 16.113 28.2029 16.9194 28.4126L17.8118 28.6447C17.9196 29.4525 18.0715 30.2539 18.267 31.0453L6.20171 34.879C6.1261 34.903 6.05599 34.9415 5.99539 34.9924C5.9348 35.0433 5.88491 35.1055 5.84857 35.1756C5.81224 35.2456 5.79018 35.3221 5.78365 35.4006C5.77712 35.4791 5.78626 35.5581 5.81053 35.6331L8.01023 42.4504C6.76657 43.6403 5.9099 45.1722 5.55031 46.849C5.19072 48.5259 5.34464 50.2711 5.99229 51.8605C6.63993 53.4499 7.75172 54.8107 9.18477 55.7682C10.6178 56.7257 12.3067 57.2361 14.0342 57.2337L14.0543 57.2331C14.0952 57.3372 14.165 57.4276 14.2557 57.4938C14.3566 57.5629 14.4764 57.5999 14.599 57.5999C14.6356 57.5998 14.6722 57.5964 14.7082 57.5899L16.6657 57.233L16.6688 57.2336H55.51C55.5894 57.2337 55.6681 57.2182 55.7414 57.188C55.8148 57.1579 55.8814 57.1137 55.9376 57.058C55.9937 57.0022 56.0383 56.9361 56.0686 56.8633C56.099 56.7905 56.1147 56.7124 56.1146 56.6336C56.1146 42.3574 51.1656 36.6725 49.68 35.2874ZM54.2931 25.0288C54.2312 25.5518 54.0113 26.0439 53.6624 26.4406C53.3134 26.8373 52.8517 27.1199 52.3379 27.2513L51.897 27.3659C51.9286 26.9864 51.9544 26.6023 51.9706 26.2106C52.0019 25.453 52.0461 24.6964 52.1031 23.9407C52.1399 23.4509 52.1685 22.8271 52.171 22.1171L52.4793 22.2157C53.0633 22.4032 53.5636 22.7863 53.8945 23.2995C54.2254 23.8126 54.3663 24.4239 54.2931 25.0288ZM17.2259 27.2513C16.6725 27.1076 16.181 26.7896 15.8252 26.3451C15.4693 25.9006 15.2684 25.3536 15.2524 24.7861C15.2365 24.2187 15.4064 23.6614 15.7368 23.1979C16.0671 22.7345 16.54 22.3898 17.0845 22.2157L18.1927 21.8613C18.3214 21.82 18.4325 21.7372 18.5082 21.626C18.5839 21.5148 18.6199 21.3816 18.6105 21.2478C18.521 19.6907 18.6276 18.1287 18.9279 16.5978C19.4536 17.0026 20.0452 17.3151 20.677 17.5218C20.8288 17.5735 20.995 17.5632 21.1391 17.4933C21.2832 17.4233 21.3934 17.2994 21.4455 17.1489C21.4976 16.9983 21.4872 16.8333 21.4167 16.6903C21.3463 16.5473 21.2214 16.4379 21.0697 16.3863C20.2844 16.1191 18.9317 15.4646 18.6958 14.0852C18.0253 10.1613 21.2657 8.14619 22.6899 7.4624C26.474 5.64481 30.9209 5.39989 34.7721 5.39989C40.0504 5.39989 44.1165 6.88583 46.8573 9.81552C50.8458 14.0795 51.085 20.305 50.9323 23.2962H48.908V18.3737C48.908 17.8622 48.461 17.5165 47.0912 16.9874C43.5881 15.6198 39.8183 16.7495 36.4929 17.7456L35.5919 18.014C35.0977 18.1593 34.5964 18.3122 34.0898 18.4669C31.2436 19.3358 28.3023 20.2317 25.4567 20.0806C24.0198 20.0015 23.071 19.5532 22.6361 18.7475C22.5725 18.6297 22.4711 18.5362 22.3479 18.4821C22.2247 18.428 22.0868 18.4162 21.9561 18.4487C21.8254 18.4813 21.7095 18.5562 21.6266 18.6616C21.5437 18.767 21.4986 18.8968 21.4986 19.0306V23.1977H18.4466C18.3271 23.2007 18.2113 23.2396 18.1147 23.3094C18.083 23.3028 18.0509 23.299 18.0186 23.2979C17.9394 23.3038 17.8621 23.325 17.7913 23.3605C17.7204 23.396 17.6572 23.4449 17.6054 23.5046C17.5536 23.5643 17.5141 23.6335 17.4893 23.7084C17.4644 23.7832 17.4547 23.8621 17.4606 23.9407C17.5173 24.6972 17.5615 25.4538 17.5931 26.2106C17.6094 26.6028 17.6394 26.9857 17.6713 27.3671L17.2259 27.2513ZM18.8012 26.1614C18.7768 25.5731 18.7377 24.9854 18.6981 24.3978H22.1032C22.1826 24.3978 22.2613 24.3823 22.3346 24.3521C22.408 24.322 22.4747 24.2778 22.5308 24.2221C22.587 24.1664 22.6315 24.1002 22.6619 24.0274C22.6923 23.9546 22.7079 23.8766 22.7079 23.7978V20.5311C23.5219 21.0059 24.4461 21.2633 25.3902 21.2782C28.4476 21.4458 31.4978 20.5136 34.4456 19.6136C34.948 19.46 35.4449 19.3083 35.935 19.1648L36.8425 18.8946C40.1325 17.9085 43.5343 16.8884 46.6976 18.123C47.0445 18.2455 47.3796 18.3989 47.6987 18.5812V23.8962C47.6987 23.975 47.7143 24.053 47.7447 24.1258C47.7751 24.1986 47.8196 24.2648 47.8757 24.3205C47.9319 24.3762 47.9986 24.4204 48.0719 24.4506C48.1453 24.4807 48.2239 24.4962 48.3033 24.4962H50.8598C50.8232 25.0511 50.7855 25.6059 50.7625 26.1614C50.7354 26.8159 50.6859 27.4517 50.6141 28.0689L50.6111 28.0923C50.1045 32.4238 48.5054 35.8354 45.8436 38.2499C41.2159 42.4481 34.8681 42.1973 34.8019 42.1909C34.7948 42.1905 34.7888 42.194 34.7817 42.1939C34.7747 42.1941 34.7685 42.1905 34.7615 42.1909C33.1542 42.2075 31.5526 42 30.0035 41.5745L29.632 39.5678V39.5677L29.632 39.5676L28.4626 33.2513C28.4483 33.1738 28.4188 33.0998 28.3756 33.0337C28.3325 32.9675 28.2767 32.9104 28.2113 32.8657C28.146 32.821 28.0723 32.7895 27.9947 32.773C27.9171 32.7565 27.8369 32.7554 27.7588 32.7696L24.7855 33.3118L23.7004 29.9489C23.6763 29.8738 23.6375 29.8041 23.5862 29.7439C23.5349 29.6837 23.4722 29.6341 23.4016 29.598C23.3309 29.562 23.2538 29.54 23.1747 29.5336C23.0955 29.5271 23.0158 29.5363 22.9402 29.5604L19.4208 30.6787C19.0663 29.1966 18.8588 27.6836 18.8012 26.1614V26.1614ZM41.5315 47.7942L38.1363 43.1226C40.9185 42.6759 43.5473 41.5567 45.7907 39.8637C45.9102 41.4908 45.5738 44.8562 41.5315 47.7942ZM34.7932 50.817C34.1418 50.7028 33.5074 50.5083 32.9047 50.2379C32.927 49.1139 33.1948 48.0081 33.6897 46.9968H35.8897C36.3862 48.0064 36.6535 49.1119 36.6727 50.2351C36.0731 50.5062 35.4417 50.7017 34.7932 50.817V50.817ZM31.4309 49.2849L30.8265 46.0198L31.2382 45.4533C31.5447 45.9644 31.9783 46.3889 32.4974 46.686C32.0875 47.584 31.8311 48.5436 31.7386 49.5252C31.6345 49.4466 31.5291 49.3697 31.4309 49.2849L31.4309 49.2849ZM15.0843 56.3015L14.7017 54.2342C15.4769 54.1468 16.2257 53.9022 16.9016 53.5155C17.5775 53.1288 18.166 52.6084 18.6307 51.9865C19.0953 51.3646 19.4261 50.6545 19.6026 49.9004C19.779 49.1462 19.7974 48.3641 19.6564 47.6027C19.5154 46.8412 19.2182 46.1167 18.7831 45.474C18.3481 44.8314 17.7845 44.2844 17.1274 43.867C16.4703 43.4496 15.7338 43.1707 14.9636 43.0477C14.1933 42.9247 13.4058 42.9602 12.65 43.152L11.5024 36.9538L27.3827 34.0581L27.802 36.3233L25.7294 36.7013C25.5811 36.7283 25.4483 36.8094 25.3572 36.9286C25.266 37.0477 25.223 37.1964 25.2366 37.3455C25.2502 37.4945 25.3194 37.6331 25.4307 37.7341C25.542 37.8351 25.6873 37.8911 25.8381 37.8913C25.8749 37.8914 25.9117 37.8881 25.9479 37.8813L28.0205 37.5034L28.3336 39.1945L26.2611 39.5724C26.1128 39.5994 25.9801 39.6805 25.8889 39.7997C25.7977 39.9188 25.7547 40.0675 25.7683 40.2166C25.7819 40.3656 25.8512 40.5042 25.9624 40.6052C26.0737 40.7062 26.219 40.7622 26.3698 40.7624C26.4066 40.7625 26.4434 40.7592 26.4796 40.7524L28.5521 40.3745L28.8651 42.0655L26.7925 42.4434C26.6442 42.4705 26.5115 42.5516 26.4203 42.6708C26.3291 42.7899 26.2861 42.9386 26.2997 43.0877C26.3133 43.2367 26.3826 43.3753 26.4938 43.4763C26.6051 43.5772 26.7504 43.6333 26.9012 43.6335C26.938 43.6336 26.9748 43.6303 27.011 43.6235L29.0836 43.2456L29.3966 44.9366L27.3242 45.3145C27.1759 45.3416 27.0432 45.4227 26.952 45.5418C26.8608 45.661 26.8178 45.8097 26.8314 45.9587C26.845 46.1078 26.9143 46.2464 27.0255 46.3474C27.1368 46.4483 27.2821 46.5044 27.4329 46.5046C27.4697 46.5047 27.5065 46.5014 27.5427 46.4946L29.6151 46.1167L29.9281 47.8077L27.8556 48.1856C27.7073 48.2127 27.5746 48.2938 27.4834 48.4129C27.3922 48.5321 27.3492 48.6808 27.3628 48.8298C27.3764 48.9789 27.4457 49.1175 27.5569 49.2184C27.6682 49.3194 27.8135 49.3755 27.9643 49.3757C28.0011 49.3758 28.0379 49.3725 28.0741 49.3657L30.1466 48.9878L30.9646 53.4063L15.0843 56.3015ZM14.0342 44.1761C14.9212 44.176 15.7882 44.437 16.5257 44.9259C17.2632 45.4149 17.838 46.1099 18.1775 46.923C18.517 47.7362 18.6058 48.631 18.4328 49.4943C18.2598 50.3575 17.8327 51.1505 17.2056 51.7729C16.5784 52.3953 15.7794 52.8192 14.9095 52.9909C14.0396 53.1627 13.1379 53.0746 12.3185 52.7377C11.499 52.4009 10.7986 51.8305 10.3059 51.0987C9.8131 50.3669 9.55008 49.5065 9.55007 48.6263C9.55139 47.4465 10.0242 46.3153 10.8649 45.4811C11.7055 44.6468 12.8453 44.1774 14.0342 44.1761V44.1761ZM34.4613 43.3962C34.6169 43.3962 34.7246 43.3934 34.7806 43.3914C34.8413 43.3938 34.9594 43.3973 35.1308 43.3973C35.4827 43.3973 36.0589 43.3795 36.7798 43.3075L37.5407 44.3545C37.4275 44.6813 37.2438 44.9796 37.0025 45.2287C36.7612 45.4778 36.468 45.6716 36.1434 45.7968H33.4339C33.1093 45.6717 32.8161 45.4779 32.5748 45.2288C32.3335 44.9797 32.1498 44.6814 32.0366 44.3546L32.8004 43.3036C33.5337 43.3775 34.1167 43.3962 34.4613 43.3962V43.3962ZM30.5238 44.3848L30.2441 42.874C30.6651 42.9737 31.0637 43.0513 31.4452 43.1169L30.5238 44.3848ZM37.8402 49.5386C37.7487 48.5523 37.4918 47.5881 37.0799 46.686C37.5991 46.3888 38.0327 45.9643 38.3392 45.4531L39.6434 47.2477C39.2634 48.1598 38.64 48.9518 37.8402 49.5386V49.5386ZM18.9426 32.0904C18.9619 32.0945 18.9814 32.0977 19.001 32.0999C19.0562 32.1 19.1112 32.0925 19.1643 32.0776C19.2516 32.052 19.3318 32.0068 19.3987 31.9454L22.7332 30.8858L23.5867 33.5304L10.6894 35.8821C10.6113 35.8963 10.5367 35.9256 10.4701 35.9684C10.4034 36.0112 10.3459 36.0667 10.3008 36.1315C10.2557 36.1964 10.224 36.2694 10.2074 36.3465C10.1908 36.4235 10.1896 36.5031 10.204 36.5806L11.4989 43.5746C10.9402 43.8504 10.4307 44.2151 9.99067 44.6543L7.14639 35.8388L18.9426 32.0904ZM6.56982 48.6263C6.57233 46.8296 7.2328 45.0951 8.42821 43.7458L9.09822 45.8224C8.62421 46.6398 8.36434 47.5621 8.34237 48.5049C8.3204 49.4477 8.53704 50.3809 8.97247 51.2192C9.4079 52.0574 10.0482 52.7739 10.8348 53.3031C11.6214 53.8323 12.5292 54.1573 13.4751 54.2484L13.8034 56.0221C11.8663 55.9618 10.0287 55.1565 8.67888 53.7764C7.32908 52.3963 6.57279 50.5495 6.56982 48.6263ZM31.7777 54.4781C31.9354 54.4493 32.0751 54.3595 32.1661 54.2286C32.2571 54.0976 32.292 53.9361 32.263 53.7796L31.7463 50.9885C31.8455 51.0459 31.9477 51.0998 32.0503 51.1532C32.0575 51.1564 32.0636 51.1608 32.0709 51.1638C32.8933 51.5824 33.776 51.8724 34.6877 52.0236C34.7178 52.0283 34.7482 52.0308 34.7787 52.0312L34.7851 52.0323L34.7887 52.0321L34.7922 52.0323L34.7987 52.0312C34.829 52.0308 34.8593 52.0283 34.8893 52.0236C35.803 51.8728 36.6876 51.5824 37.5117 51.1627L37.5165 51.1602C38.7551 50.5389 39.7774 49.5632 40.4511 48.3592L40.9004 48.9773C40.9923 49.1037 41.1302 49.1897 41.2848 49.217C41.4395 49.2443 41.5988 49.2109 41.7291 49.1238C47.5179 45.2427 47.1225 40.3022 46.8786 38.9252C47.6959 38.1518 48.4203 37.2872 49.0373 36.3486C50.5029 37.8328 54.7663 43.2521 54.898 56.0337H49.5135V51.7241C49.5135 51.565 49.4498 51.4123 49.3364 51.2998C49.223 51.1873 49.0692 51.1241 48.9088 51.1241C48.7485 51.1241 48.5947 51.1873 48.4813 51.2998C48.3679 51.4123 48.3042 51.565 48.3042 51.7241V56.0337H23.2446L31.7777 54.4781Z" fill="#FAFCFF"/>
<path d="M40.4108 26.0114C40.5571 25.8005 40.7527 25.6281 40.981 25.509C41.2093 25.3899 41.4634 25.3276 41.7213 25.3276C41.9793 25.3276 42.2334 25.3899 42.4617 25.509C42.69 25.6281 42.8856 25.8005 43.0319 26.0114C43.0875 26.0916 43.162 26.1571 43.2489 26.2023C43.3357 26.2475 43.4324 26.2711 43.5305 26.271C43.6528 26.2712 43.7722 26.2342 43.8727 26.1649C43.9381 26.1203 43.994 26.0633 44.0372 25.9972C44.0804 25.9311 44.11 25.8571 44.1245 25.7797C44.1389 25.7022 44.1378 25.6226 44.1212 25.5456C44.1047 25.4685 44.073 25.3955 44.0279 25.3306C43.7706 24.9596 43.4261 24.6562 43.0244 24.4467C42.6226 24.2371 42.1755 24.1276 41.7217 24.1276C41.2678 24.1276 40.8207 24.2371 40.4189 24.4467C40.0172 24.6562 39.6728 24.9596 39.4154 25.3306C39.3699 25.3954 39.3377 25.4685 39.3208 25.5457C39.3039 25.623 39.3025 25.7027 39.3167 25.7805C39.3309 25.8582 39.3605 25.9324 39.4037 25.9988C39.4469 26.0652 39.5028 26.1225 39.5684 26.1673C39.634 26.2121 39.7078 26.2437 39.7857 26.2601C39.8636 26.2766 39.944 26.2776 40.0223 26.2631C40.1006 26.2486 40.1752 26.2189 40.2419 26.1757C40.3085 26.1325 40.366 26.0767 40.4108 26.0114ZM26.4164 26.271C26.5145 26.2711 26.6112 26.2475 26.698 26.2023C26.7849 26.1571 26.8594 26.0916 26.915 26.0114C27.0613 25.8005 27.2569 25.6281 27.4852 25.509C27.7135 25.3899 27.9676 25.3276 28.2255 25.3276C28.4835 25.3276 28.7376 25.3899 28.9659 25.509C29.1942 25.6281 29.3898 25.8005 29.5361 26.0114C29.627 26.1424 29.7667 26.2322 29.9244 26.261C30.0821 26.2898 30.2448 26.2552 30.3768 26.1649C30.5089 26.0746 30.5993 25.936 30.6283 25.7795C30.6573 25.6231 30.6225 25.4616 30.5315 25.3306C30.2742 24.9596 29.9297 24.6562 29.528 24.4467C29.1262 24.2371 28.6791 24.1276 28.2253 24.1276C27.7714 24.1276 27.3243 24.2371 26.9225 24.4467C26.5208 24.6562 26.1764 24.9596 25.919 25.3306C25.874 25.3955 25.8423 25.4685 25.8257 25.5456C25.8091 25.6226 25.808 25.7022 25.8225 25.7797C25.8369 25.8571 25.8665 25.9311 25.9097 25.9972C25.953 26.0633 26.0089 26.1203 26.0743 26.1649C26.1747 26.2342 26.2941 26.2712 26.4164 26.271Z" fill="#FAFCFF"/>
</svg>
