<svg width="20" height="20" viewBox="0 0 20 20" fill="none" xmlns="http://www.w3.org/2000/svg">
<path d="M10.1063 10C10.7454 10 11.3701 9.8105 11.9015 9.45544C12.4329 9.10039 12.847 8.59574 13.0916 8.0053C13.3362 7.41487 13.4001 6.76517 13.2755 6.13837C13.1508 5.51157 12.843 4.93582 12.3911 4.48392C11.9392 4.03202 11.3635 3.72427 10.7367 3.5996C10.1099 3.47492 9.46019 3.53891 8.86975 3.78347C8.27932 4.02804 7.77467 4.44219 7.41961 4.97357C7.06456 5.50495 6.87505 6.12968 6.87505 6.76876C6.87505 7.62574 7.21548 8.44762 7.82146 9.0536C8.12151 9.35365 8.47772 9.59166 8.86975 9.75404C9.26179 9.91643 9.68196 10 10.1063 10ZM10.1063 4.37501C10.5812 4.37501 11.0455 4.51593 11.4403 4.77992C11.8351 5.04391 12.1427 5.41911 12.3242 5.85802C12.5057 6.29692 12.5528 6.7798 12.4597 7.24553C12.3666 7.71125 12.1374 8.13888 11.8011 8.47427C11.4649 8.80967 11.0366 9.03775 10.5707 9.12965C10.1047 9.22155 9.62195 9.17313 9.18352 8.99052C8.74509 8.80791 8.37069 8.49932 8.10773 8.10382C7.84477 7.70833 7.70506 7.2437 7.7063 6.76876C7.70795 6.13332 7.96154 5.52448 8.41145 5.07574C8.86136 4.627 9.47086 4.37501 10.1063 4.37501ZM11.6938 10.625H8.51255C7.30466 10.6267 6.14672 11.1072 5.29262 11.9613C4.43852 12.8154 3.95795 13.9734 3.9563 15.1813V15.625C3.9563 15.7361 4.00042 15.8426 4.07895 15.9211C4.15748 15.9996 4.26399 16.0438 4.37505 16.0438H9.9313C9.97271 16.0503 10.0149 16.0503 10.0563 16.0438C10.0977 16.0498 10.1399 16.0498 10.1813 16.0438H15.8063C15.8634 16.0472 15.9205 16.0389 15.9742 16.0194C16.028 15.9998 16.0771 15.9695 16.1187 15.9303C16.1603 15.8911 16.1934 15.8438 16.216 15.7912C16.2386 15.7387 16.2502 15.6822 16.25 15.625V15.1813C16.2484 13.9734 15.7678 12.8154 14.9137 11.9613C14.0596 11.1072 12.9017 10.6267 11.6938 10.625ZM10.325 11.4563L10.8375 14.0438L10.0563 15L9.27505 14.05L9.7813 11.4625L10.325 11.4563ZM4.7938 15.2063C4.79376 14.2171 5.18456 13.268 5.88108 12.5656C6.57759 11.8632 7.52341 11.4645 8.51255 11.4563H8.9313L8.4188 14.075C8.40597 14.1352 8.40719 14.1975 8.42236 14.2571C8.43754 14.3167 8.46626 14.372 8.5063 14.4188L9.1313 15.2063H4.7563H4.7938ZM15.4188 15.2063H10.9563L11.5813 14.4188C11.6202 14.3714 11.6481 14.316 11.6632 14.2566C11.6784 14.1972 11.6803 14.1352 11.6688 14.075L11.15 11.4563H11.6688C12.6634 11.4563 13.6172 11.8513 14.3204 12.5546C15.0237 13.2579 15.4188 14.2117 15.4188 15.2063Z" fill="#FF5722"/>
</svg>
