<svg width="106" height="26" viewBox="0 0 106 26" fill="none" xmlns="http://www.w3.org/2000/svg">
<path d="M4.318 4.6H0.408V1.2H11.968V4.6H8.058V25H4.318V4.6ZM13.7788 1.2H23.9788V4.6H17.5188V10.89H22.6528V14.29H17.5188V21.6H23.9788V25H13.7788V1.2ZM29.4947 12.828L25.3807 1.2H29.3247L31.8407 8.884H31.9087L34.4927 1.2H38.0287L33.9147 12.828L38.2327 25H34.2887L31.5687 16.704H31.5007L28.7127 25H25.1767L29.4947 12.828ZM40.0092 1.2H44.7012L48.3392 15.446H48.4072V1.2H51.7392V25H47.8972L43.4092 7.626H43.3412V25H40.0092V1.2ZM59.925 25.34C58.089 25.34 56.6837 24.8187 55.709 23.776C54.7343 22.7333 54.247 21.26 54.247 19.356V6.844C54.247 4.94 54.7343 3.46667 55.709 2.424C56.6837 1.38133 58.089 0.859999 59.925 0.859999C61.761 0.859999 63.1663 1.38133 64.141 2.424C65.1157 3.46667 65.603 4.94 65.603 6.844V19.356C65.603 21.26 65.1157 22.7333 64.141 23.776C63.1663 24.8187 61.761 25.34 59.925 25.34ZM59.925 21.94C61.217 21.94 61.863 21.158 61.863 19.594V6.606C61.863 5.042 61.217 4.26 59.925 4.26C58.633 4.26 57.987 5.042 57.987 6.606V19.594C57.987 21.158 58.633 21.94 59.925 21.94ZM68.1323 1.2H73.6403C75.4989 1.2 76.8929 1.69867 77.8223 2.696C78.7516 3.69333 79.2163 5.15533 79.2163 7.082V9.428C79.2163 11.3547 78.7516 12.8167 77.8223 13.814C76.8929 14.8113 75.4989 15.31 73.6403 15.31H71.8723V25H68.1323V1.2ZM73.6403 11.91C74.2523 11.91 74.7056 11.74 75.0003 11.4C75.3176 11.06 75.4763 10.482 75.4763 9.666V6.844C75.4763 6.028 75.3176 5.45 75.0003 5.11C74.7056 4.77 74.2523 4.6 73.6403 4.6H71.8723V11.91H73.6403ZM86.6535 25.34C84.8175 25.34 83.4122 24.8187 82.4375 23.776C81.4628 22.7333 80.9755 21.26 80.9755 19.356V6.844C80.9755 4.94 81.4628 3.46667 82.4375 2.424C83.4122 1.38133 84.8175 0.859999 86.6535 0.859999C88.4895 0.859999 89.8948 1.38133 90.8695 2.424C91.8442 3.46667 92.3315 4.94 92.3315 6.844V19.356C92.3315 21.26 91.8442 22.7333 90.8695 23.776C89.8948 24.8187 88.4895 25.34 86.6535 25.34ZM86.6535 21.94C87.9455 21.94 88.5915 21.158 88.5915 19.594V6.606C88.5915 5.042 87.9455 4.26 86.6535 4.26C85.3615 4.26 84.7155 5.042 84.7155 6.606V19.594C84.7155 21.158 85.3615 21.94 86.6535 21.94ZM99.7228 25.34C97.9095 25.34 96.5381 24.83 95.6088 23.81C94.6795 22.7673 94.2148 21.2827 94.2148 19.356V17.996H97.7508V19.628C97.7508 21.1693 98.3968 21.94 99.6888 21.94C100.323 21.94 100.799 21.7587 101.117 21.396C101.457 21.0107 101.627 20.3987 101.627 19.56C101.627 18.5627 101.4 17.69 100.947 16.942C100.493 16.1713 99.6548 15.2533 98.4308 14.188C96.8895 12.828 95.8128 11.604 95.2008 10.516C94.5888 9.40533 94.2828 8.15867 94.2828 6.776C94.2828 4.89467 94.7588 3.444 95.7108 2.424C96.6628 1.38133 98.0455 0.859999 99.8588 0.859999C101.649 0.859999 102.998 1.38133 103.905 2.424C104.834 3.444 105.299 4.91733 105.299 6.844V7.83H101.763V6.606C101.763 5.79 101.604 5.20067 101.287 4.838C100.969 4.45267 100.505 4.26 99.8928 4.26C98.6461 4.26 98.0228 5.01933 98.0228 6.538C98.0228 7.39933 98.2495 8.204 98.7028 8.952C99.1788 9.7 100.029 10.6067 101.253 11.672C102.817 13.032 103.893 14.2673 104.483 15.378C105.072 16.4887 105.367 17.792 105.367 19.288C105.367 21.2373 104.879 22.7333 103.905 23.776C102.953 24.8187 101.559 25.34 99.7228 25.34Z" fill="#46454C"/>
</svg>
