<svg width="93" height="23" viewBox="0 0 93 23" fill="none" xmlns="http://www.w3.org/2000/svg">
<path d="M3.81 4H0.36V0.999999H10.56V4H7.11V22H3.81V4ZM12.1577 0.999999H21.1577V4H15.4577V9.55H19.9877V12.55H15.4577V19H21.1577V22H12.1577V0.999999ZM26.0248 11.26L22.3948 0.999999H25.8748L28.0948 7.78H28.1548L30.4348 0.999999H33.5548L29.9248 11.26L33.7348 22H30.2548L27.8548 14.68H27.7948L25.3348 22H22.2148L26.0248 11.26ZM35.3023 0.999999H39.4423L42.6523 13.57H42.7123V0.999999H45.6523V22H42.2623L38.3023 6.67H38.2423V22H35.3023V0.999999ZM52.875 22.3C51.255 22.3 50.015 21.84 49.155 20.92C48.295 20 47.865 18.7 47.865 17.02V5.98C47.865 4.3 48.295 3 49.155 2.08C50.015 1.16 51.255 0.699999 52.875 0.699999C54.495 0.699999 55.735 1.16 56.595 2.08C57.455 3 57.885 4.3 57.885 5.98V17.02C57.885 18.7 57.455 20 56.595 20.92C55.735 21.84 54.495 22.3 52.875 22.3ZM52.875 19.3C54.015 19.3 54.585 18.61 54.585 17.23V5.77C54.585 4.39 54.015 3.7 52.875 3.7C51.735 3.7 51.165 4.39 51.165 5.77V17.23C51.165 18.61 51.735 19.3 52.875 19.3ZM60.1167 0.999999H64.9767C66.6167 0.999999 67.8467 1.44 68.6667 2.32C69.4867 3.2 69.8967 4.49 69.8967 6.19V8.26C69.8967 9.96 69.4867 11.25 68.6667 12.13C67.8467 13.01 66.6167 13.45 64.9767 13.45H63.4167V22H60.1167V0.999999ZM64.9767 10.45C65.5167 10.45 65.9167 10.3 66.1767 10C66.4567 9.7 66.5967 9.19 66.5967 8.47V5.98C66.5967 5.26 66.4567 4.75 66.1767 4.45C65.9167 4.15 65.5167 4 64.9767 4H63.4167V10.45H64.9767ZM76.459 22.3C74.839 22.3 73.599 21.84 72.739 20.92C71.879 20 71.449 18.7 71.449 17.02V5.98C71.449 4.3 71.879 3 72.739 2.08C73.599 1.16 74.839 0.699999 76.459 0.699999C78.079 0.699999 79.319 1.16 80.179 2.08C81.039 3 81.469 4.3 81.469 5.98V17.02C81.469 18.7 81.039 20 80.179 20.92C79.319 21.84 78.079 22.3 76.459 22.3ZM76.459 19.3C77.599 19.3 78.169 18.61 78.169 17.23V5.77C78.169 4.39 77.599 3.7 76.459 3.7C75.319 3.7 74.749 4.39 74.749 5.77V17.23C74.749 18.61 75.319 19.3 76.459 19.3ZM87.9907 22.3C86.3907 22.3 85.1807 21.85 84.3607 20.95C83.5407 20.03 83.1307 18.72 83.1307 17.02V15.82H86.2507V17.26C86.2507 18.62 86.8207 19.3 87.9607 19.3C88.5207 19.3 88.9407 19.14 89.2207 18.82C89.5207 18.48 89.6707 17.94 89.6707 17.2C89.6707 16.32 89.4707 15.55 89.0707 14.89C88.6707 14.21 87.9307 13.4 86.8507 12.46C85.4907 11.26 84.5407 10.18 84.0007 9.22C83.4607 8.24 83.1907 7.14 83.1907 5.92C83.1907 4.26 83.6107 2.98 84.4507 2.08C85.2907 1.16 86.5107 0.699999 88.1107 0.699999C89.6907 0.699999 90.8807 1.16 91.6807 2.08C92.5007 2.98 92.9107 4.28 92.9107 5.98V6.85H89.7907V5.77C89.7907 5.05 89.6507 4.53 89.3707 4.21C89.0907 3.87 88.6807 3.7 88.1407 3.7C87.0407 3.7 86.4907 4.37 86.4907 5.71C86.4907 6.47 86.6907 7.18 87.0907 7.84C87.5107 8.5 88.2607 9.3 89.3407 10.24C90.7207 11.44 91.6707 12.53 92.1907 13.51C92.7107 14.49 92.9707 15.64 92.9707 16.96C92.9707 18.68 92.5407 20 91.6807 20.92C90.8407 21.84 89.6107 22.3 87.9907 22.3Z" fill="#46454C"/>
</svg>
