<svg width="24" height="24" viewBox="0 0 24 24" fill="none" xmlns="http://www.w3.org/2000/svg">
<path d="M21.8059 0.54248H2.19419C1.28198 0.54248 0.54248 1.28198 0.54248 2.19419V21.8059C0.54248 22.7181 1.28198 23.4576 2.19419 23.4576H21.8059C22.7181 23.4576 23.4576 22.7181 23.4576 21.8059V2.19419C23.4576 1.28198 22.7181 0.54248 21.8059 0.54248Z" stroke="white" stroke-miterlimit="10"/>
<path d="M17.7267 10.5341C17.6268 10.5449 17.5263 10.5503 17.4257 10.5504C16.8871 10.5485 16.3573 10.4129 15.8839 10.1559C15.4106 9.89888 15.0084 9.52838 14.7135 9.07764V14.1033C14.7103 14.8343 14.4907 15.5481 14.0825 16.1545C13.6742 16.7609 13.0955 17.2329 12.4194 17.5109C11.7433 17.789 11 17.8606 10.2832 17.7168C9.56644 17.573 8.9083 17.2202 8.39174 16.7029C7.87519 16.1856 7.52335 15.5269 7.3806 14.8099C7.23784 14.093 7.31056 13.3498 7.58957 12.674C7.86859 11.9983 8.34141 11.4204 8.94844 11.013C9.55546 10.6056 10.2695 10.3871 11.0006 10.3849C11.0765 10.3849 11.1524 10.3849 11.2284 10.3849V12.2102C11.1529 12.1988 11.0768 12.1916 11.0006 12.1885C10.5295 12.2323 10.0917 12.4503 9.77298 12.8C9.45427 13.1497 9.27762 13.6058 9.27762 14.0789C9.27762 14.552 9.45427 15.0081 9.77298 15.3578C10.0917 15.7074 10.5295 15.9255 11.0006 15.9693C11.5071 15.9767 11.9964 15.7856 12.3639 15.4369C12.7314 15.0882 12.9478 14.6095 12.9669 14.1033L12.9859 5.59521H14.7298C14.8098 6.35122 15.152 7.05535 15.697 7.58544C16.2419 8.11552 16.9552 8.43811 17.7132 8.49724V10.5259" fill="white"/>
</svg>
