<svg width="60" height="60" viewBox="0 0 60 60" fill="none" xmlns="http://www.w3.org/2000/svg">
<path d="M52.5586 19.4766C52.9976 19.0364 53.2441 18.4401 53.2441 17.8184C53.2441 17.1967 52.9976 16.6003 52.5586 16.1602L50.7773 14.3789C50.3372 13.9399 49.7408 13.6934 49.1191 13.6934C48.4974 13.6934 47.9011 13.9399 47.4609 14.3789L45.2812 16.5703C41.9254 13.7494 37.8523 11.9156 33.5156 11.2734V8.67188H34.7578C35.3892 8.66326 35.9922 8.40863 36.4387 7.96215C36.8852 7.51568 37.1398 6.9126 37.1484 6.28125V3.76172C37.1484 2.47266 36.0469 1.40625 34.7578 1.40625H25.2422C23.9531 1.40625 22.8516 2.47266 22.8516 3.76172V6.28125C22.8621 6.91198 23.1174 7.51392 23.5635 7.95997C24.0095 8.40603 24.6115 8.66129 25.2422 8.67188H26.4844V11.2734C15 12.9609 6.19922 22.875 6.19922 34.8047C6.19922 47.918 16.875 58.582 29.9883 58.582C43.1016 58.582 53.7773 47.918 53.7773 34.8047C53.7868 30.2668 52.4845 25.8229 50.0273 22.0078L52.5586 19.4766ZM49.1133 16.043L50.8945 17.8242L48.6563 20.0625C48.1289 19.4062 47.5781 18.7734 46.9805 18.1641L49.1133 16.043ZM25.1953 6.32812V3.75H34.8047V6.32812H25.1953ZM28.8281 8.67188H31.1719V11.0508C30.7031 11.0273 30.375 11.0273 30 11.0273C29.625 11.0273 29.2969 11.0391 28.8281 11.0508V8.67188ZM30 56.2383C18.1758 56.2383 8.56641 46.6172 8.56641 34.8047C8.56641 22.9922 18.1758 13.3594 30 13.3594C41.8242 13.3594 51.4336 22.9805 51.4336 34.8047C51.4336 46.6289 41.8242 56.2383 30 56.2383Z" fill="#FF5722"/>
<path d="M30.0001 15.7031H29.7774C19.4884 15.8203 11.1329 24.1172 10.9102 34.3828C10.8264 34.546 10.7823 34.7267 10.7813 34.9102C10.7792 35.1029 10.8276 35.2928 10.9219 35.4609C11.2735 45.5859 19.5469 53.7422 29.7188 53.8828C29.7729 53.8925 29.8279 53.8965 29.8829 53.8945C29.9301 53.8965 29.9773 53.8925 30.0235 53.8828C40.5469 53.8828 49.1016 45.3281 49.1016 34.8047C49.1016 24.2695 40.5352 15.7031 30.0001 15.7031ZM31.0548 51.5156V49.3359C31.0548 49.0251 30.9313 48.7271 30.7115 48.5073C30.4918 48.2875 30.1937 48.1641 29.8829 48.1641C29.5721 48.1641 29.274 48.2875 29.0542 48.5073C28.8345 48.7271 28.711 49.0251 28.711 49.3359V51.5039C20.4962 50.8711 13.9219 44.3086 13.3009 36.0937H15.3516C15.6624 36.0937 15.9605 35.9703 16.1803 35.7505C16.4 35.5307 16.5235 35.2327 16.5235 34.9219C16.5235 34.6111 16.4 34.313 16.1803 34.0932C15.9605 33.8735 15.6624 33.75 15.3516 33.75H13.2774C13.5354 29.72 15.2381 25.9182 18.0731 23.0423C20.908 20.1664 24.6851 18.4094 28.711 18.0937V20.2734C28.711 20.5842 28.8345 20.8823 29.0542 21.1021C29.274 21.3218 29.5721 21.4453 29.8829 21.4453C30.1937 21.4453 30.4918 21.3218 30.7115 21.1021C30.9313 20.8823 31.0548 20.5842 31.0548 20.2734V18.082C35.124 18.3445 38.9585 20.0795 41.8419 22.9629C44.7252 25.8463 46.4602 29.6808 46.7227 33.75H44.4141C44.1033 33.75 43.8053 33.8735 43.5855 34.0932C43.3657 34.313 43.2423 34.6111 43.2423 34.9219C43.2423 35.2327 43.3657 35.5307 43.5855 35.7505C43.8053 35.9703 44.1033 36.0937 44.4141 36.0937H46.6993C46.0665 44.3789 39.3751 51 31.0548 51.5156Z" fill="#FF5722"/>
<path d="M36.668 33.8672H31.1719V26.1211C31.1719 25.8103 31.0484 25.5122 30.8287 25.2925C30.6089 25.0727 30.3108 24.9492 30 24.9492C29.6892 24.9492 29.3911 25.0727 29.1714 25.2925C28.9516 25.5122 28.8281 25.8103 28.8281 26.1211V35.0508C28.8249 35.2021 28.8519 35.3525 28.9076 35.4932C28.9632 35.6338 29.0465 35.762 29.1524 35.8701C29.2583 35.9782 29.3847 36.064 29.5242 36.1225C29.6637 36.1811 29.8136 36.2111 29.9649 36.2109H36.6563C36.9671 36.2125 37.2658 36.0905 37.4866 35.8718C37.7075 35.6532 37.8325 35.3557 37.834 35.0449C37.8356 34.7341 37.7136 34.4354 37.4949 34.2146C37.2762 33.9937 36.9788 33.8687 36.668 33.8672Z" fill="#FF5722"/>
</svg>
