<svg width="36" height="35" viewBox="0 0 36 35" fill="none" xmlns="http://www.w3.org/2000/svg">
<path fill-rule="evenodd" clip-rule="evenodd" d="M16.5898 3.2062C16.5898 3.62042 16.9256 3.9562 17.3398 3.9562C17.754 3.9562 18.0898 3.62042 18.0898 3.2062V1.65002C18.0898 1.23581 17.754 0.900024 17.3398 0.900024C16.9256 0.900024 16.5898 1.23581 16.5898 1.65002V3.2062ZM23.9684 4.78315C24.2613 4.49026 24.2613 4.01538 23.9684 3.72249C23.6755 3.4296 23.2007 3.4296 22.9078 3.72249L20.9123 5.71801C20.6194 6.0109 20.6194 6.48578 20.9123 6.77867C21.2051 7.07156 21.68 7.07156 21.9729 6.77867L23.9684 4.78315ZM6.2471 8.04339C5.9017 9.01771 4.99108 9.67932 3.95772 9.70672C4.77762 10.3363 5.12545 11.4068 4.83218 12.398C5.6843 11.8128 6.80989 11.8128 7.66201 12.398C7.36875 11.4068 7.71657 10.3363 8.53647 9.70672C7.50311 9.67932 6.59249 9.01771 6.2471 8.04339ZM7.19815 6.11921C6.8988 5.1979 5.59539 5.1979 5.29604 6.11921L4.84199 7.51663C4.70812 7.92865 4.32416 8.20761 3.89093 8.20761H2.4216C1.45288 8.20761 1.0501 9.44722 1.83382 10.0166L3.02253 10.8803C3.37302 11.1349 3.51968 11.5863 3.3858 11.9983L2.93175 13.3957C2.6324 14.317 3.68688 15.0832 4.47059 14.5138L5.65931 13.6501C6.0098 13.3955 6.48439 13.3955 6.83488 13.6501L8.02359 14.5138C8.80731 15.0832 9.86179 14.317 9.56244 13.3957L9.10839 11.9983C8.97451 11.5863 9.12117 11.1349 9.47166 10.8803L10.6604 10.0166C11.4441 9.44722 11.0413 8.20761 10.0726 8.20761H8.60326C8.17003 8.20761 7.78607 7.92865 7.6522 7.51663L7.19815 6.11921ZM15.4184 9.70672C16.4518 9.67932 17.3624 9.01771 17.7078 8.04339C18.0532 9.01771 18.9638 9.67932 19.9971 9.70672C19.1772 10.3363 18.8294 11.4068 19.1227 12.398C18.2706 11.8128 17.145 11.8128 16.2929 12.398C16.5861 11.4068 16.2383 10.3363 15.4184 9.70672ZM16.7567 6.11921C17.0561 5.1979 18.3595 5.1979 18.6588 6.11921L19.1129 7.51663C19.2467 7.92865 19.6307 8.20761 20.0639 8.20761H21.5333C22.502 8.20761 22.9048 9.44722 22.121 10.0166L20.9323 10.8803C20.5818 11.1349 20.4352 11.5863 20.5691 11.9983L21.0231 13.3957C21.3225 14.317 20.268 15.0832 19.4843 14.5138L18.2956 13.6501C17.9451 13.3955 17.4705 13.3955 17.12 13.6501L15.9313 14.5138C15.1476 15.0832 14.0931 14.317 14.3924 13.3957L14.8465 11.9983C14.9804 11.5863 14.8337 11.1349 14.4832 10.8803L13.2945 10.0166C12.5108 9.44722 12.9136 8.20761 13.8823 8.20761H15.3516C15.7848 8.20761 16.1688 7.92865 16.3027 7.51663L16.7567 6.11921ZM27.6431 9.70672C28.6765 9.67932 29.5871 9.01771 29.9325 8.04339C30.2779 9.01771 31.1885 9.67932 32.2219 9.70672C31.402 10.3363 31.0541 11.4068 31.3474 12.398C30.4953 11.8128 29.3697 11.8128 28.5176 12.398C28.8108 11.4068 28.463 10.3363 27.6431 9.70672ZM28.9814 6.11921C29.2808 5.1979 30.5842 5.1979 30.8835 6.11921L31.3376 7.51663C31.4715 7.92865 31.8554 8.20761 32.2887 8.20761H33.758C34.7267 8.20761 35.1295 9.44722 34.3458 10.0166L33.1571 10.8803C32.8066 11.1349 32.6599 11.5863 32.7938 11.9983L33.2478 13.3957C33.5472 14.317 32.4927 15.0832 31.709 14.5138L30.5203 13.6501C30.1698 13.3955 29.6952 13.3955 29.3447 13.6501L28.156 14.5138C27.3723 15.0832 26.3178 14.317 26.6171 13.3957L27.0712 11.9983C27.2051 11.5863 27.0584 11.1349 26.7079 10.8803L25.5192 10.0166C24.7355 9.44722 25.1383 8.20761 26.107 8.20761H27.5763C28.0096 8.20761 28.3935 7.92865 28.5274 7.51663L28.9814 6.11921ZM7.42125 22.6753C7.42125 23.7457 6.55349 24.6135 5.48305 24.6135C4.41261 24.6135 3.54485 23.7457 3.54485 22.6753C3.54485 21.6049 4.41261 20.7371 5.48305 20.7371C6.55349 20.7371 7.42125 21.6049 7.42125 22.6753ZM8.92125 22.6753C8.92125 23.8716 8.3103 24.9252 7.3834 25.541C7.66249 25.6126 7.93679 25.704 8.20417 25.8147C8.94576 26.1219 9.61958 26.5721 10.1872 27.1397C10.6397 27.5922 11.0176 28.1123 11.3079 28.6803C11.5303 28.3021 11.7731 27.9432 12.035 27.6065C12.78 26.6487 13.6644 25.8889 14.6377 25.3706C15.0115 25.1715 15.3955 25.0096 15.7866 24.8856C14.432 24.188 13.5055 22.7758 13.5055 21.1472C13.5055 18.8264 15.3869 16.945 17.7078 16.945C20.0286 16.945 21.91 18.8264 21.91 21.1472C21.91 22.7758 20.9836 24.188 19.629 24.8856C20.02 25.0096 20.4041 25.1715 20.7778 25.3706C21.7512 25.8889 22.6356 26.6487 23.3805 27.6065C23.6424 27.9432 23.8853 28.3021 24.1076 28.6803C24.3979 28.1123 24.7759 27.5922 25.2284 27.1397C25.796 26.5721 26.4698 26.1219 27.2114 25.8147C27.3145 25.772 27.4186 25.7322 27.5236 25.6953C26.4551 25.1121 25.7302 23.9784 25.7302 22.6753C25.7302 20.7764 27.2696 19.2371 29.1684 19.2371C31.0673 19.2371 32.6066 20.7764 32.6066 22.6753C32.6066 23.8716 31.9957 24.9252 31.0688 25.541C31.3479 25.6126 31.6222 25.704 31.8896 25.8147C32.6311 26.1219 33.305 26.5721 33.8726 27.1397C34.4401 27.7073 34.8904 28.3811 35.1975 29.1227C35.2487 29.2462 35.2957 29.3711 35.3385 29.4973C35.6935 30.5433 34.7674 31.4618 33.6628 31.4618H29.5505H25.4381C25.3814 31.4618 25.3251 31.4594 25.2695 31.4547C25.4003 31.9292 25.5037 32.4149 25.5792 32.9076C25.7463 33.9995 24.8348 34.9 23.7302 34.9H17.7078H11.6853C10.5807 34.9 9.6692 33.9995 9.83638 32.9076C9.91183 32.4149 10.0153 31.9292 10.1461 31.4547C10.0904 31.4594 10.0342 31.4618 9.97743 31.4618H5.86507H1.75271C0.648143 31.4618 -0.277997 30.5433 0.0770119 29.4973C0.119845 29.3711 0.166851 29.2462 0.217988 29.1227C0.525163 28.3811 0.975396 27.7073 1.54298 27.1397C2.11057 26.5721 2.78439 26.1219 3.52597 25.8147C3.62908 25.772 3.7332 25.7322 3.83824 25.6953C2.76973 25.1121 2.04485 23.9784 2.04485 22.6753C2.04485 20.7764 3.58418 19.2371 5.48305 19.2371C7.38192 19.2371 8.92125 20.7764 8.92125 22.6753ZM10.2055 29.9014C10.1807 29.8326 10.1544 29.7644 10.1263 29.6967C9.89454 29.1372 9.5548 28.6287 9.1265 28.2004C8.6982 27.7721 8.18974 27.4324 7.63015 27.2006C7.07055 26.9688 6.47078 26.8495 5.86507 26.8495C5.25937 26.8495 4.6596 26.9688 4.1 27.2006C3.5404 27.4324 3.03194 27.7721 2.60364 28.2004C2.17534 28.6287 1.8356 29.1372 1.60381 29.6967C1.57579 29.7644 1.54941 29.8326 1.52469 29.9014C1.53734 29.9093 1.5527 29.9175 1.57102 29.9255C1.62156 29.9474 1.68387 29.9618 1.75271 29.9618H5.86507H9.97743C10.0463 29.9618 10.1086 29.9473 10.1591 29.9255C10.1774 29.9175 10.1928 29.9093 10.2055 29.9014ZM33.8117 29.6967C33.8398 29.7644 33.8661 29.8326 33.8908 29.9014C33.8782 29.9093 33.8628 29.9175 33.8445 29.9255C33.794 29.9473 33.7317 29.9618 33.6628 29.9618H29.5505H25.4381C25.3693 29.9618 25.307 29.9474 25.2564 29.9255C25.2381 29.9175 25.2227 29.9093 25.2101 29.9014C25.2348 29.8326 25.2612 29.7644 25.2892 29.6967C25.521 29.1372 25.8607 28.6287 26.289 28.2004C26.7173 27.7721 27.2258 27.4324 27.7854 27.2006C28.345 26.9688 28.9448 26.8495 29.5505 26.8495C30.1562 26.8495 30.7559 26.9688 31.3155 27.2006C31.8751 27.4324 32.3836 27.7721 32.8119 28.2004C33.2402 28.6287 33.5799 29.1372 33.8117 29.6967ZM24.0964 33.1347C24.0059 32.5437 23.8703 31.9668 23.6918 31.4128C23.3379 30.3141 22.8253 29.3358 22.1965 28.5274C21.568 27.7193 20.8419 27.1041 20.0728 26.6945C19.306 26.2862 18.5038 26.0854 17.7078 26.0854C16.9118 26.0854 16.1096 26.2862 15.3428 26.6945C14.5736 27.1041 13.8476 27.7193 13.2191 28.5274C12.5903 29.3358 12.0777 30.3141 11.7237 31.4128C11.5452 31.9668 11.4096 32.5437 11.3191 33.1347C11.3136 33.1707 11.3179 33.1916 11.3226 33.2059C11.3283 33.2228 11.341 33.2483 11.3691 33.2778C11.4287 33.3402 11.5395 33.4 11.6853 33.4H17.7078H23.7302C23.876 33.4 23.9868 33.3402 24.0464 33.2778C24.0745 33.2483 24.0872 33.2228 24.0929 33.2059C24.0976 33.1916 24.102 33.1707 24.0964 33.1347ZM31.1066 22.6753C31.1066 23.7457 30.2389 24.6135 29.1684 24.6135C28.098 24.6135 27.2302 23.7457 27.2302 22.6753C27.2302 21.6049 28.098 20.7371 29.1684 20.7371C30.2389 20.7371 31.1066 21.6049 31.1066 22.6753ZM17.7078 23.8495C19.2002 23.8495 20.41 22.6396 20.41 21.1472C20.41 19.6548 19.2002 18.445 17.7078 18.445C16.2154 18.445 15.0055 19.6548 15.0055 21.1472C15.0055 22.6396 16.2154 23.8495 17.7078 23.8495ZM14.5033 6.77867C14.2104 7.07156 13.7355 7.07156 13.4426 6.77867L11.4471 4.78315C11.1542 4.49026 11.1542 4.01538 11.4471 3.72249C11.74 3.4296 12.2149 3.4296 12.5078 3.72249L14.5033 5.71801C14.7962 6.0109 14.7962 6.48578 14.5033 6.77867Z" fill="#FF5722"/>
</svg>
