<svg width="33" height="33" viewBox="0 0 33 33" fill="none" xmlns="http://www.w3.org/2000/svg">
<path d="M17.088 31.356L17.088 19.0068L19.7947 21.7136L20.6863 20.8221L16.4575 16.5932L12.2286 20.8221L13.1202 21.7136L15.8269 19.0068L15.827 31.356L17.088 31.356Z" fill="#D7D7D7"/>
<path d="M26.543 11.6753C26.5736 10.7216 26.2432 9.79156 25.6179 9.07093C24.9925 8.3503 24.1182 7.8922 23.1698 7.7882C22.7546 5.986 21.7395 4.37833 20.2908 3.22874C18.8421 2.07915 17.0458 1.45586 15.1964 1.46105C10.6769 1.46105 6.99977 5.13817 6.99977 9.65766C6.99977 9.89977 7.01238 10.1463 7.0376 10.4017C3.78544 10.9855 1.3252 13.8625 1.3252 17.2238C1.3252 21.0478 4.43675 24.1594 8.26079 24.1594H13.3049V22.8983H8.26079C5.13158 22.8983 2.58621 20.3523 2.58621 17.2238C2.58621 14.2913 4.87559 11.809 7.79863 11.5731L8.48651 11.5177L8.36924 10.838C8.29968 10.4483 8.2634 10.0535 8.26079 9.65766C8.26079 5.83362 11.3723 2.72206 15.1964 2.72206C18.5967 2.72206 21.4699 5.15709 22.0286 8.51139L22.12 9.06056L22.6761 9.03787C22.7053 9.03828 22.7343 9.03467 22.7625 9.02715C24.1534 9.02715 25.2845 10.1583 25.2845 11.5492C25.2845 11.7207 25.2656 11.8979 25.2271 12.0757L25.079 12.7667L25.782 12.8354C27.0293 12.954 28.1873 13.5346 29.0285 14.4632C29.8697 15.3918 30.3334 16.6013 30.3286 17.8543C30.3286 20.6354 28.0657 22.8983 25.2845 22.8983H19.6099V24.1594H25.2845C28.7611 24.1594 31.5896 21.3309 31.5896 17.8543C31.595 16.399 31.0947 14.9871 30.1741 13.86C29.2536 12.7329 27.97 11.9606 26.543 11.6753Z" fill="#D7D7D7"/>
</svg>
