<svg width="32" height="43" viewBox="0 0 32 43" fill="none" xmlns="http://www.w3.org/2000/svg">
<path d="M11.25 24.3L13.05 18.55L8.3 14.85H14.1L16 8.90002L17.85 14.85H23.7L18.95 18.55L20.7 24.3L16 20.75L11.25 24.3ZM4.2 42.9V27.7C2.7 26.1334 1.625 24.4167 0.975 22.55C0.325 20.6834 0 18.8 0 16.9C0 12.3667 1.53333 8.56669 4.6 5.50002C7.66667 2.43336 11.4667 0.900024 16 0.900024C20.5333 0.900024 24.3333 2.43336 27.4 5.50002C30.4667 8.56669 32 12.3667 32 16.9C32 18.8 31.675 20.6834 31.025 22.55C30.375 24.4167 29.3 26.1334 27.8 27.7V42.9L16 38.95L4.2 42.9ZM16 29.9C19.6333 29.9 22.7083 28.6417 25.225 26.125C27.7417 23.6084 29 20.5334 29 16.9C29 13.2667 27.7417 10.1917 25.225 7.67502C22.7083 5.15836 19.6333 3.90002 16 3.90002C12.3667 3.90002 9.29167 5.15836 6.775 7.67502C4.25833 10.1917 3 13.2667 3 16.9C3 20.5334 4.25833 23.6084 6.775 26.125C9.29167 28.6417 12.3667 29.9 16 29.9ZM7.2 38.7L16 35.95L24.8 38.7V30.15C23.4667 31.1167 22.0333 31.8167 20.5 32.25C18.9667 32.6834 17.4667 32.9 16 32.9C14.5333 32.9 13.0333 32.6834 11.5 32.25C9.96667 31.8167 8.53333 31.1167 7.2 30.15V38.7Z" fill="white"/>
</svg>
