<svg width="34" height="35" viewBox="0 0 34 35" fill="none" xmlns="http://www.w3.org/2000/svg">
<g clip-path="url(#clip0_86_11)">
<path d="M21.692 34.5406C20.675 34.4912 19.6705 34.2949 18.7097 33.9577C18.004 33.706 17.2699 33.5429 16.524 33.472C15.8111 33.5092 15.1044 33.6232 14.416 33.812C12.9783 34.1617 11.3366 34.56 9.80172 33.8703C8.26686 33.1806 7.48 31.6943 6.8 30.3829C6.49697 29.7361 6.11523 29.1292 5.66343 28.576C5.12926 28.0621 4.5319 27.6181 3.88572 27.2549C2.64229 26.4875 1.24343 25.6132 0.670287 24.1075C0.097144 22.6017 0.524573 21.0086 0.97143 19.6195C1.21412 18.9061 1.36748 18.1654 1.428 17.4143C1.40122 16.7004 1.28704 15.9924 1.088 15.3063C0.738287 13.8686 0.340001 12.2366 1.02972 10.692C1.82265 9.3309 3.05128 8.27681 4.51714 7.70003C5.16443 7.39396 5.77133 7.00894 6.324 6.55374C6.83484 6.02049 7.27851 5.42675 7.64514 4.78574C8.41257 3.49374 9.28686 2.09488 10.8023 1.52174C12.3177 0.948599 13.8914 1.4246 15.2903 1.87146C15.9957 2.12415 16.73 2.28733 17.476 2.35717C18.1898 2.32184 18.8971 2.20449 19.584 2.00746C21.0217 1.66746 22.6634 1.26917 24.1983 1.95888C25.5581 2.74275 26.6152 3.96064 27.2 5.41717C27.503 6.06395 27.8848 6.67083 28.3366 7.22403C28.8828 7.74068 29.4933 8.18473 30.1531 8.54517C31.3966 9.3126 32.7954 10.1869 33.3686 11.6926C33.9417 13.1983 33.4657 14.7915 33.048 16.1903C32.7963 16.896 32.6331 17.6302 32.5623 18.376C32.5891 19.0899 32.7033 19.7979 32.9023 20.484C33.252 21.9217 33.6503 23.5537 32.9606 25.0983C32.2709 26.6332 30.7846 27.42 29.4731 28.1097C28.8247 28.4152 28.2149 28.7967 27.6566 29.2463C27.1466 29.7958 26.7061 30.4059 26.3451 31.0629C25.5777 32.3063 24.7034 33.7052 23.1977 34.2783C22.7163 34.458 22.2058 34.547 21.692 34.5406ZM16.4366 31.0143H16.592C17.5525 31.0846 18.4996 31.2806 19.4091 31.5972C20.3286 32.0088 21.348 32.1438 22.3429 31.9857C23.0811 31.7137 23.664 30.7617 24.2857 29.7612C24.7592 28.9241 25.337 28.1505 26.0051 27.4589C26.718 26.8563 27.5047 26.3471 28.3463 25.9435C29.3197 25.5801 30.1598 24.9297 30.7554 24.0783C30.9983 23.0676 30.9271 22.0069 30.5514 21.0377C30.2881 20.1506 30.1412 19.233 30.1143 18.308C30.1846 17.3475 30.3806 16.4004 30.6971 15.4909C31.1088 14.5715 31.2438 13.5521 31.0857 12.5572C30.804 11.8189 29.8617 11.236 28.8611 10.6143C28.0241 10.1408 27.2505 9.56304 26.5589 8.89488C25.9631 8.18095 25.4604 7.39428 25.0629 6.55374C24.6963 5.5821 24.0466 4.74285 23.1977 4.1446C22.1877 3.90234 21.1281 3.97005 20.1571 4.33888C19.2668 4.61833 18.341 4.76881 17.408 4.78574C16.4399 4.70593 15.4863 4.5002 14.5714 4.17374C13.6556 3.77304 12.6429 3.64813 11.6571 3.81431C10.9189 4.09603 10.336 5.03831 9.71429 6.03888C9.23939 6.86909 8.66169 7.6361 7.99486 8.32174C7.28202 8.92428 6.4953 9.43352 5.65372 9.83717C4.68208 10.2037 3.84282 10.8535 3.24457 11.7023C3.00232 12.7123 3.07002 13.7719 3.43886 14.7429C3.71293 15.6345 3.86329 16.5595 3.88572 17.492C3.80591 18.4601 3.60017 19.4137 3.27372 20.3286C2.87301 21.2444 2.7481 22.2572 2.91429 23.2429C3.196 23.9812 4.13829 24.564 5.13886 25.1857C5.97588 25.6593 6.74948 26.237 7.44114 26.9052C8.03687 27.6191 8.53955 28.4058 8.93714 29.2463C9.3037 30.218 9.95344 31.0572 10.8023 31.6555C11.8134 31.8934 12.8726 31.8223 13.8429 31.4515C14.6872 31.2043 15.5578 31.0576 16.4366 31.0143Z" fill="#FF5722"/>
<path d="M15.1543 22.5337C14.998 22.5356 14.8428 22.5065 14.6977 22.4482C14.5527 22.3898 14.4206 22.3034 14.3091 22.1937L10.812 18.7646C10.6985 18.6536 10.6079 18.5214 10.5455 18.3754C10.4831 18.2294 10.45 18.0725 10.4482 17.9138C10.4464 17.755 10.4759 17.5974 10.535 17.4501C10.5941 17.3027 10.6816 17.1684 10.7926 17.0549C10.9036 16.9413 11.0358 16.8508 11.1818 16.7884C11.3278 16.7259 11.4846 16.6929 11.6434 16.6911C11.8022 16.6893 11.9597 16.7188 12.1071 16.7778C12.2545 16.8369 12.3888 16.9245 12.5023 17.0355L15.164 19.6389L21.5074 13.5966C21.6209 13.4774 21.7575 13.3826 21.9087 13.3178C22.06 13.2531 22.2228 13.2197 22.3874 13.2198C22.552 13.2199 22.7148 13.2534 22.866 13.3184C23.0172 13.3833 23.1536 13.4783 23.2669 13.5976C23.3803 13.7169 23.4682 13.858 23.5254 14.0123C23.5825 14.1666 23.6077 14.3309 23.5994 14.4953C23.5912 14.6596 23.5495 14.8206 23.4771 14.9683C23.4047 15.1161 23.3031 15.2476 23.1783 15.3549L15.9897 22.1549C15.8823 22.27 15.7532 22.3627 15.6098 22.4277C15.4664 22.4927 15.3116 22.5287 15.1543 22.5337Z" fill="#FF5722"/>
</g>
<defs>
<clipPath id="clip0_86_11">
<rect width="34" height="34" fill="white" transform="translate(0 0.900024)"/>
</clipPath>
</defs>
</svg>
