<svg width="24" height="24" viewBox="0 0 24 24" fill="none" xmlns="http://www.w3.org/2000/svg">
<path d="M20.8359 3.67026C18.1969 3.49683 13.9031 3.33276 12 3.33276C10.0969 3.33276 5.79844 3.49683 3.16406 3.67026C1.54688 3.77339 0.28125 5.12808 0.28125 6.74526V17.2546C0.28125 18.8718 1.54688 20.2265 3.16406 20.3296C5.80312 20.5031 10.0969 20.6671 12 20.6671C13.9031 20.6671 18.2016 20.5031 20.8359 20.3296C22.4531 20.2218 23.7188 18.8718 23.7188 17.2546V6.74526C23.7188 5.12808 22.4531 3.77339 20.8359 3.67026ZM22.7812 17.2546C22.7812 18.3796 21.9 19.3218 20.775 19.3968C18.1547 19.5703 13.8891 19.7296 12 19.7296C10.1109 19.7296 5.84531 19.5656 3.225 19.3968C2.1 19.3218 1.21875 18.3843 1.21875 17.2546V6.74526C1.21875 5.62026 2.1 4.67808 3.225 4.60308C5.84531 4.42964 10.1109 4.27026 12 4.27026C13.8891 4.27026 18.1547 4.43433 20.775 4.60308C21.9 4.67808 22.7812 5.61558 22.7812 6.74526V17.2546Z" fill="white"/>
<path d="M16.2796 11.5922L10.1765 8.06719C10.0312 7.98281 9.85308 7.98281 9.70776 8.06719C9.56245 8.15156 9.47339 8.30625 9.47339 8.475V15.525C9.47339 15.6938 9.56245 15.8484 9.70776 15.9328C9.77808 15.975 9.86245 15.9938 9.94214 15.9938C10.0218 15.9938 10.1062 15.975 10.1765 15.9328L16.2796 12.4078C16.425 12.3234 16.514 12.1687 16.514 12C16.514 11.8312 16.425 11.6766 16.2796 11.5922ZM10.4109 14.7141V9.28594L15.1078 12L10.4109 14.7141Z" fill="white"/>
</svg>
