<svg width="650" height="650" viewBox="0 0 650 650" fill="none" xmlns="http://www.w3.org/2000/svg">
<path d="M107.807 497.807C140.267 567.151 216.482 599.058 290.407 563.755C330.844 544.484 362.199 504.52 403.268 486.434C449.392 466.057 500.808 449.866 537.217 407.533C575.996 362.436 591.95 294.988 579.55 237.175C564.386 166.804 501.361 150.456 448.05 121.865C229.356 4.65978 -13.3476 89.2467 91.616 417.722C100.383 445.207 97.0655 474.824 107.807 497.807Z" fill="#00BC7D"/>
<path d="M107.807 497.807C140.267 567.151 216.482 599.058 290.407 563.755C330.844 544.484 362.199 504.52 403.268 486.434C449.392 466.057 500.808 449.866 537.217 407.533C575.996 362.436 591.95 294.988 579.55 237.175C564.386 166.804 501.361 150.456 448.05 121.865C229.356 4.65978 -13.3476 89.2467 91.616 417.722C100.383 445.207 97.0655 474.824 107.807 497.807Z" fill="white" fill-opacity="0.9"/>
<path d="M487.461 195.079L455.158 199.66L445.917 227.382L455.158 236.622L482.88 227.382L487.461 195.079Z" fill="#F7F7F7"/>
<path d="M448.208 234.332C446.944 233.068 446.944 231.015 448.208 229.751L462.029 215.93C463.293 214.666 465.346 214.666 466.61 215.93C467.873 217.193 467.873 219.247 466.61 220.51L452.788 234.332C451.525 235.595 449.471 235.595 448.208 234.332Z" fill="#D3D3D3"/>
<path d="M471.27 220.51C468.743 223.038 464.557 223.038 462.029 220.51C459.502 217.983 459.502 213.797 462.029 211.27C464.557 208.742 468.743 208.742 471.27 211.27C473.797 213.797 473.797 217.904 471.27 220.51Z" fill="#D3D3D3"/>
<path d="M427.436 236.622V241.203L441.257 255.024H445.838L455.079 236.543L445.838 227.303L427.436 236.622Z" fill="#FFBE55"/>
<path d="M394.581 201.397L397.424 206.61L415.905 211.191L420.17 206.61L416.379 192.473L418.353 182.916L405.559 180.31L403.584 189.866L394.581 201.397Z" fill="#0E538C"/>
<path d="M405.559 180.31L418.353 182.916L420.96 170.122L408.797 164.277L405.559 180.31Z" fill="#2A94F4"/>
<path d="M386.288 306.361C379.259 304.939 374.678 297.989 376.1 290.96L394.581 201.397L420.17 206.689L401.768 296.173C400.267 303.281 393.396 307.783 386.288 306.361Z" fill="#0B4870"/>
<path d="M427.436 236.622L445.917 255.103L399.793 301.227C394.66 306.361 386.446 306.361 381.312 301.227C376.178 296.094 376.178 287.88 381.312 282.746L427.436 236.622Z" fill="#FFBE55"/>
<path d="M450.182 265.213L467.874 260.869L474.192 286.221L456.5 290.565L450.182 265.213Z" fill="#0E538C"/>
<path d="M524.818 260.158L498.518 250.68C494.016 249.101 489.119 248.785 484.538 249.97C480.905 250.838 477.509 252.576 474.666 255.024L467.874 260.79L474.113 286.142L482.801 288.117C486.434 288.906 490.304 288.906 493.937 287.959C498.597 286.774 502.782 284.326 506.021 280.772L524.818 260.158Z" fill="#F7F7F7"/>
<path d="M515.735 270.109L505.231 263.475C498.755 259.526 490.62 259.605 484.222 263.712C482.722 264.66 482.248 266.713 483.196 268.214C483.354 268.451 483.512 268.609 483.67 268.767C484.775 269.872 486.434 270.03 487.698 269.241C491.962 266.476 497.412 266.397 501.756 269.083L511.233 275.085L515.735 270.109Z" fill="#D3D3D3"/>
<path d="M451.998 264.739L458.317 290.091L391.737 306.598C384.708 308.335 377.679 304.07 375.941 297.041C374.204 290.012 378.469 282.983 385.498 281.245L451.998 264.739Z" fill="#2A94F4"/>
<path d="M256.841 226.118L221.695 246.179L186.549 226.118L221.695 206.136L256.841 226.118Z" fill="#FFBE55"/>
<path d="M221.695 246.179L199.897 233.7L186.549 241.282L221.695 261.343L256.841 241.282L243.493 233.7L221.695 246.179Z" fill="#2A94F4"/>
<path d="M221.695 261.343L199.897 248.864L186.549 256.446L221.695 276.507L256.841 256.446L243.493 248.864L221.695 261.343Z" fill="#0E538C"/>
<path d="M353.196 411.166H267.582C263.554 411.166 260.316 407.928 260.316 403.9C260.316 399.872 263.554 396.634 267.582 396.634H353.196C357.224 396.634 360.462 399.872 360.462 403.9C360.462 408.007 357.224 411.166 353.196 411.166Z" fill="#D3D3D3"/>
<path d="M292.624 495.17V502.436H366.312V495.17H292.624Z" fill="#0E538C"/>
<path d="M299.49 500.966C300.122 504.757 297.594 508.311 293.803 508.943C290.012 509.575 286.458 507.047 285.826 503.256C285.194 499.465 287.722 495.911 291.513 495.279C295.304 494.648 298.858 497.175 299.49 500.966Z" fill="#0E538C"/>
<path d="M332.74 406.428H325.474V498.123H332.74V406.428Z" fill="#0E538C"/>
<path d="M373.177 500.966C373.809 504.757 371.282 508.311 367.491 508.943C363.7 509.575 360.146 507.047 359.514 503.256C358.882 499.465 361.409 495.911 365.2 495.279C368.991 494.648 372.545 497.175 373.177 500.966Z" fill="#0E538C"/>
<path d="M375.705 411.166H294.751C289.222 411.166 285.273 405.796 286.853 400.346L325.474 267.187C326.501 263.633 329.739 261.185 333.372 261.185H414.247C419.775 261.185 423.724 266.555 422.145 272.005L383.603 405.164C382.576 408.718 379.338 411.166 375.705 411.166Z" fill="#D3D3D3"/>
<path d="M364.569 411.166H294.119C288.59 411.166 284.642 405.796 286.221 400.346L324.842 267.187C325.869 263.633 329.107 261.185 332.74 261.185H403.19C408.718 261.185 412.667 266.555 411.087 272.005L372.467 405.164C371.44 408.718 368.202 411.166 364.569 411.166Z" fill="#F2F2F2"/>
<path d="M375.626 411.166H290.012C285.984 411.166 282.746 407.928 282.746 403.9C282.746 399.872 285.984 396.634 290.012 396.634H375.626C379.654 396.634 382.892 399.872 382.892 403.9C382.892 408.007 379.654 411.166 375.626 411.166Z" fill="#D3D3D3"/>
<path d="M306.361 298.147L288.827 348.615L292.934 358.566L316.549 354.064L323.262 300.043L306.361 298.147Z" fill="#FFE3CA"/>
<path d="M316.944 273.584C316.944 273.584 303.123 281.403 300.042 307.309L318.366 318.208L316.944 273.584Z" fill="#2A94F4"/>
<path d="M340.638 263.633L316.944 273.584L298.305 356.671L360.777 381.312L394.028 286.537C394.028 286.537 388.578 266.713 357.381 261.738L340.638 263.633Z" fill="#2A94F4"/>
<path d="M403.742 361.251C403.663 360.146 403.031 353.59 402.794 352.564L392.527 286.695C390.553 277.691 380.364 273.111 372.308 277.612C366.385 280.93 363.7 288.038 365.99 294.356L378.232 350.905L403.742 361.251Z" fill="#FFE3CA"/>
<path d="M389.763 347.114L320.103 341.665L316.628 354.064L383.681 376.731C394.028 380.207 404.532 372.072 403.742 361.252C403.189 353.748 397.266 347.746 389.763 347.114Z" fill="#FFE3CA"/>
<path d="M385.498 275.559C385.498 275.559 394.423 279.429 398.214 302.412L366.859 312.047C366.859 312.047 346.324 289.064 368.281 273.742L385.498 275.559Z" fill="#2A94F4"/>
<path d="M298.226 354.775C300.753 361.646 313.706 361.883 320.498 359.356C327.369 356.829 334.399 352.88 331.792 346.009C329.265 339.137 317.813 335.109 310.389 336.768C301.306 338.9 295.62 347.983 298.226 354.775Z" fill="#FFE3CA"/>
<path d="M336.136 364.095L286.379 357.697L287.09 352.09L336.847 358.487C338.426 358.724 339.453 360.067 339.295 361.646C339.058 363.226 337.637 364.332 336.136 364.095Z" fill="#FFBE55"/>
<path d="M292.934 358.566L227.065 350.115C223.274 349.642 220.273 346.64 219.72 342.849L212.77 295.067C212.138 290.802 215.771 287.169 219.957 287.722L280.455 295.462C282.983 295.778 284.957 297.752 285.273 300.279L292.934 358.566Z" fill="#FFBE55"/>
<path d="M256.367 325.711C255.893 329.186 252.813 331.555 249.338 331.16C245.863 330.687 243.493 327.606 243.888 324.131C244.362 320.656 247.442 318.287 250.917 318.682C254.392 319.156 256.841 322.315 256.367 325.711Z" fill="white"/>
<path d="M214.192 484.775L197.053 491.883L186.233 492.673C181.257 493.068 177.15 496.622 176.045 501.519L175.571 503.809L234.173 511.154L235.358 487.539L214.192 484.775Z" fill="#FFBE55"/>
<path d="M235.437 487.539L241.203 461.792L219.957 458.949L214.192 484.775L235.437 487.539Z" fill="#FFE3CA"/>
<path d="M360.699 381.312C360.699 381.312 359.04 395.529 333.53 397.424H272.242L243.335 478.062L212.928 473.165L243.335 354.775L312.995 362.515L360.699 381.312Z" fill="#0B4870"/>
<path d="M165.067 438.493L146.744 435.808L137.029 430.911C132.606 428.7 127.157 429.648 123.761 433.281L122.181 435.018L168.7 471.428L181.811 451.762L165.067 438.493Z" fill="#FFBE55"/>
<path d="M181.968 451.762L197.922 431.464L181.179 418.038L165.067 438.493L181.968 451.762Z" fill="#FFE3CA"/>
<path d="M298.305 356.671L251.075 342.533C249.101 341.902 247.126 341.27 245.231 340.48C241.124 338.9 230.857 336.768 222.88 348.931C212.612 364.569 171.701 423.645 171.701 423.645L196.659 442.047L251.154 372.546C255.735 366.227 263.08 362.515 270.82 362.515L312.995 362.436L298.305 356.671Z" fill="#0B4870"/>
<path d="M359.04 237.728C359.909 236.148 374.52 210.085 361.094 203.53C361.094 203.53 359.356 189.787 343.955 191.288C328.554 192.789 332.74 197.29 322.947 195.079C313.153 192.868 303.913 197.922 304.623 206.057C305.334 214.271 311.653 217.746 322.947 215.772C334.241 213.797 343.165 215.298 343.165 215.298L352.564 218.062L359.04 237.728Z" fill="#FFBE55"/>
<path d="M360.935 265.923L359.751 232.831L336.768 240.966L338.584 267.503C338.979 273.663 342.454 278.481 348.614 278.007L350.51 277.849C356.67 277.454 361.33 272.163 360.935 265.923Z" fill="#FFE3CA"/>
<path d="M357.776 237.412C357.776 237.412 362.12 265.055 338.505 266.634L337.479 253.524L357.776 237.412Z" fill="#FCD2B1"/>
<path d="M338.269 260.474H339.058C350.826 259.921 359.909 249.97 359.356 238.202L358.25 214.192C358.092 211.112 355.486 208.821 352.485 208.9L324.447 210.243C318.998 210.48 314.812 215.14 315.049 220.589L315.996 240.334C316.549 251.944 326.501 261.027 338.269 260.474Z" fill="#FFE3CA"/>
<path d="M354.065 230.936C354.223 234.885 357.619 237.965 361.568 237.807C365.517 237.649 368.597 234.253 368.439 230.304C368.281 226.355 364.885 223.275 360.936 223.433C356.908 223.591 353.828 226.908 354.065 230.936Z" fill="#FFE3CA"/>
<path d="M350.589 211.665L352.011 238.518C352.169 240.966 351.142 243.414 349.167 244.757C347.904 245.626 346.877 246.81 344.666 246.495C338.268 245.547 341.191 240.808 328.238 241.519C316.391 242.151 317.26 248.785 317.26 248.785C317.26 248.785 319.55 261.343 335.82 261.896C352.09 262.527 360.225 252.181 358.329 238.518L356.749 210.164L350.589 211.665Z" fill="#FFBE55"/>
<path d="M315.838 216.166C315.838 216.166 323.42 217.351 334.399 214.666C345.377 211.981 354.064 220.826 354.064 220.826C354.064 220.826 356.434 224.933 356.987 224.775C357.539 224.696 360.936 223.354 360.936 223.354L360.778 210.954L352.722 204.714L330.45 203.767L317.26 206.689L315.838 216.166Z" fill="#FFBE55"/>
<path d="M321.604 157.564L322.157 158.749L310.389 164.119L309.836 162.855C307.546 157.88 303.202 153.773 297.989 151.561C293.487 149.666 290.328 146.033 288.906 141.452C286.932 134.502 290.17 125.656 298.226 121.944C306.677 118.074 316.47 121.628 320.182 129.605C321.841 133.238 322.078 137.424 320.656 141.294C318.761 146.586 319.156 152.272 321.604 157.564ZM324.921 164.593C325.553 165.936 324.921 167.515 323.499 168.147L316.707 171.227C315.286 171.859 313.706 171.306 313.074 169.885L311.652 166.804L323.42 161.434L324.921 164.593Z" fill="#FFBE55"/>
<path d="M293.531 108.204L290.729 109.483L293.679 115.95L296.481 114.671L293.531 108.204Z" fill="#FFBE55"/>
<path d="M314.653 113.651L317.497 114.678L320.182 107.965L317.339 106.938L314.653 113.651Z" fill="#FFBE55"/>
<path d="M337.298 123.551L330.543 126.632L331.789 129.363L338.544 126.282L337.298 123.551Z" fill="#FFBE55"/>
<path d="M280.366 149.543L273.611 152.625L274.857 155.355L281.611 152.274L280.366 149.543Z" fill="#FFBE55"/>
<path d="M274.216 126.604L273.11 129.447L279.903 131.817L280.929 128.973L274.216 126.604Z" fill="#FFBE55"/>
<path d="M213.323 185.68L210.085 182.442C209.532 181.889 208.821 181.574 208.032 181.574C207.242 181.574 206.531 181.889 205.978 182.442L205.504 182.916C201.239 180.073 196.185 178.572 190.972 178.493H190.893C187.655 178.493 184.496 179.046 181.574 180.231L187.26 174.544C187.971 174.86 188.761 175.097 189.55 175.097C190.972 175.097 192.394 174.544 193.341 173.518C194.368 172.491 194.921 171.148 194.921 169.727C194.921 168.305 194.368 166.883 193.341 165.936C192.315 164.909 190.972 164.356 189.55 164.356C188.129 164.356 186.707 164.909 185.759 165.936C184.733 166.962 184.18 168.305 184.18 169.727C184.18 170.516 184.338 171.306 184.733 172.017L174.465 182.284L174.149 181.968C173.597 181.416 172.886 181.1 172.096 181.1C171.306 181.1 170.595 181.416 170.043 181.968L166.725 185.207C166.173 185.759 165.857 186.47 165.857 187.26C165.857 188.05 166.173 188.761 166.725 189.313L167.041 189.629L156.774 199.897C156.063 199.581 155.273 199.344 154.484 199.344C153.062 199.344 151.64 199.897 150.693 200.923C148.56 203.056 148.56 206.452 150.693 208.584C151.719 209.611 153.062 210.164 154.484 210.164C155.905 210.164 157.327 209.611 158.275 208.584C159.933 206.926 160.328 204.399 159.301 202.424L164.988 196.738C163.882 199.739 163.25 202.898 163.25 206.136C163.25 211.349 164.751 216.324 167.673 220.668L167.12 221.221C166.015 222.327 166.015 224.222 167.12 225.328L170.358 228.566C170.911 229.119 171.622 229.435 172.412 229.435C173.202 229.435 173.913 229.119 174.465 228.566L177.704 225.328C178.809 224.222 178.809 222.327 177.704 221.221L174.465 217.983C173.913 217.43 173.202 217.114 172.412 217.114C171.622 217.114 170.911 217.43 170.358 217.983L170.279 218.062C165.62 210.48 165.778 200.608 170.911 193.183C171.227 193.341 171.622 193.42 171.938 193.42C172.728 193.42 173.439 193.104 173.991 192.552L177.23 189.313C178.098 188.445 178.256 187.26 177.861 186.233C185.286 181.1 195.158 180.863 202.74 185.601L202.503 185.838C201.397 186.944 201.397 188.84 202.503 189.945L205.741 193.183C206.294 193.736 207.005 194.052 207.795 194.052C208.584 194.052 209.295 193.736 209.848 193.183L213.086 189.945C214.429 188.682 214.429 186.865 213.323 185.68ZM174.781 223.275L172.491 225.565L170.2 223.275L172.491 220.984L174.781 223.275ZM188.287 168.305C188.603 167.989 189.077 167.752 189.55 167.752C190.024 167.752 190.498 167.91 190.814 168.305C191.13 168.621 191.367 169.095 191.367 169.569C191.367 170.043 191.209 170.516 190.814 170.832C190.498 171.148 190.024 171.385 189.55 171.385C189.077 171.385 188.603 171.227 188.287 170.832C187.971 170.516 187.734 170.043 187.734 169.569C187.813 169.095 187.971 168.7 188.287 168.305ZM155.747 205.978C155.431 206.294 154.957 206.531 154.484 206.531C154.01 206.531 153.536 206.373 153.22 205.978C152.509 205.267 152.509 204.162 153.22 203.451C153.536 203.135 154.01 202.898 154.484 202.898C154.957 202.898 155.431 203.056 155.747 203.451C156.458 204.162 156.458 205.346 155.747 205.978ZM172.017 189.471L169.727 187.181L172.017 184.891L174.307 187.181L172.017 189.471ZM207.953 190.024L205.662 187.734L207.953 185.444L210.243 187.734L207.953 190.024Z" fill="#0E538C"/>
</svg>
